%FSLAX45Y45*%
G04 Gerber Fmt 4.5, Leading zero omitted, Abs format (unit mm)*
G04 Created by KiCad (PCBNEW 5.1.6) date 2020-08-25 15:19:05*
%MOMM*%
%LPD*%
G01*
G04 APERTURE LIST*
%TA.AperFunction,Profile*%
%ADD10C,0.050000*%
%TD*%
%ADD11C,0.200000*%
%ADD12C,0.300000*%
G04 APERTURE END LIST*
D10*
X14505000Y-12355000D02*
X14500000Y-17200000D01*
X14500000Y-8870000D02*
X14505000Y-12015000D01*
X14500000Y-7200000D02*
X14500000Y-8530000D01*
X4500000Y-7200000D02*
X14500000Y-7200000D01*
X14500000Y-17200000D02*
X4500000Y-17200000D01*
X4500000Y-17200000D02*
X4500000Y-7200000D01*
D11*
X4685000Y-8430000D02*
X4725000Y-8470000D01*
X4725000Y-8430000D02*
X4685000Y-8470000D01*
X4730000Y-9180000D02*
X4770000Y-9220000D01*
X4770000Y-9180000D02*
X4730000Y-9220000D01*
X4730000Y-9930000D02*
X4770000Y-9970000D01*
X4770000Y-9930000D02*
X4730000Y-9970000D01*
X4730000Y-10780000D02*
X4770000Y-10820000D01*
X4770000Y-10780000D02*
X4730000Y-10820000D01*
X4730000Y-11180000D02*
X4770000Y-11220000D01*
X4770000Y-11180000D02*
X4730000Y-11220000D01*
X4730000Y-11680000D02*
X4770000Y-11720000D01*
X4770000Y-11680000D02*
X4730000Y-11720000D01*
X4730000Y-12180000D02*
X4770000Y-12220000D01*
X4770000Y-12180000D02*
X4730000Y-12220000D01*
X4730000Y-12680000D02*
X4770000Y-12720000D01*
X4770000Y-12680000D02*
X4730000Y-12720000D01*
X4730000Y-13180000D02*
X4770000Y-13220000D01*
X4770000Y-13180000D02*
X4730000Y-13220000D01*
X4730000Y-13680000D02*
X4770000Y-13720000D01*
X4770000Y-13680000D02*
X4730000Y-13720000D01*
X4730000Y-14180000D02*
X4770000Y-14220000D01*
X4770000Y-14180000D02*
X4730000Y-14220000D01*
X4730000Y-15430000D02*
X4770000Y-15470000D01*
X4770000Y-15430000D02*
X4730000Y-15470000D01*
X4730000Y-16180000D02*
X4770000Y-16220000D01*
X4770000Y-16180000D02*
X4730000Y-16220000D01*
X4730000Y-16680000D02*
X4770000Y-16720000D01*
X4770000Y-16680000D02*
X4730000Y-16720000D01*
X4780000Y-7480000D02*
X4820000Y-7520000D01*
X4820000Y-7480000D02*
X4780000Y-7520000D01*
X4780000Y-7680000D02*
X4820000Y-7720000D01*
X4820000Y-7680000D02*
X4780000Y-7720000D01*
X4780000Y-15030000D02*
X4820000Y-15070000D01*
X4820000Y-15030000D02*
X4780000Y-15070000D01*
X4880000Y-8930000D02*
X4920000Y-8970000D01*
X4920000Y-8930000D02*
X4880000Y-8970000D01*
X4980000Y-9680000D02*
X5020000Y-9720000D01*
X5020000Y-9680000D02*
X4980000Y-9720000D01*
X4980000Y-16880000D02*
X5020000Y-16920000D01*
X5020000Y-16880000D02*
X4980000Y-16920000D01*
X5030000Y-11430000D02*
X5070000Y-11470000D01*
X5070000Y-11430000D02*
X5030000Y-11470000D01*
X5035000Y-13678600D02*
X5075000Y-13718600D01*
X5075000Y-13678600D02*
X5035000Y-13718600D01*
X5080000Y-8430000D02*
X5120000Y-8470000D01*
X5120000Y-8430000D02*
X5080000Y-8470000D01*
X5130000Y-16080000D02*
X5170000Y-16120000D01*
X5170000Y-16080000D02*
X5130000Y-16120000D01*
X5140000Y-16630000D02*
X5180000Y-16670000D01*
X5180000Y-16630000D02*
X5140000Y-16670000D01*
X5280000Y-9125000D02*
X5320000Y-9165000D01*
X5320000Y-9125000D02*
X5280000Y-9165000D01*
X5380000Y-7680000D02*
X5420000Y-7720000D01*
X5420000Y-7680000D02*
X5380000Y-7720000D01*
X5480000Y-8180000D02*
X5520000Y-8220000D01*
X5520000Y-8180000D02*
X5480000Y-8220000D01*
X5480000Y-8430000D02*
X5520000Y-8470000D01*
X5520000Y-8430000D02*
X5480000Y-8470000D01*
X5580000Y-7680000D02*
X5620000Y-7720000D01*
X5620000Y-7680000D02*
X5580000Y-7720000D01*
X5980000Y-7430000D02*
X6020000Y-7470000D01*
X6020000Y-7430000D02*
X5980000Y-7470000D01*
X6280000Y-9430000D02*
X6320000Y-9470000D01*
X6320000Y-9430000D02*
X6280000Y-9470000D01*
X6280000Y-16535000D02*
X6320000Y-16575000D01*
X6320000Y-16535000D02*
X6280000Y-16575000D01*
X6430000Y-10685000D02*
X6470000Y-10725000D01*
X6470000Y-10685000D02*
X6430000Y-10725000D01*
X6480000Y-11680000D02*
X6520000Y-11720000D01*
X6520000Y-11680000D02*
X6480000Y-11720000D01*
X6480000Y-11880000D02*
X6520000Y-11920000D01*
X6520000Y-11880000D02*
X6480000Y-11920000D01*
X6580000Y-11080000D02*
X6620000Y-11120000D01*
X6620000Y-11080000D02*
X6580000Y-11120000D01*
X6580000Y-13580000D02*
X6620000Y-13620000D01*
X6620000Y-13580000D02*
X6580000Y-13620000D01*
X6580000Y-14780000D02*
X6620000Y-14820000D01*
X6620000Y-14780000D02*
X6580000Y-14820000D01*
X6630000Y-10680000D02*
X6670000Y-10720000D01*
X6670000Y-10680000D02*
X6630000Y-10720000D01*
X6680000Y-9380000D02*
X6720000Y-9420000D01*
X6720000Y-9380000D02*
X6680000Y-9420000D01*
X6680000Y-12380000D02*
X6720000Y-12420000D01*
X6720000Y-12380000D02*
X6680000Y-12420000D01*
X6730000Y-11380000D02*
X6770000Y-11420000D01*
X6770000Y-11380000D02*
X6730000Y-11420000D01*
X6730000Y-11680000D02*
X6770000Y-11720000D01*
X6770000Y-11680000D02*
X6730000Y-11720000D01*
X6736800Y-10376600D02*
X6776800Y-10416600D01*
X6776800Y-10376600D02*
X6736800Y-10416600D01*
X6780000Y-15130000D02*
X6820000Y-15170000D01*
X6820000Y-15130000D02*
X6780000Y-15170000D01*
X6780000Y-15580000D02*
X6820000Y-15620000D01*
X6820000Y-15580000D02*
X6780000Y-15620000D01*
X6780000Y-16280000D02*
X6820000Y-16320000D01*
X6820000Y-16280000D02*
X6780000Y-16320000D01*
X6830000Y-10330000D02*
X6870000Y-10370000D01*
X6870000Y-10330000D02*
X6830000Y-10370000D01*
X6914600Y-9513000D02*
X6954600Y-9553000D01*
X6954600Y-9513000D02*
X6914600Y-9553000D01*
X6980000Y-13180000D02*
X7020000Y-13220000D01*
X7020000Y-13180000D02*
X6980000Y-13220000D01*
X6980000Y-13680000D02*
X7020000Y-13720000D01*
X7020000Y-13680000D02*
X6980000Y-13720000D01*
X6980000Y-14180000D02*
X7020000Y-14220000D01*
X7020000Y-14180000D02*
X6980000Y-14220000D01*
X6980000Y-14680000D02*
X7020000Y-14720000D01*
X7020000Y-14680000D02*
X6980000Y-14720000D01*
X6980000Y-16680000D02*
X7020000Y-16720000D01*
X7020000Y-16680000D02*
X6980000Y-16720000D01*
X7036855Y-15186855D02*
X7076855Y-15226855D01*
X7076855Y-15186855D02*
X7036855Y-15226855D01*
X7080000Y-8480000D02*
X7120000Y-8520000D01*
X7120000Y-8480000D02*
X7080000Y-8520000D01*
X7080000Y-8705000D02*
X7120000Y-8745000D01*
X7120000Y-8705000D02*
X7080000Y-8745000D01*
X7080000Y-9530000D02*
X7120000Y-9570000D01*
X7120000Y-9530000D02*
X7080000Y-9570000D01*
X7080000Y-15030000D02*
X7120000Y-15070000D01*
X7120000Y-15030000D02*
X7080000Y-15070000D01*
X7103368Y-11864578D02*
X7143368Y-11904578D01*
X7143368Y-11864578D02*
X7103368Y-11904578D01*
X7180000Y-15580000D02*
X7220000Y-15620000D01*
X7220000Y-15580000D02*
X7180000Y-15620000D01*
X7230000Y-7780000D02*
X7270000Y-7820000D01*
X7270000Y-7780000D02*
X7230000Y-7820000D01*
X7280000Y-7480000D02*
X7320000Y-7520000D01*
X7320000Y-7480000D02*
X7280000Y-7520000D01*
X7330000Y-9530000D02*
X7370000Y-9570000D01*
X7370000Y-9530000D02*
X7330000Y-9570000D01*
X7355001Y-10048466D02*
X7395001Y-10088466D01*
X7395001Y-10048466D02*
X7355001Y-10088466D01*
X7380000Y-8180000D02*
X7420000Y-8220000D01*
X7420000Y-8180000D02*
X7380000Y-8220000D01*
X7430000Y-9730000D02*
X7470000Y-9770000D01*
X7470000Y-9730000D02*
X7430000Y-9770000D01*
X7448000Y-8573200D02*
X7488000Y-8613200D01*
X7488000Y-8573200D02*
X7448000Y-8613200D01*
X7480000Y-16680000D02*
X7520000Y-16720000D01*
X7520000Y-16680000D02*
X7480000Y-16720000D01*
X7510000Y-9510000D02*
X7550000Y-9550000D01*
X7550000Y-9510000D02*
X7510000Y-9550000D01*
X7530000Y-11680000D02*
X7570000Y-11720000D01*
X7570000Y-11680000D02*
X7530000Y-11720000D01*
X7530000Y-11980000D02*
X7570000Y-12020000D01*
X7570000Y-11980000D02*
X7530000Y-12020000D01*
X7580000Y-9180000D02*
X7620000Y-9220000D01*
X7620000Y-9180000D02*
X7580000Y-9220000D01*
X7580000Y-10930000D02*
X7620000Y-10970000D01*
X7620000Y-10930000D02*
X7580000Y-10970000D01*
X7600400Y-10529000D02*
X7640400Y-10569000D01*
X7640400Y-10529000D02*
X7600400Y-10569000D01*
X7607000Y-10103000D02*
X7647000Y-10143000D01*
X7647000Y-10103000D02*
X7607000Y-10143000D01*
X7630000Y-8730000D02*
X7670000Y-8770000D01*
X7670000Y-8730000D02*
X7630000Y-8770000D01*
X7656881Y-15299999D02*
X7696881Y-15339999D01*
X7696881Y-15299999D02*
X7656881Y-15339999D01*
X7680000Y-12680000D02*
X7720000Y-12720000D01*
X7720000Y-12680000D02*
X7680000Y-12720000D01*
X7780000Y-11380000D02*
X7820000Y-11420000D01*
X7820000Y-11380000D02*
X7780000Y-11420000D01*
X7861000Y-10050000D02*
X7901000Y-10090000D01*
X7901000Y-10050000D02*
X7861000Y-10090000D01*
X7880000Y-13080000D02*
X7920000Y-13120000D01*
X7920000Y-13080000D02*
X7880000Y-13120000D01*
X7880000Y-13480000D02*
X7920000Y-13520000D01*
X7920000Y-13480000D02*
X7880000Y-13520000D01*
X7880000Y-14680000D02*
X7920000Y-14720000D01*
X7920000Y-14680000D02*
X7880000Y-14720000D01*
X7930000Y-7830000D02*
X7970000Y-7870000D01*
X7970000Y-7830000D02*
X7930000Y-7870000D01*
X7930000Y-8230000D02*
X7970000Y-8270000D01*
X7970000Y-8230000D02*
X7930000Y-8270000D01*
X7930600Y-8039800D02*
X7970600Y-8079800D01*
X7970600Y-8039800D02*
X7930600Y-8079800D01*
X7980000Y-9230000D02*
X8020000Y-9270000D01*
X8020000Y-9230000D02*
X7980000Y-9270000D01*
X7980000Y-10930000D02*
X8020000Y-10970000D01*
X8020000Y-10930000D02*
X7980000Y-10970000D01*
X7990000Y-11670000D02*
X8030000Y-11710000D01*
X8030000Y-11670000D02*
X7990000Y-11710000D01*
X8030000Y-10380000D02*
X8070000Y-10420000D01*
X8070000Y-10380000D02*
X8030000Y-10420000D01*
X8116781Y-8637324D02*
X8156781Y-8677324D01*
X8156781Y-8637324D02*
X8116781Y-8677324D01*
X8120000Y-8430000D02*
X8160000Y-8470000D01*
X8160000Y-8430000D02*
X8120000Y-8470000D01*
X8183001Y-11880000D02*
X8223001Y-11920000D01*
X8223001Y-11880000D02*
X8183001Y-11920000D01*
X8230000Y-9030000D02*
X8270000Y-9070000D01*
X8270000Y-9030000D02*
X8230000Y-9070000D01*
X8280000Y-12180000D02*
X8320000Y-12220000D01*
X8320000Y-12180000D02*
X8280000Y-12220000D01*
X8281236Y-8578704D02*
X8321236Y-8618704D01*
X8321236Y-8578704D02*
X8281236Y-8618704D01*
X8298644Y-15661356D02*
X8338644Y-15701356D01*
X8338644Y-15661356D02*
X8298644Y-15701356D01*
X8376966Y-10326966D02*
X8416966Y-10366966D01*
X8416966Y-10326966D02*
X8376966Y-10366966D01*
X8379443Y-8559846D02*
X8419443Y-8599846D01*
X8419443Y-8559846D02*
X8379443Y-8599846D01*
X8430000Y-11180000D02*
X8470000Y-11220000D01*
X8470000Y-11180000D02*
X8430000Y-11220000D01*
X8431814Y-15126916D02*
X8471814Y-15166916D01*
X8471814Y-15126916D02*
X8431814Y-15166916D01*
X8438600Y-12205400D02*
X8478600Y-12245400D01*
X8478600Y-12205400D02*
X8438600Y-12245400D01*
X8464000Y-13119800D02*
X8504000Y-13159800D01*
X8504000Y-13119800D02*
X8464000Y-13159800D01*
X8480000Y-10580000D02*
X8520000Y-10620000D01*
X8520000Y-10580000D02*
X8480000Y-10620000D01*
X8480000Y-16930000D02*
X8520000Y-16970000D01*
X8520000Y-16930000D02*
X8480000Y-16970000D01*
X8530000Y-8730000D02*
X8570000Y-8770000D01*
X8570000Y-8730000D02*
X8530000Y-8770000D01*
X8530000Y-9080000D02*
X8570000Y-9120000D01*
X8570000Y-9080000D02*
X8530000Y-9120000D01*
X8578704Y-15590002D02*
X8618704Y-15630002D01*
X8618704Y-15590002D02*
X8578704Y-15630002D01*
X8580000Y-15080000D02*
X8620000Y-15120000D01*
X8620000Y-15080000D02*
X8580000Y-15120000D01*
X8630796Y-8472500D02*
X8670796Y-8512500D01*
X8670796Y-8472500D02*
X8630796Y-8512500D01*
X8730000Y-8430000D02*
X8770000Y-8470000D01*
X8770000Y-8430000D02*
X8730000Y-8470000D01*
X8730000Y-9080000D02*
X8770000Y-9120000D01*
X8770000Y-9080000D02*
X8730000Y-9120000D01*
X8730000Y-10680000D02*
X8770000Y-10720000D01*
X8770000Y-10680000D02*
X8730000Y-10720000D01*
X8730000Y-11980000D02*
X8770000Y-12020000D01*
X8770000Y-11980000D02*
X8730000Y-12020000D01*
X8830000Y-9814997D02*
X8870000Y-9854997D01*
X8870000Y-9814997D02*
X8830000Y-9854997D01*
X8830000Y-10230000D02*
X8870000Y-10270000D01*
X8870000Y-10230000D02*
X8830000Y-10270000D01*
X8880000Y-9580000D02*
X8920000Y-9620000D01*
X8920000Y-9580000D02*
X8880000Y-9620000D01*
X8920408Y-8220408D02*
X8960408Y-8260408D01*
X8960408Y-8220408D02*
X8920408Y-8260408D01*
X8930000Y-11480000D02*
X8970000Y-11520000D01*
X8970000Y-11480000D02*
X8930000Y-11520000D01*
X8980000Y-10680000D02*
X9020000Y-10720000D01*
X9020000Y-10680000D02*
X8980000Y-10720000D01*
X8980000Y-12430000D02*
X9020000Y-12470000D01*
X9020000Y-12430000D02*
X8980000Y-12470000D01*
X8980000Y-14180000D02*
X9020000Y-14220000D01*
X9020000Y-14180000D02*
X8980000Y-14220000D01*
X8980000Y-14680000D02*
X9020000Y-14720000D01*
X9020000Y-14680000D02*
X8980000Y-14720000D01*
X8980000Y-15680000D02*
X9020000Y-15720000D01*
X9020000Y-15680000D02*
X8980000Y-15720000D01*
X8980000Y-16430000D02*
X9020000Y-16470000D01*
X9020000Y-16430000D02*
X8980000Y-16470000D01*
X9030000Y-11180000D02*
X9070000Y-11220000D01*
X9070000Y-11180000D02*
X9030000Y-11220000D01*
X9064404Y-15175509D02*
X9104404Y-15215509D01*
X9104404Y-15175509D02*
X9064404Y-15215509D01*
X9130000Y-8380000D02*
X9170000Y-8420000D01*
X9170000Y-8380000D02*
X9130000Y-8420000D01*
X9180000Y-11480000D02*
X9220000Y-11520000D01*
X9220000Y-11480000D02*
X9180000Y-11520000D01*
X9212306Y-9959807D02*
X9252306Y-9999807D01*
X9252306Y-9959807D02*
X9212306Y-9999807D01*
X9280000Y-11180000D02*
X9320000Y-11220000D01*
X9320000Y-11180000D02*
X9280000Y-11220000D01*
X9286748Y-11369680D02*
X9326748Y-11409680D01*
X9326748Y-11369680D02*
X9286748Y-11409680D01*
X9330000Y-8380000D02*
X9370000Y-8420000D01*
X9370000Y-8380000D02*
X9330000Y-8420000D01*
X9330000Y-8580000D02*
X9370000Y-8620000D01*
X9370000Y-8580000D02*
X9330000Y-8620000D01*
X9330000Y-8755000D02*
X9370000Y-8795000D01*
X9370000Y-8755000D02*
X9330000Y-8795000D01*
X9342877Y-7592877D02*
X9382877Y-7632877D01*
X9382877Y-7592877D02*
X9342877Y-7632877D01*
X9380000Y-7980000D02*
X9420000Y-8020000D01*
X9420000Y-7980000D02*
X9380000Y-8020000D01*
X9380000Y-11980000D02*
X9420000Y-12020000D01*
X9420000Y-11980000D02*
X9380000Y-12020000D01*
X9417123Y-7667123D02*
X9457123Y-7707123D01*
X9457123Y-7667123D02*
X9417123Y-7707123D01*
X9429200Y-14974000D02*
X9469200Y-15014000D01*
X9469200Y-14974000D02*
X9429200Y-15014000D01*
X9430000Y-9880000D02*
X9470000Y-9920000D01*
X9470000Y-9880000D02*
X9430000Y-9920000D01*
X9480000Y-10430000D02*
X9520000Y-10470000D01*
X9520000Y-10430000D02*
X9480000Y-10470000D01*
X9480000Y-10680000D02*
X9520000Y-10720000D01*
X9520000Y-10680000D02*
X9480000Y-10720000D01*
X9480000Y-15680000D02*
X9520000Y-15720000D01*
X9520000Y-15680000D02*
X9480000Y-15720000D01*
X9530000Y-8668000D02*
X9570000Y-8708000D01*
X9570000Y-8668000D02*
X9530000Y-8708000D01*
X9530000Y-8773000D02*
X9570000Y-8813000D01*
X9570000Y-8773000D02*
X9530000Y-8813000D01*
X9530000Y-12630000D02*
X9570000Y-12670000D01*
X9570000Y-12630000D02*
X9530000Y-12670000D01*
X9577501Y-14948600D02*
X9617501Y-14988600D01*
X9617501Y-14948600D02*
X9577501Y-14988600D01*
X9580000Y-8280000D02*
X9620000Y-8320000D01*
X9620000Y-8280000D02*
X9580000Y-8320000D01*
X9580000Y-9880000D02*
X9620000Y-9920000D01*
X9620000Y-9880000D02*
X9580000Y-9920000D01*
X9630000Y-15430000D02*
X9670000Y-15470000D01*
X9670000Y-15430000D02*
X9630000Y-15470000D01*
X9661056Y-11761056D02*
X9701056Y-11801056D01*
X9701056Y-11761056D02*
X9661056Y-11801056D01*
X9730000Y-16930000D02*
X9770000Y-16970000D01*
X9770000Y-16930000D02*
X9730000Y-16970000D01*
X9780000Y-9880000D02*
X9820000Y-9920000D01*
X9820000Y-9880000D02*
X9780000Y-9920000D01*
X9880000Y-8930000D02*
X9920000Y-8970000D01*
X9920000Y-8930000D02*
X9880000Y-8970000D01*
X9924436Y-14542728D02*
X9964436Y-14582728D01*
X9964436Y-14542728D02*
X9924436Y-14582728D01*
X9980000Y-7430000D02*
X10020000Y-7470000D01*
X10020000Y-7430000D02*
X9980000Y-7470000D01*
X9980000Y-7680000D02*
X10020000Y-7720000D01*
X10020000Y-7680000D02*
X9980000Y-7720000D01*
X9980000Y-11080000D02*
X10020000Y-11120000D01*
X10020000Y-11080000D02*
X9980000Y-11120000D01*
X9980000Y-11730000D02*
X10020000Y-11770000D01*
X10020000Y-11730000D02*
X9980000Y-11770000D01*
X9980000Y-11980000D02*
X10020000Y-12020000D01*
X10020000Y-11980000D02*
X9980000Y-12020000D01*
X9980000Y-14180000D02*
X10020000Y-14220000D01*
X10020000Y-14180000D02*
X9980000Y-14220000D01*
X9998944Y-12898944D02*
X10038944Y-12938944D01*
X10038944Y-12898944D02*
X9998944Y-12938944D01*
X10080000Y-10680000D02*
X10120000Y-10720000D01*
X10120000Y-10680000D02*
X10080000Y-10720000D01*
X10080000Y-12580000D02*
X10120000Y-12620000D01*
X10120000Y-12580000D02*
X10080000Y-12620000D01*
X10180000Y-8180000D02*
X10220000Y-8220000D01*
X10220000Y-8180000D02*
X10180000Y-8220000D01*
X10230000Y-9930000D02*
X10270000Y-9970000D01*
X10270000Y-9930000D02*
X10230000Y-9970000D01*
X10230000Y-10080000D02*
X10270000Y-10120000D01*
X10270000Y-10080000D02*
X10230000Y-10120000D01*
X10230000Y-14680000D02*
X10270000Y-14720000D01*
X10270000Y-14680000D02*
X10230000Y-14720000D01*
X10230000Y-16430000D02*
X10270000Y-16470000D01*
X10270000Y-16430000D02*
X10230000Y-16470000D01*
X10380000Y-12480000D02*
X10420000Y-12520000D01*
X10420000Y-12480000D02*
X10380000Y-12520000D01*
X10480000Y-7430000D02*
X10520000Y-7470000D01*
X10520000Y-7430000D02*
X10480000Y-7470000D01*
X10480000Y-7680000D02*
X10520000Y-7720000D01*
X10520000Y-7680000D02*
X10480000Y-7720000D01*
X10480000Y-9080000D02*
X10520000Y-9120000D01*
X10520000Y-9080000D02*
X10480000Y-9120000D01*
X10480000Y-10080000D02*
X10520000Y-10120000D01*
X10520000Y-10080000D02*
X10480000Y-10120000D01*
X10480000Y-14180000D02*
X10520000Y-14220000D01*
X10520000Y-14180000D02*
X10480000Y-14220000D01*
X10730000Y-9930000D02*
X10770000Y-9970000D01*
X10770000Y-9930000D02*
X10730000Y-9970000D01*
X10730000Y-10280000D02*
X10770000Y-10320000D01*
X10770000Y-10280000D02*
X10730000Y-10320000D01*
X10730000Y-11080000D02*
X10770000Y-11120000D01*
X10770000Y-11080000D02*
X10730000Y-11120000D01*
X10730000Y-15430000D02*
X10770000Y-15470000D01*
X10770000Y-15430000D02*
X10730000Y-15470000D01*
X10830000Y-9487498D02*
X10870000Y-9527498D01*
X10870000Y-9487498D02*
X10830000Y-9527498D01*
X10880000Y-7980000D02*
X10920000Y-8020000D01*
X10920000Y-7980000D02*
X10880000Y-8020000D01*
X10880000Y-9080000D02*
X10920000Y-9120000D01*
X10920000Y-9080000D02*
X10880000Y-9120000D01*
X10930000Y-11880000D02*
X10970000Y-11920000D01*
X10970000Y-11880000D02*
X10930000Y-11920000D01*
X10980000Y-14180000D02*
X11020000Y-14220000D01*
X11020000Y-14180000D02*
X10980000Y-14220000D01*
X10980000Y-14880000D02*
X11020000Y-14920000D01*
X11020000Y-14880000D02*
X10980000Y-14920000D01*
X10980000Y-15180000D02*
X11020000Y-15220000D01*
X11020000Y-15180000D02*
X10980000Y-15220000D01*
X10980000Y-15930000D02*
X11020000Y-15970000D01*
X11020000Y-15930000D02*
X10980000Y-15970000D01*
X10980000Y-16930000D02*
X11020000Y-16970000D01*
X11020000Y-16930000D02*
X10980000Y-16970000D01*
X11030000Y-7430000D02*
X11070000Y-7470000D01*
X11070000Y-7430000D02*
X11030000Y-7470000D01*
X11030000Y-7680000D02*
X11070000Y-7720000D01*
X11070000Y-7680000D02*
X11030000Y-7720000D01*
X11030000Y-7880000D02*
X11070000Y-7920000D01*
X11070000Y-7880000D02*
X11030000Y-7920000D01*
X11030000Y-8480000D02*
X11070000Y-8520000D01*
X11070000Y-8480000D02*
X11030000Y-8520000D01*
X11030000Y-11630000D02*
X11070000Y-11670000D01*
X11070000Y-11630000D02*
X11030000Y-11670000D01*
X11035000Y-8680000D02*
X11075000Y-8720000D01*
X11075000Y-8680000D02*
X11035000Y-8720000D01*
X11035000Y-8880000D02*
X11075000Y-8920000D01*
X11075000Y-8880000D02*
X11035000Y-8920000D01*
X11180000Y-11630000D02*
X11220000Y-11670000D01*
X11220000Y-11630000D02*
X11180000Y-11670000D01*
X11180000Y-12680000D02*
X11220000Y-12720000D01*
X11220000Y-12680000D02*
X11180000Y-12720000D01*
X11198442Y-9561558D02*
X11238442Y-9601558D01*
X11238442Y-9561558D02*
X11198442Y-9601558D01*
X11230000Y-10080000D02*
X11270000Y-10120000D01*
X11270000Y-10080000D02*
X11230000Y-10120000D01*
X11230000Y-10280000D02*
X11270000Y-10320000D01*
X11270000Y-10280000D02*
X11230000Y-10320000D01*
X11230000Y-15430000D02*
X11270000Y-15470000D01*
X11270000Y-15430000D02*
X11230000Y-15470000D01*
X11298442Y-9661558D02*
X11338442Y-9701558D01*
X11338442Y-9661558D02*
X11298442Y-9701558D01*
X11330000Y-8730000D02*
X11370000Y-8770000D01*
X11370000Y-8730000D02*
X11330000Y-8770000D01*
X11359600Y-11214800D02*
X11399600Y-11254800D01*
X11399600Y-11214800D02*
X11359600Y-11254800D01*
X11372695Y-11365782D02*
X11412695Y-11405782D01*
X11412695Y-11365782D02*
X11372695Y-11405782D01*
X11435800Y-11697400D02*
X11475800Y-11737400D01*
X11475800Y-11697400D02*
X11435800Y-11737400D01*
X11442205Y-11129589D02*
X11482205Y-11169589D01*
X11482205Y-11129589D02*
X11442205Y-11169589D01*
X11480000Y-14880000D02*
X11520000Y-14920000D01*
X11520000Y-14880000D02*
X11480000Y-14920000D01*
X11480000Y-15180000D02*
X11520000Y-15220000D01*
X11520000Y-15180000D02*
X11480000Y-15220000D01*
X11480000Y-16430000D02*
X11520000Y-16470000D01*
X11520000Y-16430000D02*
X11480000Y-16470000D01*
X11530000Y-9830000D02*
X11570000Y-9870000D01*
X11570000Y-9830000D02*
X11530000Y-9870000D01*
X11530000Y-10430000D02*
X11570000Y-10470000D01*
X11570000Y-10430000D02*
X11530000Y-10470000D01*
X11530144Y-14346256D02*
X11570144Y-14386256D01*
X11570144Y-14346256D02*
X11530144Y-14386256D01*
X11580000Y-7780000D02*
X11620000Y-7820000D01*
X11620000Y-7780000D02*
X11580000Y-7820000D01*
X11580000Y-8230000D02*
X11620000Y-8270000D01*
X11620000Y-8230000D02*
X11580000Y-8270000D01*
X11613600Y-11849800D02*
X11653600Y-11889800D01*
X11653600Y-11849800D02*
X11613600Y-11889800D01*
X11622720Y-14304480D02*
X11662720Y-14344480D01*
X11662720Y-14304480D02*
X11622720Y-14344480D01*
X11629999Y-8029999D02*
X11669999Y-8069999D01*
X11669999Y-8029999D02*
X11629999Y-8069999D01*
X11680000Y-9830000D02*
X11720000Y-9870000D01*
X11720000Y-9830000D02*
X11680000Y-9870000D01*
X11730000Y-15930000D02*
X11770000Y-15970000D01*
X11770000Y-15930000D02*
X11730000Y-15970000D01*
X11780000Y-10380000D02*
X11820000Y-10420000D01*
X11820000Y-10380000D02*
X11780000Y-10420000D01*
X11880000Y-7630000D02*
X11920000Y-7670000D01*
X11920000Y-7630000D02*
X11880000Y-7670000D01*
X11880000Y-7930000D02*
X11920000Y-7970000D01*
X11920000Y-7930000D02*
X11880000Y-7970000D01*
X11930000Y-13730000D02*
X11970000Y-13770000D01*
X11970000Y-13730000D02*
X11930000Y-13770000D01*
X11980000Y-10180000D02*
X12020000Y-10220000D01*
X12020000Y-10180000D02*
X11980000Y-10220000D01*
X11980000Y-12180000D02*
X12020000Y-12220000D01*
X12020000Y-12180000D02*
X11980000Y-12220000D01*
X11980000Y-14430000D02*
X12020000Y-14470000D01*
X12020000Y-14430000D02*
X11980000Y-14470000D01*
X12080000Y-9980000D02*
X12120000Y-10020000D01*
X12120000Y-9980000D02*
X12080000Y-10020000D01*
X12080000Y-11430000D02*
X12120000Y-11470000D01*
X12120000Y-11430000D02*
X12080000Y-11470000D01*
X12146730Y-8160041D02*
X12186730Y-8200041D01*
X12186730Y-8160041D02*
X12146730Y-8200041D01*
X12180000Y-12880000D02*
X12220000Y-12920000D01*
X12220000Y-12880000D02*
X12180000Y-12920000D01*
X12195571Y-15708705D02*
X12235571Y-15748705D01*
X12235571Y-15708705D02*
X12195571Y-15748705D01*
X12230000Y-11880000D02*
X12270000Y-11920000D01*
X12270000Y-11880000D02*
X12230000Y-11920000D01*
X12280000Y-7730000D02*
X12320000Y-7770000D01*
X12320000Y-7730000D02*
X12280000Y-7770000D01*
X12280000Y-7930000D02*
X12320000Y-7970000D01*
X12320000Y-7930000D02*
X12280000Y-7970000D01*
X12280000Y-11080000D02*
X12320000Y-11120000D01*
X12320000Y-11080000D02*
X12280000Y-11120000D01*
X12280000Y-14780000D02*
X12320000Y-14820000D01*
X12320000Y-14780000D02*
X12280000Y-14820000D01*
X12380000Y-10380000D02*
X12420000Y-10420000D01*
X12420000Y-10380000D02*
X12380000Y-10420000D01*
X12480000Y-7480000D02*
X12520000Y-7520000D01*
X12520000Y-7480000D02*
X12480000Y-7520000D01*
X12480000Y-8180000D02*
X12520000Y-8220000D01*
X12520000Y-8180000D02*
X12480000Y-8220000D01*
X12480000Y-8380000D02*
X12520000Y-8420000D01*
X12520000Y-8380000D02*
X12480000Y-8420000D01*
X12480000Y-10080000D02*
X12520000Y-10120000D01*
X12520000Y-10080000D02*
X12480000Y-10120000D01*
X12480000Y-12180000D02*
X12520000Y-12220000D01*
X12520000Y-12180000D02*
X12480000Y-12220000D01*
X12530596Y-14328210D02*
X12570596Y-14368210D01*
X12570596Y-14328210D02*
X12530596Y-14368210D01*
X12594999Y-14044092D02*
X12634999Y-14084092D01*
X12634999Y-14044092D02*
X12594999Y-14084092D01*
X12680000Y-10380000D02*
X12720000Y-10420000D01*
X12720000Y-10380000D02*
X12680000Y-10420000D01*
X12730000Y-8930000D02*
X12770000Y-8970000D01*
X12770000Y-8930000D02*
X12730000Y-8970000D01*
X12730000Y-9930000D02*
X12770000Y-9970000D01*
X12770000Y-9930000D02*
X12730000Y-9970000D01*
X12780000Y-15830000D02*
X12820000Y-15870000D01*
X12820000Y-15830000D02*
X12780000Y-15870000D01*
X12980000Y-7830000D02*
X13020000Y-7870000D01*
X13020000Y-7830000D02*
X12980000Y-7870000D01*
X12980000Y-8680000D02*
X13020000Y-8720000D01*
X13020000Y-8680000D02*
X12980000Y-8720000D01*
X12980000Y-10080000D02*
X13020000Y-10120000D01*
X13020000Y-10080000D02*
X12980000Y-10120000D01*
X12980000Y-13930000D02*
X13020000Y-13970000D01*
X13020000Y-13930000D02*
X12980000Y-13970000D01*
X12980000Y-15830000D02*
X13020000Y-15870000D01*
X13020000Y-15830000D02*
X12980000Y-15870000D01*
X13230000Y-9680000D02*
X13270000Y-9720000D01*
X13270000Y-9680000D02*
X13230000Y-9720000D01*
X13230000Y-12680000D02*
X13270000Y-12720000D01*
X13270000Y-12680000D02*
X13230000Y-12720000D01*
X13230000Y-16680000D02*
X13270000Y-16720000D01*
X13270000Y-16680000D02*
X13230000Y-16720000D01*
X13280000Y-10380000D02*
X13320000Y-10420000D01*
X13320000Y-10380000D02*
X13280000Y-10420000D01*
X13280000Y-10580000D02*
X13320000Y-10620000D01*
X13320000Y-10580000D02*
X13280000Y-10620000D01*
X13330000Y-11130000D02*
X13370000Y-11170000D01*
X13370000Y-11130000D02*
X13330000Y-11170000D01*
X13330000Y-11330000D02*
X13370000Y-11370000D01*
X13370000Y-11330000D02*
X13330000Y-11370000D01*
X13330000Y-15280000D02*
X13370000Y-15320000D01*
X13370000Y-15280000D02*
X13330000Y-15320000D01*
X13480000Y-9680000D02*
X13520000Y-9720000D01*
X13520000Y-9680000D02*
X13480000Y-9720000D01*
X13480000Y-13680000D02*
X13520000Y-13720000D01*
X13520000Y-13680000D02*
X13480000Y-13720000D01*
X13530000Y-9030000D02*
X13570000Y-9070000D01*
X13570000Y-9030000D02*
X13530000Y-9070000D01*
X13530000Y-15180000D02*
X13570000Y-15220000D01*
X13570000Y-15180000D02*
X13530000Y-15220000D01*
X13580000Y-12280000D02*
X13620000Y-12320000D01*
X13620000Y-12280000D02*
X13580000Y-12320000D01*
X13580000Y-14130000D02*
X13620000Y-14170000D01*
X13620000Y-14130000D02*
X13580000Y-14170000D01*
X13580000Y-14380000D02*
X13620000Y-14420000D01*
X13620000Y-14380000D02*
X13580000Y-14420000D01*
X13580000Y-14980000D02*
X13620000Y-15020000D01*
X13620000Y-14980000D02*
X13580000Y-15020000D01*
X13580000Y-15530000D02*
X13620000Y-15570000D01*
X13620000Y-15530000D02*
X13580000Y-15570000D01*
X13630000Y-8630000D02*
X13670000Y-8670000D01*
X13670000Y-8630000D02*
X13630000Y-8670000D01*
X13730000Y-8180000D02*
X13770000Y-8220000D01*
X13770000Y-8180000D02*
X13730000Y-8220000D01*
X13730000Y-9180000D02*
X13770000Y-9220000D01*
X13770000Y-9180000D02*
X13730000Y-9220000D01*
X13730000Y-9430000D02*
X13770000Y-9470000D01*
X13770000Y-9430000D02*
X13730000Y-9470000D01*
X13730000Y-10180000D02*
X13770000Y-10220000D01*
X13770000Y-10180000D02*
X13730000Y-10220000D01*
X13730000Y-13430000D02*
X13770000Y-13470000D01*
X13770000Y-13430000D02*
X13730000Y-13470000D01*
X13930000Y-8330000D02*
X13970000Y-8370000D01*
X13970000Y-8330000D02*
X13930000Y-8370000D01*
X13930000Y-8780000D02*
X13970000Y-8820000D01*
X13970000Y-8780000D02*
X13930000Y-8820000D01*
X13930000Y-11480000D02*
X13970000Y-11520000D01*
X13970000Y-11480000D02*
X13930000Y-11520000D01*
X13930000Y-11780000D02*
X13970000Y-11820000D01*
X13970000Y-11780000D02*
X13930000Y-11820000D01*
X13930000Y-12780000D02*
X13970000Y-12820000D01*
X13970000Y-12780000D02*
X13930000Y-12820000D01*
X13980000Y-12180000D02*
X14020000Y-12220000D01*
X14020000Y-12180000D02*
X13980000Y-12220000D01*
X13980000Y-13430000D02*
X14020000Y-13470000D01*
X14020000Y-13430000D02*
X13980000Y-13470000D01*
X13980000Y-14980000D02*
X14020000Y-15020000D01*
X14020000Y-14980000D02*
X13980000Y-15020000D01*
X13980000Y-15180000D02*
X14020000Y-15220000D01*
X14020000Y-15180000D02*
X13980000Y-15220000D01*
X14030000Y-9630000D02*
X14070000Y-9670000D01*
X14070000Y-9630000D02*
X14030000Y-9670000D01*
X14030000Y-10330000D02*
X14070000Y-10370000D01*
X14070000Y-10330000D02*
X14030000Y-10370000D01*
X14130000Y-14130000D02*
X14170000Y-14170000D01*
X14170000Y-14130000D02*
X14130000Y-14170000D01*
X14230000Y-10680000D02*
X14270000Y-10720000D01*
X14270000Y-10680000D02*
X14230000Y-10720000D01*
X14230000Y-14430000D02*
X14270000Y-14470000D01*
X14270000Y-14430000D02*
X14230000Y-14470000D01*
X14356800Y-12459400D02*
X14396800Y-12499400D01*
X14396800Y-12459400D02*
X14356800Y-12499400D01*
X14382200Y-8979600D02*
X14422200Y-9019600D01*
X14422200Y-8979600D02*
X14382200Y-9019600D01*
X14407600Y-11849800D02*
X14447600Y-11889800D01*
X14447600Y-11849800D02*
X14407600Y-11889800D01*
X8525000Y-7515000D02*
G75*
G03*
X8525000Y-7515000I-25000J0D01*
G01*
X8485000Y-7482500D02*
X8485000Y-7547500D01*
X8515000Y-7482500D02*
X8515000Y-7547500D01*
X8485000Y-7547500D02*
G75*
G03*
X8515000Y-7547500I15000J0D01*
G01*
X8515000Y-7482500D02*
G75*
G03*
X8485000Y-7482500I-15000J0D01*
G01*
X9225000Y-7515000D02*
G75*
G03*
X9225000Y-7515000I-25000J0D01*
G01*
X9185000Y-7482500D02*
X9185000Y-7547500D01*
X9215000Y-7482500D02*
X9215000Y-7547500D01*
X9185000Y-7547500D02*
G75*
G03*
X9215000Y-7547500I15000J0D01*
G01*
X9215000Y-7482500D02*
G75*
G03*
X9185000Y-7482500I-15000J0D01*
G01*
X8600000Y-7757500D02*
X8600000Y-7812500D01*
X8572500Y-7785000D02*
X8627500Y-7785000D01*
X8615000Y-7767500D02*
X8585000Y-7767500D01*
X8615000Y-7802500D02*
X8585000Y-7802500D01*
X8585000Y-7767500D02*
G75*
G03*
X8585000Y-7802500I0J-17500D01*
G01*
X8615000Y-7802500D02*
G75*
G03*
X8615000Y-7767500I0J17500D01*
G01*
X9100000Y-7757500D02*
X9100000Y-7812500D01*
X9072500Y-7785000D02*
X9127500Y-7785000D01*
X9115000Y-7767500D02*
X9085000Y-7767500D01*
X9115000Y-7802500D02*
X9085000Y-7802500D01*
X9085000Y-7767500D02*
G75*
G03*
X9085000Y-7802500I0J-17500D01*
G01*
X9115000Y-7802500D02*
G75*
G03*
X9115000Y-7767500I0J17500D01*
G01*
X8753285Y-9379285D02*
X8753285Y-9322716D01*
X8696716Y-9322716D01*
X8696716Y-9379285D01*
X8753285Y-9379285D01*
X8753285Y-10903285D02*
X8753285Y-10846716D01*
X8696716Y-10846716D01*
X8696716Y-10903285D01*
X8753285Y-10903285D01*
X9007285Y-9379285D02*
X9007285Y-9322716D01*
X8950716Y-9322716D01*
X8950716Y-9379285D01*
X9007285Y-9379285D01*
X9007285Y-10903285D02*
X9007285Y-10846716D01*
X8950716Y-10846716D01*
X8950716Y-10903285D01*
X9007285Y-10903285D01*
X9261285Y-9379285D02*
X9261285Y-9322716D01*
X9204716Y-9322716D01*
X9204716Y-9379285D01*
X9261285Y-9379285D01*
X9261285Y-10903285D02*
X9261285Y-10846716D01*
X9204716Y-10846716D01*
X9204716Y-10903285D01*
X9261285Y-10903285D01*
X9515285Y-9379285D02*
X9515285Y-9322716D01*
X9458716Y-9322716D01*
X9458716Y-9379285D01*
X9515285Y-9379285D01*
X9515285Y-10903285D02*
X9515285Y-10846716D01*
X9458716Y-10846716D01*
X9458716Y-10903285D01*
X9515285Y-10903285D01*
X9769285Y-9379285D02*
X9769285Y-9322716D01*
X9712716Y-9322716D01*
X9712716Y-9379285D01*
X9769285Y-9379285D01*
X9769285Y-10903285D02*
X9769285Y-10846716D01*
X9712716Y-10846716D01*
X9712716Y-10903285D01*
X9769285Y-10903285D01*
X10023285Y-9379285D02*
X10023285Y-9322716D01*
X9966716Y-9322716D01*
X9966716Y-9379285D01*
X10023285Y-9379285D01*
X10023285Y-10903285D02*
X10023285Y-10846716D01*
X9966716Y-10846716D01*
X9966716Y-10903285D01*
X10023285Y-10903285D01*
X10277285Y-9379285D02*
X10277285Y-9322716D01*
X10220716Y-9322716D01*
X10220716Y-9379285D01*
X10277285Y-9379285D01*
X10277285Y-10903285D02*
X10277285Y-10846716D01*
X10220716Y-10846716D01*
X10220716Y-10903285D01*
X10277285Y-10903285D01*
X10531285Y-9379285D02*
X10531285Y-9322716D01*
X10474716Y-9322716D01*
X10474716Y-9379285D01*
X10531285Y-9379285D01*
X10531285Y-10903285D02*
X10531285Y-10846716D01*
X10474716Y-10846716D01*
X10474716Y-10903285D01*
X10531285Y-10903285D01*
X10785285Y-9379285D02*
X10785285Y-9322716D01*
X10728716Y-9322716D01*
X10728716Y-9379285D01*
X10785285Y-9379285D01*
X10785285Y-10903285D02*
X10785285Y-10846716D01*
X10728716Y-10846716D01*
X10728716Y-10903285D01*
X10785285Y-10903285D01*
X11039285Y-9379285D02*
X11039285Y-9322716D01*
X10982716Y-9322716D01*
X10982716Y-9379285D01*
X11039285Y-9379285D01*
X11039285Y-10903285D02*
X11039285Y-10846716D01*
X10982716Y-10846716D01*
X10982716Y-10903285D01*
X11039285Y-10903285D01*
X11293284Y-9379285D02*
X11293284Y-9322716D01*
X11236715Y-9322716D01*
X11236715Y-9379285D01*
X11293284Y-9379285D01*
X11293284Y-10903285D02*
X11293284Y-10846716D01*
X11236715Y-10846716D01*
X11236715Y-10903285D01*
X11293284Y-10903285D01*
X11547284Y-9379285D02*
X11547284Y-9322716D01*
X11490715Y-9322716D01*
X11490715Y-9379285D01*
X11547284Y-9379285D01*
X11547284Y-10903285D02*
X11547284Y-10846716D01*
X11490715Y-10846716D01*
X11490715Y-10903285D01*
X11547284Y-10903285D01*
X11801284Y-9379285D02*
X11801284Y-9322716D01*
X11744715Y-9322716D01*
X11744715Y-9379285D01*
X11801284Y-9379285D01*
X11801284Y-10903285D02*
X11801284Y-10846716D01*
X11744715Y-10846716D01*
X11744715Y-10903285D01*
X11801284Y-10903285D01*
X12055284Y-9379285D02*
X12055284Y-9322716D01*
X11998715Y-9322716D01*
X11998715Y-9379285D01*
X12055284Y-9379285D01*
X12055284Y-10903285D02*
X12055284Y-10846716D01*
X11998715Y-10846716D01*
X11998715Y-10903285D01*
X12055284Y-10903285D01*
X12309284Y-9379285D02*
X12309284Y-9322716D01*
X12252715Y-9322716D01*
X12252715Y-9379285D01*
X12309284Y-9379285D01*
X12309284Y-10903285D02*
X12309284Y-10846716D01*
X12252715Y-10846716D01*
X12252715Y-10903285D01*
X12309284Y-10903285D01*
X12563284Y-9379285D02*
X12563284Y-9322716D01*
X12506715Y-9322716D01*
X12506715Y-9379285D01*
X12563284Y-9379285D01*
X12563284Y-10903285D02*
X12563284Y-10846716D01*
X12506715Y-10846716D01*
X12506715Y-10903285D01*
X12563284Y-10903285D01*
X12817284Y-9379285D02*
X12817284Y-9322716D01*
X12760715Y-9322716D01*
X12760715Y-9379285D01*
X12817284Y-9379285D01*
X12817284Y-10903285D02*
X12817284Y-10846716D01*
X12760715Y-10846716D01*
X12760715Y-10903285D01*
X12817284Y-10903285D01*
X13071284Y-9379285D02*
X13071284Y-9322716D01*
X13014715Y-9322716D01*
X13014715Y-9379285D01*
X13071284Y-9379285D01*
X13071284Y-10903285D02*
X13071284Y-10846716D01*
X13014715Y-10846716D01*
X13014715Y-10903285D01*
X13071284Y-10903285D01*
X13325284Y-9379285D02*
X13325284Y-9322716D01*
X13268715Y-9322716D01*
X13268715Y-9379285D01*
X13325284Y-9379285D01*
X13325284Y-10903285D02*
X13325284Y-10846716D01*
X13268715Y-10846716D01*
X13268715Y-10903285D01*
X13325284Y-10903285D01*
X13579284Y-9379285D02*
X13579284Y-9322716D01*
X13522715Y-9322716D01*
X13522715Y-9379285D01*
X13579284Y-9379285D01*
X13579284Y-10903285D02*
X13579284Y-10846716D01*
X13522715Y-10846716D01*
X13522715Y-10903285D01*
X13579284Y-10903285D01*
X9997285Y-15751284D02*
X9997285Y-15694715D01*
X9940716Y-15694715D01*
X9940716Y-15751284D01*
X9997285Y-15751284D01*
X10251285Y-15751284D02*
X10251285Y-15694715D01*
X10194716Y-15694715D01*
X10194716Y-15751284D01*
X10251285Y-15751284D01*
X10505285Y-15751284D02*
X10505285Y-15694715D01*
X10448716Y-15694715D01*
X10448716Y-15751284D01*
X10505285Y-15751284D01*
X10759285Y-15751284D02*
X10759285Y-15694715D01*
X10702716Y-15694715D01*
X10702716Y-15751284D01*
X10759285Y-15751284D01*
X12650000Y-15525000D02*
X12700000Y-15475000D01*
X12650000Y-15425000D01*
X12600000Y-15475000D01*
X12650000Y-15525000D01*
X12650000Y-16975000D02*
X12700000Y-16925000D01*
X12650000Y-16875000D01*
X12600000Y-16925000D01*
X12650000Y-16975000D01*
X12900000Y-15525000D02*
X12950000Y-15475000D01*
X12900000Y-15425000D01*
X12850000Y-15475000D01*
X12900000Y-15525000D01*
X13150000Y-15525000D02*
X13200000Y-15475000D01*
X13150000Y-15425000D01*
X13100000Y-15475000D01*
X13150000Y-15525000D01*
X13154000Y-16975000D02*
X13204000Y-16925000D01*
X13154000Y-16875000D01*
X13104000Y-16925000D01*
X13154000Y-16975000D01*
X7450000Y-15600000D02*
X7500000Y-15550000D01*
X7450000Y-15500000D01*
X7400000Y-15550000D01*
X7450000Y-15600000D01*
X7450000Y-17050000D02*
X7500000Y-17000000D01*
X7450000Y-16950000D01*
X7400000Y-17000000D01*
X7450000Y-17050000D01*
X7700000Y-15600000D02*
X7750000Y-15550000D01*
X7700000Y-15500000D01*
X7650000Y-15550000D01*
X7700000Y-15600000D01*
X7950000Y-15600000D02*
X8000000Y-15550000D01*
X7950000Y-15500000D01*
X7900000Y-15550000D01*
X7950000Y-15600000D01*
X7954000Y-17050000D02*
X8004000Y-17000000D01*
X7954000Y-16950000D01*
X7904000Y-17000000D01*
X7954000Y-17050000D01*
X11646000Y-8950000D02*
X11696000Y-8900000D01*
X11646000Y-8850000D01*
X11596000Y-8900000D01*
X11646000Y-8950000D01*
X11900000Y-8950000D02*
X11950000Y-8900000D01*
X11900000Y-8850000D01*
X11850000Y-8900000D01*
X11900000Y-8950000D01*
X14250000Y-15696000D02*
X14300000Y-15646000D01*
X14250000Y-15596000D01*
X14200000Y-15646000D01*
X14250000Y-15696000D01*
X14250000Y-15950000D02*
X14300000Y-15900000D01*
X14250000Y-15850000D01*
X14200000Y-15900000D01*
X14250000Y-15950000D01*
X8250000Y-9426000D02*
X8300000Y-9376000D01*
X8250000Y-9326000D01*
X8200000Y-9376000D01*
X8250000Y-9426000D01*
X8250000Y-9680000D02*
X8300000Y-9630000D01*
X8250000Y-9580000D01*
X8200000Y-9630000D01*
X8250000Y-9680000D01*
X8250000Y-9934000D02*
X8300000Y-9884000D01*
X8250000Y-9834000D01*
X8200000Y-9884000D01*
X8250000Y-9934000D01*
X8250000Y-10188000D02*
X8300000Y-10138000D01*
X8250000Y-10088000D01*
X8200000Y-10138000D01*
X8250000Y-10188000D01*
X8250000Y-10442000D02*
X8300000Y-10392000D01*
X8250000Y-10342000D01*
X8200000Y-10392000D01*
X8250000Y-10442000D01*
X8250000Y-10696000D02*
X8300000Y-10646000D01*
X8250000Y-10596000D01*
X8200000Y-10646000D01*
X8250000Y-10696000D01*
X8250000Y-10950000D02*
X8300000Y-10900000D01*
X8250000Y-10850000D01*
X8200000Y-10900000D01*
X8250000Y-10950000D01*
X11195000Y-16245000D02*
X11305000Y-16355000D01*
X11305000Y-16245000D02*
X11195000Y-16355000D01*
X11305000Y-16300000D02*
G75*
G03*
X11305000Y-16300000I-55000J0D01*
G01*
X11195000Y-16695000D02*
X11305000Y-16805000D01*
X11305000Y-16695000D02*
X11195000Y-16805000D01*
X11305000Y-16750000D02*
G75*
G03*
X11305000Y-16750000I-55000J0D01*
G01*
X11845000Y-16245000D02*
X11955000Y-16355000D01*
X11955000Y-16245000D02*
X11845000Y-16355000D01*
X11955000Y-16300000D02*
G75*
G03*
X11955000Y-16300000I-55000J0D01*
G01*
X11845000Y-16695000D02*
X11955000Y-16805000D01*
X11955000Y-16695000D02*
X11845000Y-16805000D01*
X11955000Y-16750000D02*
G75*
G03*
X11955000Y-16750000I-55000J0D01*
G01*
X7545000Y-14445000D02*
X7655000Y-14555000D01*
X7655000Y-14445000D02*
X7545000Y-14555000D01*
X7655000Y-14500000D02*
G75*
G03*
X7655000Y-14500000I-55000J0D01*
G01*
X7545000Y-14895000D02*
X7655000Y-15005000D01*
X7655000Y-14895000D02*
X7545000Y-15005000D01*
X7655000Y-14950000D02*
G75*
G03*
X7655000Y-14950000I-55000J0D01*
G01*
X8195000Y-14445000D02*
X8305000Y-14555000D01*
X8305000Y-14445000D02*
X8195000Y-14555000D01*
X8305000Y-14500000D02*
G75*
G03*
X8305000Y-14500000I-55000J0D01*
G01*
X8195000Y-14895000D02*
X8305000Y-15005000D01*
X8305000Y-14895000D02*
X8195000Y-15005000D01*
X8305000Y-14950000D02*
G75*
G03*
X8305000Y-14950000I-55000J0D01*
G01*
X7545000Y-13245000D02*
X7655000Y-13355000D01*
X7655000Y-13245000D02*
X7545000Y-13355000D01*
X7655000Y-13300000D02*
G75*
G03*
X7655000Y-13300000I-55000J0D01*
G01*
X7545000Y-13695000D02*
X7655000Y-13805000D01*
X7655000Y-13695000D02*
X7545000Y-13805000D01*
X7655000Y-13750000D02*
G75*
G03*
X7655000Y-13750000I-55000J0D01*
G01*
X8195000Y-13245000D02*
X8305000Y-13355000D01*
X8305000Y-13245000D02*
X8195000Y-13355000D01*
X8305000Y-13300000D02*
G75*
G03*
X8305000Y-13300000I-55000J0D01*
G01*
X8195000Y-13695000D02*
X8305000Y-13805000D01*
X8305000Y-13695000D02*
X8195000Y-13805000D01*
X8305000Y-13750000D02*
G75*
G03*
X8305000Y-13750000I-55000J0D01*
G01*
X8695000Y-16245000D02*
X8805000Y-16355000D01*
X8805000Y-16245000D02*
X8695000Y-16355000D01*
X8805000Y-16300000D02*
G75*
G03*
X8805000Y-16300000I-55000J0D01*
G01*
X8695000Y-16695000D02*
X8805000Y-16805000D01*
X8805000Y-16695000D02*
X8695000Y-16805000D01*
X8805000Y-16750000D02*
G75*
G03*
X8805000Y-16750000I-55000J0D01*
G01*
X9345000Y-16245000D02*
X9455000Y-16355000D01*
X9455000Y-16245000D02*
X9345000Y-16355000D01*
X9455000Y-16300000D02*
G75*
G03*
X9455000Y-16300000I-55000J0D01*
G01*
X9345000Y-16695000D02*
X9455000Y-16805000D01*
X9455000Y-16695000D02*
X9345000Y-16805000D01*
X9455000Y-16750000D02*
G75*
G03*
X9455000Y-16750000I-55000J0D01*
G01*
X9945000Y-16245000D02*
X10055000Y-16355000D01*
X10055000Y-16245000D02*
X9945000Y-16355000D01*
X10055000Y-16300000D02*
G75*
G03*
X10055000Y-16300000I-55000J0D01*
G01*
X9945000Y-16695000D02*
X10055000Y-16805000D01*
X10055000Y-16695000D02*
X9945000Y-16805000D01*
X10055000Y-16750000D02*
G75*
G03*
X10055000Y-16750000I-55000J0D01*
G01*
X10595000Y-16245000D02*
X10705000Y-16355000D01*
X10705000Y-16245000D02*
X10595000Y-16355000D01*
X10705000Y-16300000D02*
G75*
G03*
X10705000Y-16300000I-55000J0D01*
G01*
X10595000Y-16695000D02*
X10705000Y-16805000D01*
X10705000Y-16695000D02*
X10595000Y-16805000D01*
X10705000Y-16750000D02*
G75*
G03*
X10705000Y-16750000I-55000J0D01*
G01*
X12445000Y-14445000D02*
X12555000Y-14555000D01*
X12555000Y-14445000D02*
X12445000Y-14555000D01*
X12555000Y-14500000D02*
G75*
G03*
X12555000Y-14500000I-55000J0D01*
G01*
X12445000Y-14895000D02*
X12555000Y-15005000D01*
X12555000Y-14895000D02*
X12445000Y-15005000D01*
X12555000Y-14950000D02*
G75*
G03*
X12555000Y-14950000I-55000J0D01*
G01*
X13095000Y-14445000D02*
X13205000Y-14555000D01*
X13205000Y-14445000D02*
X13095000Y-14555000D01*
X13205000Y-14500000D02*
G75*
G03*
X13205000Y-14500000I-55000J0D01*
G01*
X13095000Y-14895000D02*
X13205000Y-15005000D01*
X13205000Y-14895000D02*
X13095000Y-15005000D01*
X13205000Y-14950000D02*
G75*
G03*
X13205000Y-14950000I-55000J0D01*
G01*
X12445000Y-13245000D02*
X12555000Y-13355000D01*
X12555000Y-13245000D02*
X12445000Y-13355000D01*
X12555000Y-13300000D02*
G75*
G03*
X12555000Y-13300000I-55000J0D01*
G01*
X12445000Y-13695000D02*
X12555000Y-13805000D01*
X12555000Y-13695000D02*
X12445000Y-13805000D01*
X12555000Y-13750000D02*
G75*
G03*
X12555000Y-13750000I-55000J0D01*
G01*
X13095000Y-13245000D02*
X13205000Y-13355000D01*
X13205000Y-13245000D02*
X13095000Y-13355000D01*
X13205000Y-13300000D02*
G75*
G03*
X13205000Y-13300000I-55000J0D01*
G01*
X13095000Y-13695000D02*
X13205000Y-13805000D01*
X13205000Y-13695000D02*
X13095000Y-13805000D01*
X13205000Y-13750000D02*
G75*
G03*
X13205000Y-13750000I-55000J0D01*
G01*
X12275000Y-16150000D02*
X12425000Y-16300000D01*
X12425000Y-16150000D02*
X12275000Y-16300000D01*
X12350000Y-16150000D02*
X12350000Y-16300000D01*
X12275000Y-16225000D02*
X12425000Y-16225000D01*
X12285000Y-16170000D02*
X12285000Y-16280000D01*
X12415000Y-16170000D02*
X12415000Y-16280000D01*
X12285000Y-16280000D02*
G75*
G03*
X12415000Y-16280000I65000J0D01*
G01*
X12415000Y-16170000D02*
G75*
G03*
X12285000Y-16170000I-65000J0D01*
G01*
X13375000Y-16150000D02*
X13525000Y-16300000D01*
X13525000Y-16150000D02*
X13375000Y-16300000D01*
X13450000Y-16150000D02*
X13450000Y-16300000D01*
X13375000Y-16225000D02*
X13525000Y-16225000D01*
X13385000Y-16175000D02*
X13385000Y-16275000D01*
X13515000Y-16175000D02*
X13515000Y-16275000D01*
X13385000Y-16275000D02*
G75*
G03*
X13515000Y-16275000I65000J0D01*
G01*
X13515000Y-16175000D02*
G75*
G03*
X13385000Y-16175000I-65000J0D01*
G01*
X13370000Y-12110000D02*
X13520000Y-12260000D01*
X13520000Y-12110000D02*
X13370000Y-12260000D01*
X13445000Y-12110000D02*
X13445000Y-12260000D01*
X13370000Y-12185000D02*
X13520000Y-12185000D01*
X13365000Y-8625000D02*
X13515000Y-8775000D01*
X13515000Y-8625000D02*
X13365000Y-8775000D01*
X13440000Y-8625000D02*
X13440000Y-8775000D01*
X13365000Y-8700000D02*
X13515000Y-8700000D01*
X7075000Y-16225000D02*
X7225000Y-16375000D01*
X7225000Y-16225000D02*
X7075000Y-16375000D01*
X7150000Y-16225000D02*
X7150000Y-16375000D01*
X7075000Y-16300000D02*
X7225000Y-16300000D01*
X7085000Y-16245000D02*
X7085000Y-16355000D01*
X7215000Y-16245000D02*
X7215000Y-16355000D01*
X7085000Y-16355000D02*
G75*
G03*
X7215000Y-16355000I65000J0D01*
G01*
X7215000Y-16245000D02*
G75*
G03*
X7085000Y-16245000I-65000J0D01*
G01*
X8175000Y-16225000D02*
X8325000Y-16375000D01*
X8325000Y-16225000D02*
X8175000Y-16375000D01*
X8250000Y-16225000D02*
X8250000Y-16375000D01*
X8175000Y-16300000D02*
X8325000Y-16300000D01*
X8185000Y-16250000D02*
X8185000Y-16350000D01*
X8315000Y-16250000D02*
X8315000Y-16350000D01*
X8185000Y-16350000D02*
G75*
G03*
X8315000Y-16350000I65000J0D01*
G01*
X8315000Y-16250000D02*
G75*
G03*
X8185000Y-16250000I-65000J0D01*
G01*
X4960000Y-14266000D02*
X5140000Y-14446000D01*
X5140000Y-14266000D02*
X4960000Y-14446000D01*
X5113640Y-14419640D02*
X5113640Y-14292360D01*
X4986360Y-14292360D01*
X4986360Y-14419640D01*
X5113640Y-14419640D01*
X4960000Y-15410000D02*
X5140000Y-15590000D01*
X5140000Y-15410000D02*
X4960000Y-15590000D01*
X5113640Y-15563640D02*
X5113640Y-15436360D01*
X4986360Y-15436360D01*
X4986360Y-15563640D01*
X5113640Y-15563640D01*
X4666000Y-8060000D02*
X4846000Y-8240000D01*
X4846000Y-8060000D02*
X4666000Y-8240000D01*
X4819640Y-8213640D02*
X4819640Y-8086360D01*
X4692360Y-8086360D01*
X4692360Y-8213640D01*
X4819640Y-8213640D01*
X5810000Y-8060000D02*
X5990000Y-8240000D01*
X5990000Y-8060000D02*
X5810000Y-8240000D01*
X5963640Y-8213640D02*
X5963640Y-8086360D01*
X5836360Y-8086360D01*
X5836360Y-8213640D01*
X5963640Y-8213640D01*
X4960000Y-11966000D02*
X5140000Y-12146000D01*
X5140000Y-11966000D02*
X4960000Y-12146000D01*
X5113640Y-12119640D02*
X5113640Y-11992360D01*
X4986360Y-11992360D01*
X4986360Y-12119640D01*
X5113640Y-12119640D01*
X4960000Y-13110000D02*
X5140000Y-13290000D01*
X5140000Y-13110000D02*
X4960000Y-13290000D01*
X5113640Y-13263640D02*
X5113640Y-13136360D01*
X4986360Y-13136360D01*
X4986360Y-13263640D01*
X5113640Y-13263640D01*
D12*
X4783928Y-17668214D02*
X4783928Y-17368214D01*
X4855357Y-17368214D01*
X4898214Y-17382500D01*
X4926786Y-17411072D01*
X4941071Y-17439643D01*
X4955357Y-17496786D01*
X4955357Y-17539643D01*
X4941071Y-17596786D01*
X4926786Y-17625357D01*
X4898214Y-17653929D01*
X4855357Y-17668214D01*
X4783928Y-17668214D01*
X5083928Y-17668214D02*
X5083928Y-17468214D01*
X5083928Y-17525357D02*
X5098214Y-17496786D01*
X5112500Y-17482500D01*
X5141071Y-17468214D01*
X5169643Y-17468214D01*
X5269643Y-17668214D02*
X5269643Y-17468214D01*
X5269643Y-17368214D02*
X5255357Y-17382500D01*
X5269643Y-17396786D01*
X5283928Y-17382500D01*
X5269643Y-17368214D01*
X5269643Y-17396786D01*
X5455357Y-17668214D02*
X5426786Y-17653929D01*
X5412500Y-17625357D01*
X5412500Y-17368214D01*
X5612500Y-17668214D02*
X5583928Y-17653929D01*
X5569643Y-17625357D01*
X5569643Y-17368214D01*
X5955357Y-17668214D02*
X5955357Y-17368214D01*
X6055357Y-17582500D01*
X6155357Y-17368214D01*
X6155357Y-17668214D01*
X6426786Y-17668214D02*
X6426786Y-17511072D01*
X6412500Y-17482500D01*
X6383928Y-17468214D01*
X6326786Y-17468214D01*
X6298214Y-17482500D01*
X6426786Y-17653929D02*
X6398214Y-17668214D01*
X6326786Y-17668214D01*
X6298214Y-17653929D01*
X6283928Y-17625357D01*
X6283928Y-17596786D01*
X6298214Y-17568214D01*
X6326786Y-17553929D01*
X6398214Y-17553929D01*
X6426786Y-17539643D01*
X6569643Y-17468214D02*
X6569643Y-17768214D01*
X6569643Y-17482500D02*
X6598214Y-17468214D01*
X6655357Y-17468214D01*
X6683928Y-17482500D01*
X6698214Y-17496786D01*
X6712500Y-17525357D01*
X6712500Y-17611072D01*
X6698214Y-17639643D01*
X6683928Y-17653929D01*
X6655357Y-17668214D01*
X6598214Y-17668214D01*
X6569643Y-17653929D01*
X6841071Y-17639643D02*
X6855357Y-17653929D01*
X6841071Y-17668214D01*
X6826786Y-17653929D01*
X6841071Y-17639643D01*
X6841071Y-17668214D01*
X6841071Y-17482500D02*
X6855357Y-17496786D01*
X6841071Y-17511072D01*
X6826786Y-17496786D01*
X6841071Y-17482500D01*
X6841071Y-17511072D01*
X4457500Y-18142500D02*
X4497500Y-18182500D01*
X4497500Y-18142500D02*
X4457500Y-18182500D01*
X4841071Y-17998214D02*
X4869643Y-17998214D01*
X4898214Y-18012500D01*
X4912500Y-18026786D01*
X4926786Y-18055357D01*
X4941071Y-18112500D01*
X4941071Y-18183929D01*
X4926786Y-18241072D01*
X4912500Y-18269643D01*
X4898214Y-18283929D01*
X4869643Y-18298214D01*
X4841071Y-18298214D01*
X4812500Y-18283929D01*
X4798214Y-18269643D01*
X4783928Y-18241072D01*
X4769643Y-18183929D01*
X4769643Y-18112500D01*
X4783928Y-18055357D01*
X4798214Y-18026786D01*
X4812500Y-18012500D01*
X4841071Y-17998214D01*
X5069643Y-18269643D02*
X5083928Y-18283929D01*
X5069643Y-18298214D01*
X5055357Y-18283929D01*
X5069643Y-18269643D01*
X5069643Y-18298214D01*
X5341071Y-18098214D02*
X5341071Y-18298214D01*
X5269643Y-17983929D02*
X5198214Y-18198214D01*
X5383928Y-18198214D01*
X5555357Y-17998214D02*
X5583928Y-17998214D01*
X5612500Y-18012500D01*
X5626786Y-18026786D01*
X5641071Y-18055357D01*
X5655357Y-18112500D01*
X5655357Y-18183929D01*
X5641071Y-18241072D01*
X5626786Y-18269643D01*
X5612500Y-18283929D01*
X5583928Y-18298214D01*
X5555357Y-18298214D01*
X5526786Y-18283929D01*
X5512500Y-18269643D01*
X5498214Y-18241072D01*
X5483928Y-18183929D01*
X5483928Y-18112500D01*
X5498214Y-18055357D01*
X5512500Y-18026786D01*
X5526786Y-18012500D01*
X5555357Y-17998214D01*
X5783928Y-18298214D02*
X5783928Y-18098214D01*
X5783928Y-18126786D02*
X5798214Y-18112500D01*
X5826786Y-18098214D01*
X5869643Y-18098214D01*
X5898214Y-18112500D01*
X5912500Y-18141072D01*
X5912500Y-18298214D01*
X5912500Y-18141072D02*
X5926786Y-18112500D01*
X5955357Y-18098214D01*
X5998214Y-18098214D01*
X6026786Y-18112500D01*
X6041071Y-18141072D01*
X6041071Y-18298214D01*
X6183928Y-18298214D02*
X6183928Y-18098214D01*
X6183928Y-18126786D02*
X6198214Y-18112500D01*
X6226786Y-18098214D01*
X6269643Y-18098214D01*
X6298214Y-18112500D01*
X6312500Y-18141072D01*
X6312500Y-18298214D01*
X6312500Y-18141072D02*
X6326786Y-18112500D01*
X6355357Y-18098214D01*
X6398214Y-18098214D01*
X6426786Y-18112500D01*
X6441071Y-18141072D01*
X6441071Y-18298214D01*
X7026786Y-17983929D02*
X6769643Y-18369643D01*
X7412500Y-17998214D02*
X7441071Y-17998214D01*
X7469643Y-18012500D01*
X7483928Y-18026786D01*
X7498214Y-18055357D01*
X7512500Y-18112500D01*
X7512500Y-18183929D01*
X7498214Y-18241072D01*
X7483928Y-18269643D01*
X7469643Y-18283929D01*
X7441071Y-18298214D01*
X7412500Y-18298214D01*
X7383928Y-18283929D01*
X7369643Y-18269643D01*
X7355357Y-18241072D01*
X7341071Y-18183929D01*
X7341071Y-18112500D01*
X7355357Y-18055357D01*
X7369643Y-18026786D01*
X7383928Y-18012500D01*
X7412500Y-17998214D01*
X7641071Y-18269643D02*
X7655357Y-18283929D01*
X7641071Y-18298214D01*
X7626786Y-18283929D01*
X7641071Y-18269643D01*
X7641071Y-18298214D01*
X7841071Y-17998214D02*
X7869643Y-17998214D01*
X7898214Y-18012500D01*
X7912500Y-18026786D01*
X7926786Y-18055357D01*
X7941071Y-18112500D01*
X7941071Y-18183929D01*
X7926786Y-18241072D01*
X7912500Y-18269643D01*
X7898214Y-18283929D01*
X7869643Y-18298214D01*
X7841071Y-18298214D01*
X7812500Y-18283929D01*
X7798214Y-18269643D01*
X7783928Y-18241072D01*
X7769643Y-18183929D01*
X7769643Y-18112500D01*
X7783928Y-18055357D01*
X7798214Y-18026786D01*
X7812500Y-18012500D01*
X7841071Y-17998214D01*
X8226786Y-18298214D02*
X8055357Y-18298214D01*
X8141071Y-18298214D02*
X8141071Y-17998214D01*
X8112500Y-18041072D01*
X8083928Y-18069643D01*
X8055357Y-18083929D01*
X8483928Y-17998214D02*
X8426786Y-17998214D01*
X8398214Y-18012500D01*
X8383928Y-18026786D01*
X8355357Y-18069643D01*
X8341071Y-18126786D01*
X8341071Y-18241072D01*
X8355357Y-18269643D01*
X8369643Y-18283929D01*
X8398214Y-18298214D01*
X8455357Y-18298214D01*
X8483928Y-18283929D01*
X8498214Y-18269643D01*
X8512500Y-18241072D01*
X8512500Y-18169643D01*
X8498214Y-18141072D01*
X8483928Y-18126786D01*
X8455357Y-18112500D01*
X8398214Y-18112500D01*
X8369643Y-18126786D01*
X8355357Y-18141072D01*
X8341071Y-18169643D01*
X8626786Y-17998214D02*
X8626786Y-18055357D01*
X8741071Y-17998214D02*
X8741071Y-18055357D01*
X9183928Y-18412500D02*
X9169643Y-18398214D01*
X9141071Y-18355357D01*
X9126786Y-18326786D01*
X9112500Y-18283929D01*
X9098214Y-18212500D01*
X9098214Y-18155357D01*
X9112500Y-18083929D01*
X9126786Y-18041072D01*
X9141071Y-18012500D01*
X9169643Y-17969643D01*
X9183928Y-17955357D01*
X9283928Y-18026786D02*
X9298214Y-18012500D01*
X9326786Y-17998214D01*
X9398214Y-17998214D01*
X9426786Y-18012500D01*
X9441071Y-18026786D01*
X9455357Y-18055357D01*
X9455357Y-18083929D01*
X9441071Y-18126786D01*
X9269643Y-18298214D01*
X9455357Y-18298214D01*
X9598214Y-18298214D02*
X9655357Y-18298214D01*
X9683928Y-18283929D01*
X9698214Y-18269643D01*
X9726786Y-18226786D01*
X9741071Y-18169643D01*
X9741071Y-18055357D01*
X9726786Y-18026786D01*
X9712500Y-18012500D01*
X9683928Y-17998214D01*
X9626786Y-17998214D01*
X9598214Y-18012500D01*
X9583928Y-18026786D01*
X9569643Y-18055357D01*
X9569643Y-18126786D01*
X9583928Y-18155357D01*
X9598214Y-18169643D01*
X9626786Y-18183929D01*
X9683928Y-18183929D01*
X9712500Y-18169643D01*
X9726786Y-18155357D01*
X9741071Y-18126786D01*
X9841071Y-17998214D02*
X10041071Y-17998214D01*
X9912500Y-18298214D01*
X10383928Y-18298214D02*
X10383928Y-17998214D01*
X10512500Y-18298214D02*
X10512500Y-18141072D01*
X10498214Y-18112500D01*
X10469643Y-18098214D01*
X10426786Y-18098214D01*
X10398214Y-18112500D01*
X10383928Y-18126786D01*
X10698214Y-18298214D02*
X10669643Y-18283929D01*
X10655357Y-18269643D01*
X10641071Y-18241072D01*
X10641071Y-18155357D01*
X10655357Y-18126786D01*
X10669643Y-18112500D01*
X10698214Y-18098214D01*
X10741071Y-18098214D01*
X10769643Y-18112500D01*
X10783928Y-18126786D01*
X10798214Y-18155357D01*
X10798214Y-18241072D01*
X10783928Y-18269643D01*
X10769643Y-18283929D01*
X10741071Y-18298214D01*
X10698214Y-18298214D01*
X10969643Y-18298214D02*
X10941071Y-18283929D01*
X10926786Y-18255357D01*
X10926786Y-17998214D01*
X11198214Y-18283929D02*
X11169643Y-18298214D01*
X11112500Y-18298214D01*
X11083928Y-18283929D01*
X11069643Y-18255357D01*
X11069643Y-18141072D01*
X11083928Y-18112500D01*
X11112500Y-18098214D01*
X11169643Y-18098214D01*
X11198214Y-18112500D01*
X11212500Y-18141072D01*
X11212500Y-18169643D01*
X11069643Y-18198214D01*
X11326786Y-18283929D02*
X11355357Y-18298214D01*
X11412500Y-18298214D01*
X11441071Y-18283929D01*
X11455357Y-18255357D01*
X11455357Y-18241072D01*
X11441071Y-18212500D01*
X11412500Y-18198214D01*
X11369643Y-18198214D01*
X11341071Y-18183929D01*
X11326786Y-18155357D01*
X11326786Y-18141072D01*
X11341071Y-18112500D01*
X11369643Y-18098214D01*
X11412500Y-18098214D01*
X11441071Y-18112500D01*
X11555357Y-18412500D02*
X11569643Y-18398214D01*
X11598214Y-18355357D01*
X11612500Y-18326786D01*
X11626786Y-18283929D01*
X11641071Y-18212500D01*
X11641071Y-18155357D01*
X11626786Y-18083929D01*
X11612500Y-18041072D01*
X11598214Y-18012500D01*
X11569643Y-17969643D01*
X11555357Y-17955357D01*
X4497500Y-18558500D02*
G75*
G03*
X4497500Y-18558500I-25000J0D01*
G01*
X4841071Y-18394214D02*
X4869643Y-18394214D01*
X4898214Y-18408500D01*
X4912500Y-18422786D01*
X4926786Y-18451357D01*
X4941071Y-18508500D01*
X4941071Y-18579929D01*
X4926786Y-18637072D01*
X4912500Y-18665643D01*
X4898214Y-18679929D01*
X4869643Y-18694214D01*
X4841071Y-18694214D01*
X4812500Y-18679929D01*
X4798214Y-18665643D01*
X4783928Y-18637072D01*
X4769643Y-18579929D01*
X4769643Y-18508500D01*
X4783928Y-18451357D01*
X4798214Y-18422786D01*
X4812500Y-18408500D01*
X4841071Y-18394214D01*
X5069643Y-18665643D02*
X5083928Y-18679929D01*
X5069643Y-18694214D01*
X5055357Y-18679929D01*
X5069643Y-18665643D01*
X5069643Y-18694214D01*
X5355357Y-18394214D02*
X5212500Y-18394214D01*
X5198214Y-18537072D01*
X5212500Y-18522786D01*
X5241071Y-18508500D01*
X5312500Y-18508500D01*
X5341071Y-18522786D01*
X5355357Y-18537072D01*
X5369643Y-18565643D01*
X5369643Y-18637072D01*
X5355357Y-18665643D01*
X5341071Y-18679929D01*
X5312500Y-18694214D01*
X5241071Y-18694214D01*
X5212500Y-18679929D01*
X5198214Y-18665643D01*
X5555357Y-18394214D02*
X5583928Y-18394214D01*
X5612500Y-18408500D01*
X5626786Y-18422786D01*
X5641071Y-18451357D01*
X5655357Y-18508500D01*
X5655357Y-18579929D01*
X5641071Y-18637072D01*
X5626786Y-18665643D01*
X5612500Y-18679929D01*
X5583928Y-18694214D01*
X5555357Y-18694214D01*
X5526786Y-18679929D01*
X5512500Y-18665643D01*
X5498214Y-18637072D01*
X5483928Y-18579929D01*
X5483928Y-18508500D01*
X5498214Y-18451357D01*
X5512500Y-18422786D01*
X5526786Y-18408500D01*
X5555357Y-18394214D01*
X5783928Y-18694214D02*
X5783928Y-18494214D01*
X5783928Y-18522786D02*
X5798214Y-18508500D01*
X5826786Y-18494214D01*
X5869643Y-18494214D01*
X5898214Y-18508500D01*
X5912500Y-18537072D01*
X5912500Y-18694214D01*
X5912500Y-18537072D02*
X5926786Y-18508500D01*
X5955357Y-18494214D01*
X5998214Y-18494214D01*
X6026786Y-18508500D01*
X6041071Y-18537072D01*
X6041071Y-18694214D01*
X6183928Y-18694214D02*
X6183928Y-18494214D01*
X6183928Y-18522786D02*
X6198214Y-18508500D01*
X6226786Y-18494214D01*
X6269643Y-18494214D01*
X6298214Y-18508500D01*
X6312500Y-18537072D01*
X6312500Y-18694214D01*
X6312500Y-18537072D02*
X6326786Y-18508500D01*
X6355357Y-18494214D01*
X6398214Y-18494214D01*
X6426786Y-18508500D01*
X6441071Y-18537072D01*
X6441071Y-18694214D01*
X7026786Y-18379929D02*
X6769643Y-18765643D01*
X7412500Y-18394214D02*
X7441071Y-18394214D01*
X7469643Y-18408500D01*
X7483928Y-18422786D01*
X7498214Y-18451357D01*
X7512500Y-18508500D01*
X7512500Y-18579929D01*
X7498214Y-18637072D01*
X7483928Y-18665643D01*
X7469643Y-18679929D01*
X7441071Y-18694214D01*
X7412500Y-18694214D01*
X7383928Y-18679929D01*
X7369643Y-18665643D01*
X7355357Y-18637072D01*
X7341071Y-18579929D01*
X7341071Y-18508500D01*
X7355357Y-18451357D01*
X7369643Y-18422786D01*
X7383928Y-18408500D01*
X7412500Y-18394214D01*
X7641071Y-18665643D02*
X7655357Y-18679929D01*
X7641071Y-18694214D01*
X7626786Y-18679929D01*
X7641071Y-18665643D01*
X7641071Y-18694214D01*
X7841071Y-18394214D02*
X7869643Y-18394214D01*
X7898214Y-18408500D01*
X7912500Y-18422786D01*
X7926786Y-18451357D01*
X7941071Y-18508500D01*
X7941071Y-18579929D01*
X7926786Y-18637072D01*
X7912500Y-18665643D01*
X7898214Y-18679929D01*
X7869643Y-18694214D01*
X7841071Y-18694214D01*
X7812500Y-18679929D01*
X7798214Y-18665643D01*
X7783928Y-18637072D01*
X7769643Y-18579929D01*
X7769643Y-18508500D01*
X7783928Y-18451357D01*
X7798214Y-18422786D01*
X7812500Y-18408500D01*
X7841071Y-18394214D01*
X8055357Y-18422786D02*
X8069643Y-18408500D01*
X8098214Y-18394214D01*
X8169643Y-18394214D01*
X8198214Y-18408500D01*
X8212500Y-18422786D01*
X8226786Y-18451357D01*
X8226786Y-18479929D01*
X8212500Y-18522786D01*
X8041071Y-18694214D01*
X8226786Y-18694214D01*
X8412500Y-18394214D02*
X8441071Y-18394214D01*
X8469643Y-18408500D01*
X8483928Y-18422786D01*
X8498214Y-18451357D01*
X8512500Y-18508500D01*
X8512500Y-18579929D01*
X8498214Y-18637072D01*
X8483928Y-18665643D01*
X8469643Y-18679929D01*
X8441071Y-18694214D01*
X8412500Y-18694214D01*
X8383928Y-18679929D01*
X8369643Y-18665643D01*
X8355357Y-18637072D01*
X8341071Y-18579929D01*
X8341071Y-18508500D01*
X8355357Y-18451357D01*
X8369643Y-18422786D01*
X8383928Y-18408500D01*
X8412500Y-18394214D01*
X8626786Y-18394214D02*
X8626786Y-18451357D01*
X8741071Y-18394214D02*
X8741071Y-18451357D01*
X9183928Y-18808500D02*
X9169643Y-18794214D01*
X9141071Y-18751357D01*
X9126786Y-18722786D01*
X9112500Y-18679929D01*
X9098214Y-18608500D01*
X9098214Y-18551357D01*
X9112500Y-18479929D01*
X9126786Y-18437072D01*
X9141071Y-18408500D01*
X9169643Y-18365643D01*
X9183928Y-18351357D01*
X9355357Y-18394214D02*
X9383928Y-18394214D01*
X9412500Y-18408500D01*
X9426786Y-18422786D01*
X9441071Y-18451357D01*
X9455357Y-18508500D01*
X9455357Y-18579929D01*
X9441071Y-18637072D01*
X9426786Y-18665643D01*
X9412500Y-18679929D01*
X9383928Y-18694214D01*
X9355357Y-18694214D01*
X9326786Y-18679929D01*
X9312500Y-18665643D01*
X9298214Y-18637072D01*
X9283928Y-18579929D01*
X9283928Y-18508500D01*
X9298214Y-18451357D01*
X9312500Y-18422786D01*
X9326786Y-18408500D01*
X9355357Y-18394214D01*
X9812500Y-18694214D02*
X9812500Y-18394214D01*
X9941071Y-18694214D02*
X9941071Y-18537072D01*
X9926786Y-18508500D01*
X9898214Y-18494214D01*
X9855357Y-18494214D01*
X9826786Y-18508500D01*
X9812500Y-18522786D01*
X10126786Y-18694214D02*
X10098214Y-18679929D01*
X10083928Y-18665643D01*
X10069643Y-18637072D01*
X10069643Y-18551357D01*
X10083928Y-18522786D01*
X10098214Y-18508500D01*
X10126786Y-18494214D01*
X10169643Y-18494214D01*
X10198214Y-18508500D01*
X10212500Y-18522786D01*
X10226786Y-18551357D01*
X10226786Y-18637072D01*
X10212500Y-18665643D01*
X10198214Y-18679929D01*
X10169643Y-18694214D01*
X10126786Y-18694214D01*
X10398214Y-18694214D02*
X10369643Y-18679929D01*
X10355357Y-18651357D01*
X10355357Y-18394214D01*
X10626786Y-18679929D02*
X10598214Y-18694214D01*
X10541071Y-18694214D01*
X10512500Y-18679929D01*
X10498214Y-18651357D01*
X10498214Y-18537072D01*
X10512500Y-18508500D01*
X10541071Y-18494214D01*
X10598214Y-18494214D01*
X10626786Y-18508500D01*
X10641071Y-18537072D01*
X10641071Y-18565643D01*
X10498214Y-18594214D01*
X10755357Y-18679929D02*
X10783928Y-18694214D01*
X10841071Y-18694214D01*
X10869643Y-18679929D01*
X10883928Y-18651357D01*
X10883928Y-18637072D01*
X10869643Y-18608500D01*
X10841071Y-18594214D01*
X10798214Y-18594214D01*
X10769643Y-18579929D01*
X10755357Y-18551357D01*
X10755357Y-18537072D01*
X10769643Y-18508500D01*
X10798214Y-18494214D01*
X10841071Y-18494214D01*
X10869643Y-18508500D01*
X11241071Y-18579929D02*
X11469643Y-18579929D01*
X11355357Y-18694214D02*
X11355357Y-18465643D01*
X11826786Y-18422786D02*
X11841071Y-18408500D01*
X11869643Y-18394214D01*
X11941071Y-18394214D01*
X11969643Y-18408500D01*
X11983928Y-18422786D01*
X11998214Y-18451357D01*
X11998214Y-18479929D01*
X11983928Y-18522786D01*
X11812500Y-18694214D01*
X11998214Y-18694214D01*
X12341071Y-18679929D02*
X12369643Y-18694214D01*
X12426786Y-18694214D01*
X12455357Y-18679929D01*
X12469643Y-18651357D01*
X12469643Y-18637072D01*
X12455357Y-18608500D01*
X12426786Y-18594214D01*
X12383928Y-18594214D01*
X12355357Y-18579929D01*
X12341071Y-18551357D01*
X12341071Y-18537072D01*
X12355357Y-18508500D01*
X12383928Y-18494214D01*
X12426786Y-18494214D01*
X12455357Y-18508500D01*
X12641071Y-18694214D02*
X12612500Y-18679929D01*
X12598214Y-18651357D01*
X12598214Y-18394214D01*
X12798214Y-18694214D02*
X12769643Y-18679929D01*
X12755357Y-18665643D01*
X12741071Y-18637072D01*
X12741071Y-18551357D01*
X12755357Y-18522786D01*
X12769643Y-18508500D01*
X12798214Y-18494214D01*
X12841071Y-18494214D01*
X12869643Y-18508500D01*
X12883928Y-18522786D01*
X12898214Y-18551357D01*
X12898214Y-18637072D01*
X12883928Y-18665643D01*
X12869643Y-18679929D01*
X12841071Y-18694214D01*
X12798214Y-18694214D01*
X12983928Y-18494214D02*
X13098214Y-18494214D01*
X13026786Y-18394214D02*
X13026786Y-18651357D01*
X13041071Y-18679929D01*
X13069643Y-18694214D01*
X13098214Y-18694214D01*
X13183928Y-18679929D02*
X13212500Y-18694214D01*
X13269643Y-18694214D01*
X13298214Y-18679929D01*
X13312500Y-18651357D01*
X13312500Y-18637072D01*
X13298214Y-18608500D01*
X13269643Y-18594214D01*
X13226786Y-18594214D01*
X13198214Y-18579929D01*
X13183928Y-18551357D01*
X13183928Y-18537072D01*
X13198214Y-18508500D01*
X13226786Y-18494214D01*
X13269643Y-18494214D01*
X13298214Y-18508500D01*
X13412500Y-18808500D02*
X13426786Y-18794214D01*
X13455357Y-18751357D01*
X13469643Y-18722786D01*
X13483928Y-18679929D01*
X13498214Y-18608500D01*
X13498214Y-18551357D01*
X13483928Y-18479929D01*
X13469643Y-18437072D01*
X13455357Y-18408500D01*
X13426786Y-18365643D01*
X13412500Y-18351357D01*
X4470000Y-18927000D02*
X4470000Y-18982000D01*
X4442500Y-18954500D02*
X4497500Y-18954500D01*
X4841071Y-18790214D02*
X4869643Y-18790214D01*
X4898214Y-18804500D01*
X4912500Y-18818786D01*
X4926786Y-18847357D01*
X4941071Y-18904500D01*
X4941071Y-18975929D01*
X4926786Y-19033072D01*
X4912500Y-19061643D01*
X4898214Y-19075929D01*
X4869643Y-19090214D01*
X4841071Y-19090214D01*
X4812500Y-19075929D01*
X4798214Y-19061643D01*
X4783928Y-19033072D01*
X4769643Y-18975929D01*
X4769643Y-18904500D01*
X4783928Y-18847357D01*
X4798214Y-18818786D01*
X4812500Y-18804500D01*
X4841071Y-18790214D01*
X5069643Y-19061643D02*
X5083928Y-19075929D01*
X5069643Y-19090214D01*
X5055357Y-19075929D01*
X5069643Y-19061643D01*
X5069643Y-19090214D01*
X5355357Y-18790214D02*
X5212500Y-18790214D01*
X5198214Y-18933072D01*
X5212500Y-18918786D01*
X5241071Y-18904500D01*
X5312500Y-18904500D01*
X5341071Y-18918786D01*
X5355357Y-18933072D01*
X5369643Y-18961643D01*
X5369643Y-19033072D01*
X5355357Y-19061643D01*
X5341071Y-19075929D01*
X5312500Y-19090214D01*
X5241071Y-19090214D01*
X5212500Y-19075929D01*
X5198214Y-19061643D01*
X5641071Y-18790214D02*
X5498214Y-18790214D01*
X5483928Y-18933072D01*
X5498214Y-18918786D01*
X5526786Y-18904500D01*
X5598214Y-18904500D01*
X5626786Y-18918786D01*
X5641071Y-18933072D01*
X5655357Y-18961643D01*
X5655357Y-19033072D01*
X5641071Y-19061643D01*
X5626786Y-19075929D01*
X5598214Y-19090214D01*
X5526786Y-19090214D01*
X5498214Y-19075929D01*
X5483928Y-19061643D01*
X5783928Y-19090214D02*
X5783928Y-18890214D01*
X5783928Y-18918786D02*
X5798214Y-18904500D01*
X5826786Y-18890214D01*
X5869643Y-18890214D01*
X5898214Y-18904500D01*
X5912500Y-18933072D01*
X5912500Y-19090214D01*
X5912500Y-18933072D02*
X5926786Y-18904500D01*
X5955357Y-18890214D01*
X5998214Y-18890214D01*
X6026786Y-18904500D01*
X6041071Y-18933072D01*
X6041071Y-19090214D01*
X6183928Y-19090214D02*
X6183928Y-18890214D01*
X6183928Y-18918786D02*
X6198214Y-18904500D01*
X6226786Y-18890214D01*
X6269643Y-18890214D01*
X6298214Y-18904500D01*
X6312500Y-18933072D01*
X6312500Y-19090214D01*
X6312500Y-18933072D02*
X6326786Y-18904500D01*
X6355357Y-18890214D01*
X6398214Y-18890214D01*
X6426786Y-18904500D01*
X6441071Y-18933072D01*
X6441071Y-19090214D01*
X7026786Y-18775929D02*
X6769643Y-19161643D01*
X7412500Y-18790214D02*
X7441071Y-18790214D01*
X7469643Y-18804500D01*
X7483928Y-18818786D01*
X7498214Y-18847357D01*
X7512500Y-18904500D01*
X7512500Y-18975929D01*
X7498214Y-19033072D01*
X7483928Y-19061643D01*
X7469643Y-19075929D01*
X7441071Y-19090214D01*
X7412500Y-19090214D01*
X7383928Y-19075929D01*
X7369643Y-19061643D01*
X7355357Y-19033072D01*
X7341071Y-18975929D01*
X7341071Y-18904500D01*
X7355357Y-18847357D01*
X7369643Y-18818786D01*
X7383928Y-18804500D01*
X7412500Y-18790214D01*
X7641071Y-19061643D02*
X7655357Y-19075929D01*
X7641071Y-19090214D01*
X7626786Y-19075929D01*
X7641071Y-19061643D01*
X7641071Y-19090214D01*
X7841071Y-18790214D02*
X7869643Y-18790214D01*
X7898214Y-18804500D01*
X7912500Y-18818786D01*
X7926786Y-18847357D01*
X7941071Y-18904500D01*
X7941071Y-18975929D01*
X7926786Y-19033072D01*
X7912500Y-19061643D01*
X7898214Y-19075929D01*
X7869643Y-19090214D01*
X7841071Y-19090214D01*
X7812500Y-19075929D01*
X7798214Y-19061643D01*
X7783928Y-19033072D01*
X7769643Y-18975929D01*
X7769643Y-18904500D01*
X7783928Y-18847357D01*
X7798214Y-18818786D01*
X7812500Y-18804500D01*
X7841071Y-18790214D01*
X8055357Y-18818786D02*
X8069643Y-18804500D01*
X8098214Y-18790214D01*
X8169643Y-18790214D01*
X8198214Y-18804500D01*
X8212500Y-18818786D01*
X8226786Y-18847357D01*
X8226786Y-18875929D01*
X8212500Y-18918786D01*
X8041071Y-19090214D01*
X8226786Y-19090214D01*
X8341071Y-18818786D02*
X8355357Y-18804500D01*
X8383928Y-18790214D01*
X8455357Y-18790214D01*
X8483928Y-18804500D01*
X8498214Y-18818786D01*
X8512500Y-18847357D01*
X8512500Y-18875929D01*
X8498214Y-18918786D01*
X8326786Y-19090214D01*
X8512500Y-19090214D01*
X8626786Y-18790214D02*
X8626786Y-18847357D01*
X8741071Y-18790214D02*
X8741071Y-18847357D01*
X9183928Y-19204500D02*
X9169643Y-19190214D01*
X9141071Y-19147357D01*
X9126786Y-19118786D01*
X9112500Y-19075929D01*
X9098214Y-19004500D01*
X9098214Y-18947357D01*
X9112500Y-18875929D01*
X9126786Y-18833072D01*
X9141071Y-18804500D01*
X9169643Y-18761643D01*
X9183928Y-18747357D01*
X9355357Y-18790214D02*
X9383928Y-18790214D01*
X9412500Y-18804500D01*
X9426786Y-18818786D01*
X9441071Y-18847357D01*
X9455357Y-18904500D01*
X9455357Y-18975929D01*
X9441071Y-19033072D01*
X9426786Y-19061643D01*
X9412500Y-19075929D01*
X9383928Y-19090214D01*
X9355357Y-19090214D01*
X9326786Y-19075929D01*
X9312500Y-19061643D01*
X9298214Y-19033072D01*
X9283928Y-18975929D01*
X9283928Y-18904500D01*
X9298214Y-18847357D01*
X9312500Y-18818786D01*
X9326786Y-18804500D01*
X9355357Y-18790214D01*
X9812500Y-19090214D02*
X9812500Y-18790214D01*
X9941071Y-19090214D02*
X9941071Y-18933072D01*
X9926786Y-18904500D01*
X9898214Y-18890214D01*
X9855357Y-18890214D01*
X9826786Y-18904500D01*
X9812500Y-18918786D01*
X10126786Y-19090214D02*
X10098214Y-19075929D01*
X10083928Y-19061643D01*
X10069643Y-19033072D01*
X10069643Y-18947357D01*
X10083928Y-18918786D01*
X10098214Y-18904500D01*
X10126786Y-18890214D01*
X10169643Y-18890214D01*
X10198214Y-18904500D01*
X10212500Y-18918786D01*
X10226786Y-18947357D01*
X10226786Y-19033072D01*
X10212500Y-19061643D01*
X10198214Y-19075929D01*
X10169643Y-19090214D01*
X10126786Y-19090214D01*
X10398214Y-19090214D02*
X10369643Y-19075929D01*
X10355357Y-19047357D01*
X10355357Y-18790214D01*
X10626786Y-19075929D02*
X10598214Y-19090214D01*
X10541071Y-19090214D01*
X10512500Y-19075929D01*
X10498214Y-19047357D01*
X10498214Y-18933072D01*
X10512500Y-18904500D01*
X10541071Y-18890214D01*
X10598214Y-18890214D01*
X10626786Y-18904500D01*
X10641071Y-18933072D01*
X10641071Y-18961643D01*
X10498214Y-18990214D01*
X10755357Y-19075929D02*
X10783928Y-19090214D01*
X10841071Y-19090214D01*
X10869643Y-19075929D01*
X10883928Y-19047357D01*
X10883928Y-19033072D01*
X10869643Y-19004500D01*
X10841071Y-18990214D01*
X10798214Y-18990214D01*
X10769643Y-18975929D01*
X10755357Y-18947357D01*
X10755357Y-18933072D01*
X10769643Y-18904500D01*
X10798214Y-18890214D01*
X10841071Y-18890214D01*
X10869643Y-18904500D01*
X11241071Y-18975929D02*
X11469643Y-18975929D01*
X11355357Y-19090214D02*
X11355357Y-18861643D01*
X11826786Y-18818786D02*
X11841071Y-18804500D01*
X11869643Y-18790214D01*
X11941071Y-18790214D01*
X11969643Y-18804500D01*
X11983928Y-18818786D01*
X11998214Y-18847357D01*
X11998214Y-18875929D01*
X11983928Y-18918786D01*
X11812500Y-19090214D01*
X11998214Y-19090214D01*
X12341071Y-19075929D02*
X12369643Y-19090214D01*
X12426786Y-19090214D01*
X12455357Y-19075929D01*
X12469643Y-19047357D01*
X12469643Y-19033072D01*
X12455357Y-19004500D01*
X12426786Y-18990214D01*
X12383928Y-18990214D01*
X12355357Y-18975929D01*
X12341071Y-18947357D01*
X12341071Y-18933072D01*
X12355357Y-18904500D01*
X12383928Y-18890214D01*
X12426786Y-18890214D01*
X12455357Y-18904500D01*
X12641071Y-19090214D02*
X12612500Y-19075929D01*
X12598214Y-19047357D01*
X12598214Y-18790214D01*
X12798214Y-19090214D02*
X12769643Y-19075929D01*
X12755357Y-19061643D01*
X12741071Y-19033072D01*
X12741071Y-18947357D01*
X12755357Y-18918786D01*
X12769643Y-18904500D01*
X12798214Y-18890214D01*
X12841071Y-18890214D01*
X12869643Y-18904500D01*
X12883928Y-18918786D01*
X12898214Y-18947357D01*
X12898214Y-19033072D01*
X12883928Y-19061643D01*
X12869643Y-19075929D01*
X12841071Y-19090214D01*
X12798214Y-19090214D01*
X12983928Y-18890214D02*
X13098214Y-18890214D01*
X13026786Y-18790214D02*
X13026786Y-19047357D01*
X13041071Y-19075929D01*
X13069643Y-19090214D01*
X13098214Y-19090214D01*
X13183928Y-19075929D02*
X13212500Y-19090214D01*
X13269643Y-19090214D01*
X13298214Y-19075929D01*
X13312500Y-19047357D01*
X13312500Y-19033072D01*
X13298214Y-19004500D01*
X13269643Y-18990214D01*
X13226786Y-18990214D01*
X13198214Y-18975929D01*
X13183928Y-18947357D01*
X13183928Y-18933072D01*
X13198214Y-18904500D01*
X13226786Y-18890214D01*
X13269643Y-18890214D01*
X13298214Y-18904500D01*
X13412500Y-19204500D02*
X13426786Y-19190214D01*
X13455357Y-19147357D01*
X13469643Y-19118786D01*
X13483928Y-19075929D01*
X13498214Y-19004500D01*
X13498214Y-18947357D01*
X13483928Y-18875929D01*
X13469643Y-18833072D01*
X13455357Y-18804500D01*
X13426786Y-18761643D01*
X13412500Y-18747357D01*
X4485784Y-19378785D02*
X4485784Y-19322216D01*
X4429215Y-19322216D01*
X4429215Y-19378785D01*
X4485784Y-19378785D01*
X4841071Y-19186214D02*
X4869643Y-19186214D01*
X4898214Y-19200500D01*
X4912500Y-19214786D01*
X4926786Y-19243357D01*
X4941071Y-19300500D01*
X4941071Y-19371929D01*
X4926786Y-19429072D01*
X4912500Y-19457643D01*
X4898214Y-19471929D01*
X4869643Y-19486214D01*
X4841071Y-19486214D01*
X4812500Y-19471929D01*
X4798214Y-19457643D01*
X4783928Y-19429072D01*
X4769643Y-19371929D01*
X4769643Y-19300500D01*
X4783928Y-19243357D01*
X4798214Y-19214786D01*
X4812500Y-19200500D01*
X4841071Y-19186214D01*
X5069643Y-19457643D02*
X5083928Y-19471929D01*
X5069643Y-19486214D01*
X5055357Y-19471929D01*
X5069643Y-19457643D01*
X5069643Y-19486214D01*
X5255357Y-19314786D02*
X5226786Y-19300500D01*
X5212500Y-19286214D01*
X5198214Y-19257643D01*
X5198214Y-19243357D01*
X5212500Y-19214786D01*
X5226786Y-19200500D01*
X5255357Y-19186214D01*
X5312500Y-19186214D01*
X5341071Y-19200500D01*
X5355357Y-19214786D01*
X5369643Y-19243357D01*
X5369643Y-19257643D01*
X5355357Y-19286214D01*
X5341071Y-19300500D01*
X5312500Y-19314786D01*
X5255357Y-19314786D01*
X5226786Y-19329072D01*
X5212500Y-19343357D01*
X5198214Y-19371929D01*
X5198214Y-19429072D01*
X5212500Y-19457643D01*
X5226786Y-19471929D01*
X5255357Y-19486214D01*
X5312500Y-19486214D01*
X5341071Y-19471929D01*
X5355357Y-19457643D01*
X5369643Y-19429072D01*
X5369643Y-19371929D01*
X5355357Y-19343357D01*
X5341071Y-19329072D01*
X5312500Y-19314786D01*
X5555357Y-19186214D02*
X5583928Y-19186214D01*
X5612500Y-19200500D01*
X5626786Y-19214786D01*
X5641071Y-19243357D01*
X5655357Y-19300500D01*
X5655357Y-19371929D01*
X5641071Y-19429072D01*
X5626786Y-19457643D01*
X5612500Y-19471929D01*
X5583928Y-19486214D01*
X5555357Y-19486214D01*
X5526786Y-19471929D01*
X5512500Y-19457643D01*
X5498214Y-19429072D01*
X5483928Y-19371929D01*
X5483928Y-19300500D01*
X5498214Y-19243357D01*
X5512500Y-19214786D01*
X5526786Y-19200500D01*
X5555357Y-19186214D01*
X5783928Y-19486214D02*
X5783928Y-19286214D01*
X5783928Y-19314786D02*
X5798214Y-19300500D01*
X5826786Y-19286214D01*
X5869643Y-19286214D01*
X5898214Y-19300500D01*
X5912500Y-19329072D01*
X5912500Y-19486214D01*
X5912500Y-19329072D02*
X5926786Y-19300500D01*
X5955357Y-19286214D01*
X5998214Y-19286214D01*
X6026786Y-19300500D01*
X6041071Y-19329072D01*
X6041071Y-19486214D01*
X6183928Y-19486214D02*
X6183928Y-19286214D01*
X6183928Y-19314786D02*
X6198214Y-19300500D01*
X6226786Y-19286214D01*
X6269643Y-19286214D01*
X6298214Y-19300500D01*
X6312500Y-19329072D01*
X6312500Y-19486214D01*
X6312500Y-19329072D02*
X6326786Y-19300500D01*
X6355357Y-19286214D01*
X6398214Y-19286214D01*
X6426786Y-19300500D01*
X6441071Y-19329072D01*
X6441071Y-19486214D01*
X7026786Y-19171929D02*
X6769643Y-19557643D01*
X7412500Y-19186214D02*
X7441071Y-19186214D01*
X7469643Y-19200500D01*
X7483928Y-19214786D01*
X7498214Y-19243357D01*
X7512500Y-19300500D01*
X7512500Y-19371929D01*
X7498214Y-19429072D01*
X7483928Y-19457643D01*
X7469643Y-19471929D01*
X7441071Y-19486214D01*
X7412500Y-19486214D01*
X7383928Y-19471929D01*
X7369643Y-19457643D01*
X7355357Y-19429072D01*
X7341071Y-19371929D01*
X7341071Y-19300500D01*
X7355357Y-19243357D01*
X7369643Y-19214786D01*
X7383928Y-19200500D01*
X7412500Y-19186214D01*
X7641071Y-19457643D02*
X7655357Y-19471929D01*
X7641071Y-19486214D01*
X7626786Y-19471929D01*
X7641071Y-19457643D01*
X7641071Y-19486214D01*
X7841071Y-19186214D02*
X7869643Y-19186214D01*
X7898214Y-19200500D01*
X7912500Y-19214786D01*
X7926786Y-19243357D01*
X7941071Y-19300500D01*
X7941071Y-19371929D01*
X7926786Y-19429072D01*
X7912500Y-19457643D01*
X7898214Y-19471929D01*
X7869643Y-19486214D01*
X7841071Y-19486214D01*
X7812500Y-19471929D01*
X7798214Y-19457643D01*
X7783928Y-19429072D01*
X7769643Y-19371929D01*
X7769643Y-19300500D01*
X7783928Y-19243357D01*
X7798214Y-19214786D01*
X7812500Y-19200500D01*
X7841071Y-19186214D01*
X8041071Y-19186214D02*
X8226786Y-19186214D01*
X8126786Y-19300500D01*
X8169643Y-19300500D01*
X8198214Y-19314786D01*
X8212500Y-19329072D01*
X8226786Y-19357643D01*
X8226786Y-19429072D01*
X8212500Y-19457643D01*
X8198214Y-19471929D01*
X8169643Y-19486214D01*
X8083928Y-19486214D01*
X8055357Y-19471929D01*
X8041071Y-19457643D01*
X8512500Y-19486214D02*
X8341071Y-19486214D01*
X8426786Y-19486214D02*
X8426786Y-19186214D01*
X8398214Y-19229072D01*
X8369643Y-19257643D01*
X8341071Y-19271929D01*
X8626786Y-19186214D02*
X8626786Y-19243357D01*
X8741071Y-19186214D02*
X8741071Y-19243357D01*
X9183928Y-19600500D02*
X9169643Y-19586214D01*
X9141071Y-19543357D01*
X9126786Y-19514786D01*
X9112500Y-19471929D01*
X9098214Y-19400500D01*
X9098214Y-19343357D01*
X9112500Y-19271929D01*
X9126786Y-19229072D01*
X9141071Y-19200500D01*
X9169643Y-19157643D01*
X9183928Y-19143357D01*
X9426786Y-19286214D02*
X9426786Y-19486214D01*
X9355357Y-19171929D02*
X9283928Y-19386214D01*
X9469643Y-19386214D01*
X9712500Y-19286214D02*
X9712500Y-19486214D01*
X9641071Y-19171929D02*
X9569643Y-19386214D01*
X9755357Y-19386214D01*
X10098214Y-19486214D02*
X10098214Y-19186214D01*
X10226786Y-19486214D02*
X10226786Y-19329072D01*
X10212500Y-19300500D01*
X10183928Y-19286214D01*
X10141071Y-19286214D01*
X10112500Y-19300500D01*
X10098214Y-19314786D01*
X10412500Y-19486214D02*
X10383928Y-19471929D01*
X10369643Y-19457643D01*
X10355357Y-19429072D01*
X10355357Y-19343357D01*
X10369643Y-19314786D01*
X10383928Y-19300500D01*
X10412500Y-19286214D01*
X10455357Y-19286214D01*
X10483928Y-19300500D01*
X10498214Y-19314786D01*
X10512500Y-19343357D01*
X10512500Y-19429072D01*
X10498214Y-19457643D01*
X10483928Y-19471929D01*
X10455357Y-19486214D01*
X10412500Y-19486214D01*
X10683928Y-19486214D02*
X10655357Y-19471929D01*
X10641071Y-19443357D01*
X10641071Y-19186214D01*
X10912500Y-19471929D02*
X10883928Y-19486214D01*
X10826786Y-19486214D01*
X10798214Y-19471929D01*
X10783928Y-19443357D01*
X10783928Y-19329072D01*
X10798214Y-19300500D01*
X10826786Y-19286214D01*
X10883928Y-19286214D01*
X10912500Y-19300500D01*
X10926786Y-19329072D01*
X10926786Y-19357643D01*
X10783928Y-19386214D01*
X11041071Y-19471929D02*
X11069643Y-19486214D01*
X11126786Y-19486214D01*
X11155357Y-19471929D01*
X11169643Y-19443357D01*
X11169643Y-19429072D01*
X11155357Y-19400500D01*
X11126786Y-19386214D01*
X11083928Y-19386214D01*
X11055357Y-19371929D01*
X11041071Y-19343357D01*
X11041071Y-19329072D01*
X11055357Y-19300500D01*
X11083928Y-19286214D01*
X11126786Y-19286214D01*
X11155357Y-19300500D01*
X11269643Y-19600500D02*
X11283928Y-19586214D01*
X11312500Y-19543357D01*
X11326786Y-19514786D01*
X11341071Y-19471929D01*
X11355357Y-19400500D01*
X11355357Y-19343357D01*
X11341071Y-19271929D01*
X11326786Y-19229072D01*
X11312500Y-19200500D01*
X11283928Y-19157643D01*
X11269643Y-19143357D01*
X4447500Y-19796500D02*
X4497500Y-19746500D01*
X4447500Y-19696500D01*
X4397500Y-19746500D01*
X4447500Y-19796500D01*
X4941071Y-19882214D02*
X4769643Y-19882214D01*
X4855357Y-19882214D02*
X4855357Y-19582214D01*
X4826786Y-19625072D01*
X4798214Y-19653643D01*
X4769643Y-19667929D01*
X5069643Y-19853643D02*
X5083928Y-19867929D01*
X5069643Y-19882214D01*
X5055357Y-19867929D01*
X5069643Y-19853643D01*
X5069643Y-19882214D01*
X5269643Y-19582214D02*
X5298214Y-19582214D01*
X5326786Y-19596500D01*
X5341071Y-19610786D01*
X5355357Y-19639357D01*
X5369643Y-19696500D01*
X5369643Y-19767929D01*
X5355357Y-19825072D01*
X5341071Y-19853643D01*
X5326786Y-19867929D01*
X5298214Y-19882214D01*
X5269643Y-19882214D01*
X5241071Y-19867929D01*
X5226786Y-19853643D01*
X5212500Y-19825072D01*
X5198214Y-19767929D01*
X5198214Y-19696500D01*
X5212500Y-19639357D01*
X5226786Y-19610786D01*
X5241071Y-19596500D01*
X5269643Y-19582214D01*
X5555357Y-19582214D02*
X5583928Y-19582214D01*
X5612500Y-19596500D01*
X5626786Y-19610786D01*
X5641071Y-19639357D01*
X5655357Y-19696500D01*
X5655357Y-19767929D01*
X5641071Y-19825072D01*
X5626786Y-19853643D01*
X5612500Y-19867929D01*
X5583928Y-19882214D01*
X5555357Y-19882214D01*
X5526786Y-19867929D01*
X5512500Y-19853643D01*
X5498214Y-19825072D01*
X5483928Y-19767929D01*
X5483928Y-19696500D01*
X5498214Y-19639357D01*
X5512500Y-19610786D01*
X5526786Y-19596500D01*
X5555357Y-19582214D01*
X5783928Y-19882214D02*
X5783928Y-19682214D01*
X5783928Y-19710786D02*
X5798214Y-19696500D01*
X5826786Y-19682214D01*
X5869643Y-19682214D01*
X5898214Y-19696500D01*
X5912500Y-19725072D01*
X5912500Y-19882214D01*
X5912500Y-19725072D02*
X5926786Y-19696500D01*
X5955357Y-19682214D01*
X5998214Y-19682214D01*
X6026786Y-19696500D01*
X6041071Y-19725072D01*
X6041071Y-19882214D01*
X6183928Y-19882214D02*
X6183928Y-19682214D01*
X6183928Y-19710786D02*
X6198214Y-19696500D01*
X6226786Y-19682214D01*
X6269643Y-19682214D01*
X6298214Y-19696500D01*
X6312500Y-19725072D01*
X6312500Y-19882214D01*
X6312500Y-19725072D02*
X6326786Y-19696500D01*
X6355357Y-19682214D01*
X6398214Y-19682214D01*
X6426786Y-19696500D01*
X6441071Y-19725072D01*
X6441071Y-19882214D01*
X7026786Y-19567929D02*
X6769643Y-19953643D01*
X7412500Y-19582214D02*
X7441071Y-19582214D01*
X7469643Y-19596500D01*
X7483928Y-19610786D01*
X7498214Y-19639357D01*
X7512500Y-19696500D01*
X7512500Y-19767929D01*
X7498214Y-19825072D01*
X7483928Y-19853643D01*
X7469643Y-19867929D01*
X7441071Y-19882214D01*
X7412500Y-19882214D01*
X7383928Y-19867929D01*
X7369643Y-19853643D01*
X7355357Y-19825072D01*
X7341071Y-19767929D01*
X7341071Y-19696500D01*
X7355357Y-19639357D01*
X7369643Y-19610786D01*
X7383928Y-19596500D01*
X7412500Y-19582214D01*
X7641071Y-19853643D02*
X7655357Y-19867929D01*
X7641071Y-19882214D01*
X7626786Y-19867929D01*
X7641071Y-19853643D01*
X7641071Y-19882214D01*
X7841071Y-19582214D02*
X7869643Y-19582214D01*
X7898214Y-19596500D01*
X7912500Y-19610786D01*
X7926786Y-19639357D01*
X7941071Y-19696500D01*
X7941071Y-19767929D01*
X7926786Y-19825072D01*
X7912500Y-19853643D01*
X7898214Y-19867929D01*
X7869643Y-19882214D01*
X7841071Y-19882214D01*
X7812500Y-19867929D01*
X7798214Y-19853643D01*
X7783928Y-19825072D01*
X7769643Y-19767929D01*
X7769643Y-19696500D01*
X7783928Y-19639357D01*
X7798214Y-19610786D01*
X7812500Y-19596500D01*
X7841071Y-19582214D01*
X8041071Y-19582214D02*
X8226786Y-19582214D01*
X8126786Y-19696500D01*
X8169643Y-19696500D01*
X8198214Y-19710786D01*
X8212500Y-19725072D01*
X8226786Y-19753643D01*
X8226786Y-19825072D01*
X8212500Y-19853643D01*
X8198214Y-19867929D01*
X8169643Y-19882214D01*
X8083928Y-19882214D01*
X8055357Y-19867929D01*
X8041071Y-19853643D01*
X8369643Y-19882214D02*
X8426786Y-19882214D01*
X8455357Y-19867929D01*
X8469643Y-19853643D01*
X8498214Y-19810786D01*
X8512500Y-19753643D01*
X8512500Y-19639357D01*
X8498214Y-19610786D01*
X8483928Y-19596500D01*
X8455357Y-19582214D01*
X8398214Y-19582214D01*
X8369643Y-19596500D01*
X8355357Y-19610786D01*
X8341071Y-19639357D01*
X8341071Y-19710786D01*
X8355357Y-19739357D01*
X8369643Y-19753643D01*
X8398214Y-19767929D01*
X8455357Y-19767929D01*
X8483928Y-19753643D01*
X8498214Y-19739357D01*
X8512500Y-19710786D01*
X8626786Y-19582214D02*
X8626786Y-19639357D01*
X8741071Y-19582214D02*
X8741071Y-19639357D01*
X9183928Y-19996500D02*
X9169643Y-19982214D01*
X9141071Y-19939357D01*
X9126786Y-19910786D01*
X9112500Y-19867929D01*
X9098214Y-19796500D01*
X9098214Y-19739357D01*
X9112500Y-19667929D01*
X9126786Y-19625072D01*
X9141071Y-19596500D01*
X9169643Y-19553643D01*
X9183928Y-19539357D01*
X9283928Y-19610786D02*
X9298214Y-19596500D01*
X9326786Y-19582214D01*
X9398214Y-19582214D01*
X9426786Y-19596500D01*
X9441071Y-19610786D01*
X9455357Y-19639357D01*
X9455357Y-19667929D01*
X9441071Y-19710786D01*
X9269643Y-19882214D01*
X9455357Y-19882214D01*
X9741071Y-19882214D02*
X9569643Y-19882214D01*
X9655357Y-19882214D02*
X9655357Y-19582214D01*
X9626786Y-19625072D01*
X9598214Y-19653643D01*
X9569643Y-19667929D01*
X10098214Y-19882214D02*
X10098214Y-19582214D01*
X10226786Y-19882214D02*
X10226786Y-19725072D01*
X10212500Y-19696500D01*
X10183928Y-19682214D01*
X10141071Y-19682214D01*
X10112500Y-19696500D01*
X10098214Y-19710786D01*
X10412500Y-19882214D02*
X10383928Y-19867929D01*
X10369643Y-19853643D01*
X10355357Y-19825072D01*
X10355357Y-19739357D01*
X10369643Y-19710786D01*
X10383928Y-19696500D01*
X10412500Y-19682214D01*
X10455357Y-19682214D01*
X10483928Y-19696500D01*
X10498214Y-19710786D01*
X10512500Y-19739357D01*
X10512500Y-19825072D01*
X10498214Y-19853643D01*
X10483928Y-19867929D01*
X10455357Y-19882214D01*
X10412500Y-19882214D01*
X10683928Y-19882214D02*
X10655357Y-19867929D01*
X10641071Y-19839357D01*
X10641071Y-19582214D01*
X10912500Y-19867929D02*
X10883928Y-19882214D01*
X10826786Y-19882214D01*
X10798214Y-19867929D01*
X10783928Y-19839357D01*
X10783928Y-19725072D01*
X10798214Y-19696500D01*
X10826786Y-19682214D01*
X10883928Y-19682214D01*
X10912500Y-19696500D01*
X10926786Y-19725072D01*
X10926786Y-19753643D01*
X10783928Y-19782214D01*
X11041071Y-19867929D02*
X11069643Y-19882214D01*
X11126786Y-19882214D01*
X11155357Y-19867929D01*
X11169643Y-19839357D01*
X11169643Y-19825072D01*
X11155357Y-19796500D01*
X11126786Y-19782214D01*
X11083928Y-19782214D01*
X11055357Y-19767929D01*
X11041071Y-19739357D01*
X11041071Y-19725072D01*
X11055357Y-19696500D01*
X11083928Y-19682214D01*
X11126786Y-19682214D01*
X11155357Y-19696500D01*
X11269643Y-19996500D02*
X11283928Y-19982214D01*
X11312500Y-19939357D01*
X11326786Y-19910786D01*
X11341071Y-19867929D01*
X11355357Y-19796500D01*
X11355357Y-19739357D01*
X11341071Y-19667929D01*
X11326786Y-19625072D01*
X11312500Y-19596500D01*
X11283928Y-19553643D01*
X11269643Y-19539357D01*
X4387500Y-20087500D02*
X4497500Y-20197500D01*
X4497500Y-20087500D02*
X4387500Y-20197500D01*
X4497500Y-20142500D02*
G75*
G03*
X4497500Y-20142500I-55000J0D01*
G01*
X4941071Y-20278214D02*
X4769643Y-20278214D01*
X4855357Y-20278214D02*
X4855357Y-19978214D01*
X4826786Y-20021072D01*
X4798214Y-20049643D01*
X4769643Y-20063929D01*
X5069643Y-20249643D02*
X5083928Y-20263929D01*
X5069643Y-20278214D01*
X5055357Y-20263929D01*
X5069643Y-20249643D01*
X5069643Y-20278214D01*
X5369643Y-20278214D02*
X5198214Y-20278214D01*
X5283928Y-20278214D02*
X5283928Y-19978214D01*
X5255357Y-20021072D01*
X5226786Y-20049643D01*
X5198214Y-20063929D01*
X5555357Y-19978214D02*
X5583928Y-19978214D01*
X5612500Y-19992500D01*
X5626786Y-20006786D01*
X5641071Y-20035357D01*
X5655357Y-20092500D01*
X5655357Y-20163929D01*
X5641071Y-20221072D01*
X5626786Y-20249643D01*
X5612500Y-20263929D01*
X5583928Y-20278214D01*
X5555357Y-20278214D01*
X5526786Y-20263929D01*
X5512500Y-20249643D01*
X5498214Y-20221072D01*
X5483928Y-20163929D01*
X5483928Y-20092500D01*
X5498214Y-20035357D01*
X5512500Y-20006786D01*
X5526786Y-19992500D01*
X5555357Y-19978214D01*
X5783928Y-20278214D02*
X5783928Y-20078214D01*
X5783928Y-20106786D02*
X5798214Y-20092500D01*
X5826786Y-20078214D01*
X5869643Y-20078214D01*
X5898214Y-20092500D01*
X5912500Y-20121072D01*
X5912500Y-20278214D01*
X5912500Y-20121072D02*
X5926786Y-20092500D01*
X5955357Y-20078214D01*
X5998214Y-20078214D01*
X6026786Y-20092500D01*
X6041071Y-20121072D01*
X6041071Y-20278214D01*
X6183928Y-20278214D02*
X6183928Y-20078214D01*
X6183928Y-20106786D02*
X6198214Y-20092500D01*
X6226786Y-20078214D01*
X6269643Y-20078214D01*
X6298214Y-20092500D01*
X6312500Y-20121072D01*
X6312500Y-20278214D01*
X6312500Y-20121072D02*
X6326786Y-20092500D01*
X6355357Y-20078214D01*
X6398214Y-20078214D01*
X6426786Y-20092500D01*
X6441071Y-20121072D01*
X6441071Y-20278214D01*
X7026786Y-19963929D02*
X6769643Y-20349643D01*
X7412500Y-19978214D02*
X7441071Y-19978214D01*
X7469643Y-19992500D01*
X7483928Y-20006786D01*
X7498214Y-20035357D01*
X7512500Y-20092500D01*
X7512500Y-20163929D01*
X7498214Y-20221072D01*
X7483928Y-20249643D01*
X7469643Y-20263929D01*
X7441071Y-20278214D01*
X7412500Y-20278214D01*
X7383928Y-20263929D01*
X7369643Y-20249643D01*
X7355357Y-20221072D01*
X7341071Y-20163929D01*
X7341071Y-20092500D01*
X7355357Y-20035357D01*
X7369643Y-20006786D01*
X7383928Y-19992500D01*
X7412500Y-19978214D01*
X7641071Y-20249643D02*
X7655357Y-20263929D01*
X7641071Y-20278214D01*
X7626786Y-20263929D01*
X7641071Y-20249643D01*
X7641071Y-20278214D01*
X7841071Y-19978214D02*
X7869643Y-19978214D01*
X7898214Y-19992500D01*
X7912500Y-20006786D01*
X7926786Y-20035357D01*
X7941071Y-20092500D01*
X7941071Y-20163929D01*
X7926786Y-20221072D01*
X7912500Y-20249643D01*
X7898214Y-20263929D01*
X7869643Y-20278214D01*
X7841071Y-20278214D01*
X7812500Y-20263929D01*
X7798214Y-20249643D01*
X7783928Y-20221072D01*
X7769643Y-20163929D01*
X7769643Y-20092500D01*
X7783928Y-20035357D01*
X7798214Y-20006786D01*
X7812500Y-19992500D01*
X7841071Y-19978214D01*
X8198214Y-20078214D02*
X8198214Y-20278214D01*
X8126786Y-19963929D02*
X8055357Y-20178214D01*
X8241071Y-20178214D01*
X8326786Y-19978214D02*
X8512500Y-19978214D01*
X8412500Y-20092500D01*
X8455357Y-20092500D01*
X8483928Y-20106786D01*
X8498214Y-20121072D01*
X8512500Y-20149643D01*
X8512500Y-20221072D01*
X8498214Y-20249643D01*
X8483928Y-20263929D01*
X8455357Y-20278214D01*
X8369643Y-20278214D01*
X8341071Y-20263929D01*
X8326786Y-20249643D01*
X8626786Y-19978214D02*
X8626786Y-20035357D01*
X8741071Y-19978214D02*
X8741071Y-20035357D01*
X9183928Y-20392500D02*
X9169643Y-20378214D01*
X9141071Y-20335357D01*
X9126786Y-20306786D01*
X9112500Y-20263929D01*
X9098214Y-20192500D01*
X9098214Y-20135357D01*
X9112500Y-20063929D01*
X9126786Y-20021072D01*
X9141071Y-19992500D01*
X9169643Y-19949643D01*
X9183928Y-19935357D01*
X9283928Y-20006786D02*
X9298214Y-19992500D01*
X9326786Y-19978214D01*
X9398214Y-19978214D01*
X9426786Y-19992500D01*
X9441071Y-20006786D01*
X9455357Y-20035357D01*
X9455357Y-20063929D01*
X9441071Y-20106786D01*
X9269643Y-20278214D01*
X9455357Y-20278214D01*
X9626786Y-20106786D02*
X9598214Y-20092500D01*
X9583928Y-20078214D01*
X9569643Y-20049643D01*
X9569643Y-20035357D01*
X9583928Y-20006786D01*
X9598214Y-19992500D01*
X9626786Y-19978214D01*
X9683928Y-19978214D01*
X9712500Y-19992500D01*
X9726786Y-20006786D01*
X9741071Y-20035357D01*
X9741071Y-20049643D01*
X9726786Y-20078214D01*
X9712500Y-20092500D01*
X9683928Y-20106786D01*
X9626786Y-20106786D01*
X9598214Y-20121072D01*
X9583928Y-20135357D01*
X9569643Y-20163929D01*
X9569643Y-20221072D01*
X9583928Y-20249643D01*
X9598214Y-20263929D01*
X9626786Y-20278214D01*
X9683928Y-20278214D01*
X9712500Y-20263929D01*
X9726786Y-20249643D01*
X9741071Y-20221072D01*
X9741071Y-20163929D01*
X9726786Y-20135357D01*
X9712500Y-20121072D01*
X9683928Y-20106786D01*
X10098214Y-20278214D02*
X10098214Y-19978214D01*
X10226786Y-20278214D02*
X10226786Y-20121072D01*
X10212500Y-20092500D01*
X10183928Y-20078214D01*
X10141071Y-20078214D01*
X10112500Y-20092500D01*
X10098214Y-20106786D01*
X10412500Y-20278214D02*
X10383928Y-20263929D01*
X10369643Y-20249643D01*
X10355357Y-20221072D01*
X10355357Y-20135357D01*
X10369643Y-20106786D01*
X10383928Y-20092500D01*
X10412500Y-20078214D01*
X10455357Y-20078214D01*
X10483928Y-20092500D01*
X10498214Y-20106786D01*
X10512500Y-20135357D01*
X10512500Y-20221072D01*
X10498214Y-20249643D01*
X10483928Y-20263929D01*
X10455357Y-20278214D01*
X10412500Y-20278214D01*
X10683928Y-20278214D02*
X10655357Y-20263929D01*
X10641071Y-20235357D01*
X10641071Y-19978214D01*
X10912500Y-20263929D02*
X10883928Y-20278214D01*
X10826786Y-20278214D01*
X10798214Y-20263929D01*
X10783928Y-20235357D01*
X10783928Y-20121072D01*
X10798214Y-20092500D01*
X10826786Y-20078214D01*
X10883928Y-20078214D01*
X10912500Y-20092500D01*
X10926786Y-20121072D01*
X10926786Y-20149643D01*
X10783928Y-20178214D01*
X11041071Y-20263929D02*
X11069643Y-20278214D01*
X11126786Y-20278214D01*
X11155357Y-20263929D01*
X11169643Y-20235357D01*
X11169643Y-20221072D01*
X11155357Y-20192500D01*
X11126786Y-20178214D01*
X11083928Y-20178214D01*
X11055357Y-20163929D01*
X11041071Y-20135357D01*
X11041071Y-20121072D01*
X11055357Y-20092500D01*
X11083928Y-20078214D01*
X11126786Y-20078214D01*
X11155357Y-20092500D01*
X11269643Y-20392500D02*
X11283928Y-20378214D01*
X11312500Y-20335357D01*
X11326786Y-20306786D01*
X11341071Y-20263929D01*
X11355357Y-20192500D01*
X11355357Y-20135357D01*
X11341071Y-20063929D01*
X11326786Y-20021072D01*
X11312500Y-19992500D01*
X11283928Y-19949643D01*
X11269643Y-19935357D01*
X4347500Y-20463500D02*
X4497500Y-20613500D01*
X4497500Y-20463500D02*
X4347500Y-20613500D01*
X4422500Y-20463500D02*
X4422500Y-20613500D01*
X4347500Y-20538500D02*
X4497500Y-20538500D01*
X4941071Y-20674214D02*
X4769643Y-20674214D01*
X4855357Y-20674214D02*
X4855357Y-20374214D01*
X4826786Y-20417072D01*
X4798214Y-20445643D01*
X4769643Y-20459929D01*
X5069643Y-20645643D02*
X5083928Y-20659929D01*
X5069643Y-20674214D01*
X5055357Y-20659929D01*
X5069643Y-20645643D01*
X5069643Y-20674214D01*
X5355357Y-20374214D02*
X5212500Y-20374214D01*
X5198214Y-20517072D01*
X5212500Y-20502786D01*
X5241071Y-20488500D01*
X5312500Y-20488500D01*
X5341071Y-20502786D01*
X5355357Y-20517072D01*
X5369643Y-20545643D01*
X5369643Y-20617072D01*
X5355357Y-20645643D01*
X5341071Y-20659929D01*
X5312500Y-20674214D01*
X5241071Y-20674214D01*
X5212500Y-20659929D01*
X5198214Y-20645643D01*
X5555357Y-20374214D02*
X5583928Y-20374214D01*
X5612500Y-20388500D01*
X5626786Y-20402786D01*
X5641071Y-20431357D01*
X5655357Y-20488500D01*
X5655357Y-20559929D01*
X5641071Y-20617072D01*
X5626786Y-20645643D01*
X5612500Y-20659929D01*
X5583928Y-20674214D01*
X5555357Y-20674214D01*
X5526786Y-20659929D01*
X5512500Y-20645643D01*
X5498214Y-20617072D01*
X5483928Y-20559929D01*
X5483928Y-20488500D01*
X5498214Y-20431357D01*
X5512500Y-20402786D01*
X5526786Y-20388500D01*
X5555357Y-20374214D01*
X5783928Y-20674214D02*
X5783928Y-20474214D01*
X5783928Y-20502786D02*
X5798214Y-20488500D01*
X5826786Y-20474214D01*
X5869643Y-20474214D01*
X5898214Y-20488500D01*
X5912500Y-20517072D01*
X5912500Y-20674214D01*
X5912500Y-20517072D02*
X5926786Y-20488500D01*
X5955357Y-20474214D01*
X5998214Y-20474214D01*
X6026786Y-20488500D01*
X6041071Y-20517072D01*
X6041071Y-20674214D01*
X6183928Y-20674214D02*
X6183928Y-20474214D01*
X6183928Y-20502786D02*
X6198214Y-20488500D01*
X6226786Y-20474214D01*
X6269643Y-20474214D01*
X6298214Y-20488500D01*
X6312500Y-20517072D01*
X6312500Y-20674214D01*
X6312500Y-20517072D02*
X6326786Y-20488500D01*
X6355357Y-20474214D01*
X6398214Y-20474214D01*
X6426786Y-20488500D01*
X6441071Y-20517072D01*
X6441071Y-20674214D01*
X7026786Y-20359929D02*
X6769643Y-20745643D01*
X7412500Y-20374214D02*
X7441071Y-20374214D01*
X7469643Y-20388500D01*
X7483928Y-20402786D01*
X7498214Y-20431357D01*
X7512500Y-20488500D01*
X7512500Y-20559929D01*
X7498214Y-20617072D01*
X7483928Y-20645643D01*
X7469643Y-20659929D01*
X7441071Y-20674214D01*
X7412500Y-20674214D01*
X7383928Y-20659929D01*
X7369643Y-20645643D01*
X7355357Y-20617072D01*
X7341071Y-20559929D01*
X7341071Y-20488500D01*
X7355357Y-20431357D01*
X7369643Y-20402786D01*
X7383928Y-20388500D01*
X7412500Y-20374214D01*
X7641071Y-20645643D02*
X7655357Y-20659929D01*
X7641071Y-20674214D01*
X7626786Y-20659929D01*
X7641071Y-20645643D01*
X7641071Y-20674214D01*
X7841071Y-20374214D02*
X7869643Y-20374214D01*
X7898214Y-20388500D01*
X7912500Y-20402786D01*
X7926786Y-20431357D01*
X7941071Y-20488500D01*
X7941071Y-20559929D01*
X7926786Y-20617072D01*
X7912500Y-20645643D01*
X7898214Y-20659929D01*
X7869643Y-20674214D01*
X7841071Y-20674214D01*
X7812500Y-20659929D01*
X7798214Y-20645643D01*
X7783928Y-20617072D01*
X7769643Y-20559929D01*
X7769643Y-20488500D01*
X7783928Y-20431357D01*
X7798214Y-20402786D01*
X7812500Y-20388500D01*
X7841071Y-20374214D01*
X8212500Y-20374214D02*
X8069643Y-20374214D01*
X8055357Y-20517072D01*
X8069643Y-20502786D01*
X8098214Y-20488500D01*
X8169643Y-20488500D01*
X8198214Y-20502786D01*
X8212500Y-20517072D01*
X8226786Y-20545643D01*
X8226786Y-20617072D01*
X8212500Y-20645643D01*
X8198214Y-20659929D01*
X8169643Y-20674214D01*
X8098214Y-20674214D01*
X8069643Y-20659929D01*
X8055357Y-20645643D01*
X8369643Y-20674214D02*
X8426786Y-20674214D01*
X8455357Y-20659929D01*
X8469643Y-20645643D01*
X8498214Y-20602786D01*
X8512500Y-20545643D01*
X8512500Y-20431357D01*
X8498214Y-20402786D01*
X8483928Y-20388500D01*
X8455357Y-20374214D01*
X8398214Y-20374214D01*
X8369643Y-20388500D01*
X8355357Y-20402786D01*
X8341071Y-20431357D01*
X8341071Y-20502786D01*
X8355357Y-20531357D01*
X8369643Y-20545643D01*
X8398214Y-20559929D01*
X8455357Y-20559929D01*
X8483928Y-20545643D01*
X8498214Y-20531357D01*
X8512500Y-20502786D01*
X8626786Y-20374214D02*
X8626786Y-20431357D01*
X8741071Y-20374214D02*
X8741071Y-20431357D01*
X9183928Y-20788500D02*
X9169643Y-20774214D01*
X9141071Y-20731357D01*
X9126786Y-20702786D01*
X9112500Y-20659929D01*
X9098214Y-20588500D01*
X9098214Y-20531357D01*
X9112500Y-20459929D01*
X9126786Y-20417072D01*
X9141071Y-20388500D01*
X9169643Y-20345643D01*
X9183928Y-20331357D01*
X9283928Y-20402786D02*
X9298214Y-20388500D01*
X9326786Y-20374214D01*
X9398214Y-20374214D01*
X9426786Y-20388500D01*
X9441071Y-20402786D01*
X9455357Y-20431357D01*
X9455357Y-20459929D01*
X9441071Y-20502786D01*
X9269643Y-20674214D01*
X9455357Y-20674214D01*
X9812500Y-20674214D02*
X9812500Y-20374214D01*
X9941071Y-20674214D02*
X9941071Y-20517072D01*
X9926786Y-20488500D01*
X9898214Y-20474214D01*
X9855357Y-20474214D01*
X9826786Y-20488500D01*
X9812500Y-20502786D01*
X10126786Y-20674214D02*
X10098214Y-20659929D01*
X10083928Y-20645643D01*
X10069643Y-20617072D01*
X10069643Y-20531357D01*
X10083928Y-20502786D01*
X10098214Y-20488500D01*
X10126786Y-20474214D01*
X10169643Y-20474214D01*
X10198214Y-20488500D01*
X10212500Y-20502786D01*
X10226786Y-20531357D01*
X10226786Y-20617072D01*
X10212500Y-20645643D01*
X10198214Y-20659929D01*
X10169643Y-20674214D01*
X10126786Y-20674214D01*
X10398214Y-20674214D02*
X10369643Y-20659929D01*
X10355357Y-20631357D01*
X10355357Y-20374214D01*
X10626786Y-20659929D02*
X10598214Y-20674214D01*
X10541071Y-20674214D01*
X10512500Y-20659929D01*
X10498214Y-20631357D01*
X10498214Y-20517072D01*
X10512500Y-20488500D01*
X10541071Y-20474214D01*
X10598214Y-20474214D01*
X10626786Y-20488500D01*
X10641071Y-20517072D01*
X10641071Y-20545643D01*
X10498214Y-20574214D01*
X10755357Y-20659929D02*
X10783928Y-20674214D01*
X10841071Y-20674214D01*
X10869643Y-20659929D01*
X10883928Y-20631357D01*
X10883928Y-20617072D01*
X10869643Y-20588500D01*
X10841071Y-20574214D01*
X10798214Y-20574214D01*
X10769643Y-20559929D01*
X10755357Y-20531357D01*
X10755357Y-20517072D01*
X10769643Y-20488500D01*
X10798214Y-20474214D01*
X10841071Y-20474214D01*
X10869643Y-20488500D01*
X11241071Y-20559929D02*
X11469643Y-20559929D01*
X11355357Y-20674214D02*
X11355357Y-20445643D01*
X11969643Y-20474214D02*
X11969643Y-20674214D01*
X11898214Y-20359929D02*
X11826786Y-20574214D01*
X12012500Y-20574214D01*
X12341071Y-20659929D02*
X12369643Y-20674214D01*
X12426786Y-20674214D01*
X12455357Y-20659929D01*
X12469643Y-20631357D01*
X12469643Y-20617072D01*
X12455357Y-20588500D01*
X12426786Y-20574214D01*
X12383928Y-20574214D01*
X12355357Y-20559929D01*
X12341071Y-20531357D01*
X12341071Y-20517072D01*
X12355357Y-20488500D01*
X12383928Y-20474214D01*
X12426786Y-20474214D01*
X12455357Y-20488500D01*
X12641071Y-20674214D02*
X12612500Y-20659929D01*
X12598214Y-20631357D01*
X12598214Y-20374214D01*
X12798214Y-20674214D02*
X12769643Y-20659929D01*
X12755357Y-20645643D01*
X12741071Y-20617072D01*
X12741071Y-20531357D01*
X12755357Y-20502786D01*
X12769643Y-20488500D01*
X12798214Y-20474214D01*
X12841071Y-20474214D01*
X12869643Y-20488500D01*
X12883928Y-20502786D01*
X12898214Y-20531357D01*
X12898214Y-20617072D01*
X12883928Y-20645643D01*
X12869643Y-20659929D01*
X12841071Y-20674214D01*
X12798214Y-20674214D01*
X12983928Y-20474214D02*
X13098214Y-20474214D01*
X13026786Y-20374214D02*
X13026786Y-20631357D01*
X13041071Y-20659929D01*
X13069643Y-20674214D01*
X13098214Y-20674214D01*
X13183928Y-20659929D02*
X13212500Y-20674214D01*
X13269643Y-20674214D01*
X13298214Y-20659929D01*
X13312500Y-20631357D01*
X13312500Y-20617072D01*
X13298214Y-20588500D01*
X13269643Y-20574214D01*
X13226786Y-20574214D01*
X13198214Y-20559929D01*
X13183928Y-20531357D01*
X13183928Y-20517072D01*
X13198214Y-20488500D01*
X13226786Y-20474214D01*
X13269643Y-20474214D01*
X13298214Y-20488500D01*
X13412500Y-20788500D02*
X13426786Y-20774214D01*
X13455357Y-20731357D01*
X13469643Y-20702786D01*
X13483928Y-20659929D01*
X13498214Y-20588500D01*
X13498214Y-20531357D01*
X13483928Y-20459929D01*
X13469643Y-20417072D01*
X13455357Y-20388500D01*
X13426786Y-20345643D01*
X13412500Y-20331357D01*
X4317500Y-20844500D02*
X4497500Y-21024500D01*
X4497500Y-20844500D02*
X4317500Y-21024500D01*
X4471140Y-20998140D02*
X4471140Y-20870860D01*
X4343860Y-20870860D01*
X4343860Y-20998140D01*
X4471140Y-20998140D01*
X4941071Y-21070214D02*
X4769643Y-21070214D01*
X4855357Y-21070214D02*
X4855357Y-20770214D01*
X4826786Y-20813072D01*
X4798214Y-20841643D01*
X4769643Y-20855929D01*
X5069643Y-21041643D02*
X5083928Y-21055929D01*
X5069643Y-21070214D01*
X5055357Y-21055929D01*
X5069643Y-21041643D01*
X5069643Y-21070214D01*
X5255357Y-20898786D02*
X5226786Y-20884500D01*
X5212500Y-20870214D01*
X5198214Y-20841643D01*
X5198214Y-20827357D01*
X5212500Y-20798786D01*
X5226786Y-20784500D01*
X5255357Y-20770214D01*
X5312500Y-20770214D01*
X5341071Y-20784500D01*
X5355357Y-20798786D01*
X5369643Y-20827357D01*
X5369643Y-20841643D01*
X5355357Y-20870214D01*
X5341071Y-20884500D01*
X5312500Y-20898786D01*
X5255357Y-20898786D01*
X5226786Y-20913072D01*
X5212500Y-20927357D01*
X5198214Y-20955929D01*
X5198214Y-21013072D01*
X5212500Y-21041643D01*
X5226786Y-21055929D01*
X5255357Y-21070214D01*
X5312500Y-21070214D01*
X5341071Y-21055929D01*
X5355357Y-21041643D01*
X5369643Y-21013072D01*
X5369643Y-20955929D01*
X5355357Y-20927357D01*
X5341071Y-20913072D01*
X5312500Y-20898786D01*
X5555357Y-20770214D02*
X5583928Y-20770214D01*
X5612500Y-20784500D01*
X5626786Y-20798786D01*
X5641071Y-20827357D01*
X5655357Y-20884500D01*
X5655357Y-20955929D01*
X5641071Y-21013072D01*
X5626786Y-21041643D01*
X5612500Y-21055929D01*
X5583928Y-21070214D01*
X5555357Y-21070214D01*
X5526786Y-21055929D01*
X5512500Y-21041643D01*
X5498214Y-21013072D01*
X5483928Y-20955929D01*
X5483928Y-20884500D01*
X5498214Y-20827357D01*
X5512500Y-20798786D01*
X5526786Y-20784500D01*
X5555357Y-20770214D01*
X5783928Y-21070214D02*
X5783928Y-20870214D01*
X5783928Y-20898786D02*
X5798214Y-20884500D01*
X5826786Y-20870214D01*
X5869643Y-20870214D01*
X5898214Y-20884500D01*
X5912500Y-20913072D01*
X5912500Y-21070214D01*
X5912500Y-20913072D02*
X5926786Y-20884500D01*
X5955357Y-20870214D01*
X5998214Y-20870214D01*
X6026786Y-20884500D01*
X6041071Y-20913072D01*
X6041071Y-21070214D01*
X6183928Y-21070214D02*
X6183928Y-20870214D01*
X6183928Y-20898786D02*
X6198214Y-20884500D01*
X6226786Y-20870214D01*
X6269643Y-20870214D01*
X6298214Y-20884500D01*
X6312500Y-20913072D01*
X6312500Y-21070214D01*
X6312500Y-20913072D02*
X6326786Y-20884500D01*
X6355357Y-20870214D01*
X6398214Y-20870214D01*
X6426786Y-20884500D01*
X6441071Y-20913072D01*
X6441071Y-21070214D01*
X7026786Y-20755929D02*
X6769643Y-21141643D01*
X7412500Y-20770214D02*
X7441071Y-20770214D01*
X7469643Y-20784500D01*
X7483928Y-20798786D01*
X7498214Y-20827357D01*
X7512500Y-20884500D01*
X7512500Y-20955929D01*
X7498214Y-21013072D01*
X7483928Y-21041643D01*
X7469643Y-21055929D01*
X7441071Y-21070214D01*
X7412500Y-21070214D01*
X7383928Y-21055929D01*
X7369643Y-21041643D01*
X7355357Y-21013072D01*
X7341071Y-20955929D01*
X7341071Y-20884500D01*
X7355357Y-20827357D01*
X7369643Y-20798786D01*
X7383928Y-20784500D01*
X7412500Y-20770214D01*
X7641071Y-21041643D02*
X7655357Y-21055929D01*
X7641071Y-21070214D01*
X7626786Y-21055929D01*
X7641071Y-21041643D01*
X7641071Y-21070214D01*
X7841071Y-20770214D02*
X7869643Y-20770214D01*
X7898214Y-20784500D01*
X7912500Y-20798786D01*
X7926786Y-20827357D01*
X7941071Y-20884500D01*
X7941071Y-20955929D01*
X7926786Y-21013072D01*
X7912500Y-21041643D01*
X7898214Y-21055929D01*
X7869643Y-21070214D01*
X7841071Y-21070214D01*
X7812500Y-21055929D01*
X7798214Y-21041643D01*
X7783928Y-21013072D01*
X7769643Y-20955929D01*
X7769643Y-20884500D01*
X7783928Y-20827357D01*
X7798214Y-20798786D01*
X7812500Y-20784500D01*
X7841071Y-20770214D01*
X8041071Y-20770214D02*
X8241071Y-20770214D01*
X8112500Y-21070214D01*
X8512500Y-21070214D02*
X8341071Y-21070214D01*
X8426786Y-21070214D02*
X8426786Y-20770214D01*
X8398214Y-20813072D01*
X8369643Y-20841643D01*
X8341071Y-20855929D01*
X8626786Y-20770214D02*
X8626786Y-20827357D01*
X8741071Y-20770214D02*
X8741071Y-20827357D01*
X9183928Y-21184500D02*
X9169643Y-21170214D01*
X9141071Y-21127357D01*
X9126786Y-21098786D01*
X9112500Y-21055929D01*
X9098214Y-20984500D01*
X9098214Y-20927357D01*
X9112500Y-20855929D01*
X9126786Y-20813072D01*
X9141071Y-20784500D01*
X9169643Y-20741643D01*
X9183928Y-20727357D01*
X9426786Y-20770214D02*
X9369643Y-20770214D01*
X9341071Y-20784500D01*
X9326786Y-20798786D01*
X9298214Y-20841643D01*
X9283928Y-20898786D01*
X9283928Y-21013072D01*
X9298214Y-21041643D01*
X9312500Y-21055929D01*
X9341071Y-21070214D01*
X9398214Y-21070214D01*
X9426786Y-21055929D01*
X9441071Y-21041643D01*
X9455357Y-21013072D01*
X9455357Y-20941643D01*
X9441071Y-20913072D01*
X9426786Y-20898786D01*
X9398214Y-20884500D01*
X9341071Y-20884500D01*
X9312500Y-20898786D01*
X9298214Y-20913072D01*
X9283928Y-20941643D01*
X9812500Y-21070214D02*
X9812500Y-20770214D01*
X9941071Y-21070214D02*
X9941071Y-20913072D01*
X9926786Y-20884500D01*
X9898214Y-20870214D01*
X9855357Y-20870214D01*
X9826786Y-20884500D01*
X9812500Y-20898786D01*
X10126786Y-21070214D02*
X10098214Y-21055929D01*
X10083928Y-21041643D01*
X10069643Y-21013072D01*
X10069643Y-20927357D01*
X10083928Y-20898786D01*
X10098214Y-20884500D01*
X10126786Y-20870214D01*
X10169643Y-20870214D01*
X10198214Y-20884500D01*
X10212500Y-20898786D01*
X10226786Y-20927357D01*
X10226786Y-21013072D01*
X10212500Y-21041643D01*
X10198214Y-21055929D01*
X10169643Y-21070214D01*
X10126786Y-21070214D01*
X10398214Y-21070214D02*
X10369643Y-21055929D01*
X10355357Y-21027357D01*
X10355357Y-20770214D01*
X10626786Y-21055929D02*
X10598214Y-21070214D01*
X10541071Y-21070214D01*
X10512500Y-21055929D01*
X10498214Y-21027357D01*
X10498214Y-20913072D01*
X10512500Y-20884500D01*
X10541071Y-20870214D01*
X10598214Y-20870214D01*
X10626786Y-20884500D01*
X10641071Y-20913072D01*
X10641071Y-20941643D01*
X10498214Y-20970214D01*
X10755357Y-21055929D02*
X10783928Y-21070214D01*
X10841071Y-21070214D01*
X10869643Y-21055929D01*
X10883928Y-21027357D01*
X10883928Y-21013072D01*
X10869643Y-20984500D01*
X10841071Y-20970214D01*
X10798214Y-20970214D01*
X10769643Y-20955929D01*
X10755357Y-20927357D01*
X10755357Y-20913072D01*
X10769643Y-20884500D01*
X10798214Y-20870214D01*
X10841071Y-20870214D01*
X10869643Y-20884500D01*
X10983928Y-21184500D02*
X10998214Y-21170214D01*
X11026786Y-21127357D01*
X11041071Y-21098786D01*
X11055357Y-21055929D01*
X11069643Y-20984500D01*
X11069643Y-20927357D01*
X11055357Y-20855929D01*
X11041071Y-20813072D01*
X11026786Y-20784500D01*
X10998214Y-20741643D01*
X10983928Y-20727357D01*
M02*
