%TF.GenerationSoftware,KiCad,Pcbnew,5.1.6*%
%TF.CreationDate,2020-08-25T13:31:23-07:00*%
%TF.ProjectId,uSDX,75534458-2e6b-4696-9361-645f70636258,2.0.3*%
%TF.SameCoordinates,Original*%
%TF.FileFunction,Soldermask,Top*%
%TF.FilePolarity,Negative*%
%FSLAX46Y46*%
G04 Gerber Fmt 4.6, Leading zero omitted, Abs format (unit mm)*
G04 Created by KiCad (PCBNEW 5.1.6) date 2020-08-25 13:31:23*
%MOMM*%
%LPD*%
G01*
G04 APERTURE LIST*
%ADD10R,0.701600X1.651600*%
%ADD11R,1.651600X0.701600*%
%ADD12R,5.181600X2.514600*%
%ADD13R,5.181600X2.387600*%
%ADD14R,1.701600X1.701600*%
%ADD15O,1.701600X1.701600*%
%ADD16C,1.601600*%
%ADD17R,1.601600X0.701600*%
%ADD18C,4.401600*%
%ADD19R,1.001600X0.901600*%
%ADD20R,1.351600X1.101600*%
%ADD21C,3.701600*%
%ADD22O,1.301600X2.101600*%
%ADD23R,1.101600X1.351600*%
%ADD24R,0.701600X1.601600*%
%ADD25C,2.101600*%
%ADD26O,2.301600X3.301600*%
%ADD27C,1.625600*%
%ADD28R,1.701600X1.401600*%
%ADD29R,1.701600X2.101600*%
%ADD30R,0.801600X1.401600*%
%ADD31R,1.401600X0.801600*%
%ADD32R,0.901600X1.001600*%
%ADD33R,1.301600X1.301600*%
%ADD34R,1.801600X1.801600*%
%ADD35O,1.801600X1.801600*%
%ADD36R,1.601600X2.601600*%
%ADD37R,2.001600X2.501600*%
%ADD38R,2.501600X2.001600*%
%ADD39R,0.951600X0.401600*%
%ADD40R,0.401600X0.951600*%
%ADD41R,1.401600X1.401600*%
%ADD42R,1.201600X0.501600*%
%ADD43R,1.161600X0.751600*%
%ADD44R,0.501600X1.451600*%
%ADD45O,1.351600X1.051600*%
%ADD46O,1.101600X1.651600*%
G04 APERTURE END LIST*
D10*
%TO.C,U304*%
X71405000Y-114300000D03*
X70135000Y-114300000D03*
X68865000Y-114300000D03*
X67595000Y-114300000D03*
X67595000Y-119700000D03*
X68865000Y-119700000D03*
X70135000Y-119700000D03*
X71405000Y-119700000D03*
%TD*%
D11*
%TO.C,U202*%
X101300000Y-122095000D03*
X101300000Y-123365000D03*
X101300000Y-124635000D03*
X101300000Y-125905000D03*
X106700000Y-125905000D03*
X106700000Y-124635000D03*
X106700000Y-123365000D03*
X106700000Y-122095000D03*
%TD*%
D10*
%TO.C,U305*%
X81905000Y-114300000D03*
X80635000Y-114300000D03*
X79365000Y-114300000D03*
X78095000Y-114300000D03*
X78095000Y-119700000D03*
X79365000Y-119700000D03*
X80635000Y-119700000D03*
X81905000Y-119700000D03*
%TD*%
D12*
%TO.C,J401*%
X47540000Y-99182000D03*
X47540000Y-107818000D03*
D13*
X47540000Y-103500000D03*
%TD*%
D14*
%TO.C,U201*%
X87250000Y-108750000D03*
D15*
X135510000Y-93510000D03*
X89790000Y-108750000D03*
X132970000Y-93510000D03*
X92330000Y-108750000D03*
X130430000Y-93510000D03*
X94870000Y-108750000D03*
X127890000Y-93510000D03*
X97410000Y-108750000D03*
X125350000Y-93510000D03*
X99950000Y-108750000D03*
X122810000Y-93510000D03*
X102490000Y-108750000D03*
X120270000Y-93510000D03*
X105030000Y-108750000D03*
X117730000Y-93510000D03*
X107570000Y-108750000D03*
X115190000Y-93510000D03*
X110110000Y-108750000D03*
X112650000Y-93510000D03*
X112650000Y-108750000D03*
X110110000Y-93510000D03*
X115190000Y-108750000D03*
X107570000Y-93510000D03*
X117730000Y-108750000D03*
X105030000Y-93510000D03*
X120270000Y-108750000D03*
X102490000Y-93510000D03*
X122810000Y-108750000D03*
X99950000Y-93510000D03*
X125350000Y-108750000D03*
X97410000Y-93510000D03*
X127890000Y-108750000D03*
X94870000Y-93510000D03*
X130430000Y-108750000D03*
X92330000Y-93510000D03*
X132970000Y-108750000D03*
X89790000Y-93510000D03*
X135510000Y-108750000D03*
X87250000Y-93510000D03*
%TD*%
D16*
%TO.C,TP306*%
X69000000Y-98500000D03*
%TD*%
D17*
%TO.C,U501*%
X104700000Y-89310000D03*
X104700000Y-88040000D03*
X104700000Y-86770000D03*
X104700000Y-85500000D03*
X104700000Y-84230000D03*
X104700000Y-82960000D03*
X104700000Y-81690000D03*
X99300000Y-81690000D03*
X99300000Y-82960000D03*
X99300000Y-84230000D03*
X99300000Y-85500000D03*
X99300000Y-86770000D03*
X99300000Y-88040000D03*
X99300000Y-89310000D03*
%TD*%
D18*
%TO.C,H104*%
X140000000Y-167000000D03*
%TD*%
%TO.C,H102*%
X67000000Y-77000000D03*
%TD*%
%TO.C,H101*%
X140000000Y-77000000D03*
%TD*%
D16*
%TO.C,TP202*%
X142000000Y-109500000D03*
%TD*%
D19*
%TO.C,D208*%
X133500000Y-113550000D03*
X133500000Y-115450000D03*
X135500000Y-114500000D03*
%TD*%
D20*
%TO.C,C305*%
X75500000Y-117000000D03*
X75500000Y-115000000D03*
%TD*%
D21*
%TO.C,L401*%
X59000000Y-81500000D03*
X47560000Y-81500000D03*
%TD*%
D22*
%TO.C,U203*%
X107310000Y-157230000D03*
X104770000Y-157230000D03*
X102230000Y-157230000D03*
X99690000Y-157230000D03*
%TD*%
D19*
%TO.C,D102*%
X136000000Y-153950000D03*
X136000000Y-152050000D03*
X134000000Y-153000000D03*
%TD*%
D20*
%TO.C,C414*%
X68000000Y-151500000D03*
X68000000Y-153500000D03*
%TD*%
D23*
%TO.C,C416*%
X66000000Y-143500000D03*
X64000000Y-143500000D03*
%TD*%
D19*
%TO.C,Q404*%
X66000000Y-153450000D03*
X66000000Y-151550000D03*
X64000000Y-152500000D03*
%TD*%
D20*
%TO.C,C422*%
X50500000Y-116500000D03*
X50500000Y-114500000D03*
%TD*%
%TO.C,C420*%
X50500000Y-139000000D03*
X50500000Y-137000000D03*
%TD*%
D19*
%TO.C,D402*%
X53500000Y-167450000D03*
X53500000Y-165550000D03*
X51500000Y-166500000D03*
%TD*%
D24*
%TO.C,U302*%
X78810000Y-95300000D03*
X77540000Y-95300000D03*
X76270000Y-95300000D03*
X75000000Y-95300000D03*
X73730000Y-95300000D03*
X72460000Y-95300000D03*
X71190000Y-95300000D03*
X71190000Y-100700000D03*
X72460000Y-100700000D03*
X73730000Y-100700000D03*
X75000000Y-100700000D03*
X76270000Y-100700000D03*
X77540000Y-100700000D03*
X78810000Y-100700000D03*
%TD*%
%TO.C,U301*%
X77445000Y-103800000D03*
X76175000Y-103800000D03*
X74905000Y-103800000D03*
X73635000Y-103800000D03*
X72365000Y-103800000D03*
X71095000Y-103800000D03*
X69825000Y-103800000D03*
X68555000Y-103800000D03*
X68555000Y-109200000D03*
X69825000Y-109200000D03*
X71095000Y-109200000D03*
X72365000Y-109200000D03*
X73635000Y-109200000D03*
X74905000Y-109200000D03*
X76175000Y-109200000D03*
X77445000Y-109200000D03*
%TD*%
D25*
%TO.C,SW209*%
X125000000Y-137500000D03*
X125000000Y-133000000D03*
X131500000Y-137500000D03*
X131500000Y-133000000D03*
%TD*%
%TO.C,SW208*%
X125000000Y-149500000D03*
X125000000Y-145000000D03*
X131500000Y-149500000D03*
X131500000Y-145000000D03*
%TD*%
%TO.C,SW207*%
X112500000Y-167500000D03*
X112500000Y-163000000D03*
X119000000Y-167500000D03*
X119000000Y-163000000D03*
%TD*%
%TO.C,SW206*%
X100000000Y-167500000D03*
X100000000Y-163000000D03*
X106500000Y-167500000D03*
X106500000Y-163000000D03*
%TD*%
%TO.C,SW205*%
X87500000Y-167500000D03*
X87500000Y-163000000D03*
X94000000Y-167500000D03*
X94000000Y-163000000D03*
%TD*%
%TO.C,SW204*%
X76000000Y-149500000D03*
X76000000Y-145000000D03*
X82500000Y-149500000D03*
X82500000Y-145000000D03*
%TD*%
%TO.C,SW203*%
X76000000Y-137500000D03*
X76000000Y-133000000D03*
X82500000Y-137500000D03*
X82500000Y-133000000D03*
%TD*%
D26*
%TO.C,SW202*%
X123500000Y-162250000D03*
X134500000Y-162250000D03*
D27*
X126500000Y-169250000D03*
X131540000Y-169250000D03*
D16*
X131500000Y-154750000D03*
X129000000Y-154750000D03*
X126500000Y-154750000D03*
%TD*%
D28*
%TO.C,RV301*%
X71000000Y-87250000D03*
D29*
X68100000Y-86000000D03*
D28*
X71000000Y-84750000D03*
%TD*%
D30*
%TO.C,R232*%
X119550000Y-137500000D03*
X121450000Y-137500000D03*
%TD*%
%TO.C,R231*%
X122550000Y-141500000D03*
X124450000Y-141500000D03*
%TD*%
%TO.C,R230*%
X123450000Y-169500000D03*
X121550000Y-169500000D03*
%TD*%
D31*
%TO.C,R229*%
X109500000Y-167950000D03*
X109500000Y-166050000D03*
%TD*%
D30*
%TO.C,R228*%
X76950000Y-142000000D03*
X75050000Y-142000000D03*
%TD*%
%TO.C,R227*%
X122050000Y-129000000D03*
X123950000Y-129000000D03*
%TD*%
D19*
%TO.C,D401*%
X63000000Y-89550000D03*
X63000000Y-91450000D03*
X65000000Y-90500000D03*
%TD*%
D32*
%TO.C,D301*%
X64950000Y-84000000D03*
X63050000Y-84000000D03*
X64000000Y-86000000D03*
%TD*%
%TO.C,D207*%
X112450000Y-103000000D03*
X110550000Y-103000000D03*
X111500000Y-105000000D03*
%TD*%
%TO.C,D206*%
X107450000Y-103000000D03*
X105550000Y-103000000D03*
X106500000Y-105000000D03*
%TD*%
%TO.C,D205*%
X120950000Y-100000000D03*
X119050000Y-100000000D03*
X120000000Y-102000000D03*
%TD*%
%TO.C,D204*%
X117950000Y-104000000D03*
X116050000Y-104000000D03*
X117000000Y-106000000D03*
%TD*%
D33*
%TO.C,D203*%
X140400000Y-100500000D03*
X142600000Y-100500000D03*
%TD*%
%TO.C,D202*%
X140400000Y-93500000D03*
X142600000Y-93500000D03*
%TD*%
D32*
%TO.C,D201*%
X123950000Y-104000000D03*
X122050000Y-104000000D03*
X123000000Y-106000000D03*
%TD*%
D33*
%TO.C,D104*%
X139900000Y-137000000D03*
X142100000Y-137000000D03*
%TD*%
%TO.C,D103*%
X139000000Y-159500000D03*
X136800000Y-159500000D03*
%TD*%
D20*
%TO.C,C212*%
X139500000Y-130000000D03*
X139500000Y-128000000D03*
%TD*%
D23*
%TO.C,C208*%
X89000000Y-96000000D03*
X87000000Y-96000000D03*
%TD*%
D16*
%TO.C,TP310*%
X86000000Y-117000000D03*
%TD*%
D30*
%TO.C,R307*%
X81500000Y-127500000D03*
X79600000Y-127500000D03*
%TD*%
%TO.C,R306*%
X70500000Y-127500000D03*
X68600000Y-127500000D03*
%TD*%
%TO.C,R305*%
X81450000Y-123500000D03*
X79550000Y-123500000D03*
%TD*%
%TO.C,R304*%
X70500000Y-123500000D03*
X68600000Y-123500000D03*
%TD*%
D31*
%TO.C,R303*%
X70000000Y-90550000D03*
X70000000Y-92450000D03*
%TD*%
%TO.C,R302*%
X66500000Y-107100000D03*
X66500000Y-109000000D03*
%TD*%
%TO.C,R301*%
X64500000Y-108950000D03*
X64500000Y-107050000D03*
%TD*%
D34*
%TO.C,J301*%
X82500000Y-109000000D03*
D35*
X82500000Y-106460000D03*
X82500000Y-103920000D03*
X82500000Y-101380000D03*
X82500000Y-98840000D03*
X82500000Y-96300000D03*
X82500000Y-93760000D03*
%TD*%
D31*
%TO.C,FB301*%
X84500000Y-120000000D03*
X84500000Y-121900000D03*
%TD*%
D20*
%TO.C,C309*%
X84500000Y-112000000D03*
X84500000Y-114000000D03*
%TD*%
D23*
%TO.C,C308*%
X79500000Y-125500000D03*
X81500000Y-125500000D03*
%TD*%
%TO.C,C307*%
X68500000Y-125500000D03*
X70500000Y-125500000D03*
%TD*%
D20*
%TO.C,C304*%
X65000000Y-115000000D03*
X65000000Y-117000000D03*
%TD*%
%TO.C,C303*%
X75500000Y-120000000D03*
X75500000Y-122000000D03*
%TD*%
%TO.C,C302*%
X65000000Y-119000000D03*
X65000000Y-121000000D03*
%TD*%
%TO.C,C301*%
X72000000Y-92500000D03*
X72000000Y-90500000D03*
%TD*%
D16*
%TO.C,TP201*%
X136000000Y-132000000D03*
%TD*%
D26*
%TO.C,SW201*%
X71500000Y-163000000D03*
X82500000Y-163000000D03*
D27*
X74500000Y-170000000D03*
X79540000Y-170000000D03*
D16*
X79500000Y-155500000D03*
X77000000Y-155500000D03*
X74500000Y-155500000D03*
%TD*%
D30*
%TO.C,R226*%
X130050000Y-161500000D03*
X131950000Y-161500000D03*
%TD*%
%TO.C,R225*%
X127950000Y-161500000D03*
X126050000Y-161500000D03*
%TD*%
D31*
%TO.C,R224*%
X97000000Y-166050000D03*
X97000000Y-167950000D03*
%TD*%
%TO.C,R223*%
X84500000Y-166400000D03*
X84500000Y-164500000D03*
%TD*%
D30*
%TO.C,R222*%
X81950000Y-142000000D03*
X80050000Y-142000000D03*
%TD*%
D31*
%TO.C,R221*%
X82500000Y-154950000D03*
X82500000Y-153050000D03*
%TD*%
%TO.C,R220*%
X121500000Y-164600000D03*
X121500000Y-166500000D03*
%TD*%
D30*
%TO.C,R219*%
X79950000Y-162000000D03*
X78050000Y-162000000D03*
%TD*%
%TO.C,R218*%
X74050000Y-162000000D03*
X75950000Y-162000000D03*
%TD*%
%TO.C,R217*%
X101000000Y-160000000D03*
X102900000Y-160000000D03*
%TD*%
%TO.C,R216*%
X115100000Y-155000000D03*
X117000000Y-155000000D03*
%TD*%
%TO.C,R215*%
X135450000Y-111500000D03*
X133550000Y-111500000D03*
%TD*%
%TO.C,R214*%
X133550000Y-117500000D03*
X135450000Y-117500000D03*
%TD*%
%TO.C,R213*%
X110050000Y-122000000D03*
X111950000Y-122000000D03*
%TD*%
%TO.C,R212*%
X97450000Y-121500000D03*
X95550000Y-121500000D03*
%TD*%
%TO.C,R211*%
X110050000Y-124500000D03*
X111950000Y-124500000D03*
%TD*%
%TO.C,R210*%
X97500000Y-124000000D03*
X95600000Y-124000000D03*
%TD*%
%TO.C,R209*%
X111950000Y-127000000D03*
X110050000Y-127000000D03*
%TD*%
D31*
%TO.C,R208*%
X120000000Y-111050000D03*
X120000000Y-112950000D03*
%TD*%
%TO.C,R207*%
X117500000Y-111050000D03*
X117500000Y-112950000D03*
%TD*%
D30*
%TO.C,R206*%
X95600000Y-126500000D03*
X97500000Y-126500000D03*
%TD*%
%TO.C,R205*%
X142450000Y-103500000D03*
X140550000Y-103500000D03*
%TD*%
%TO.C,R204*%
X50000000Y-77000000D03*
X48100000Y-77000000D03*
%TD*%
%TO.C,R203*%
X142450000Y-96500000D03*
X140550000Y-96500000D03*
%TD*%
D31*
%TO.C,R202*%
X123000000Y-112950000D03*
X123000000Y-111050000D03*
%TD*%
%TO.C,R201*%
X123000000Y-116950000D03*
X123000000Y-115050000D03*
%TD*%
%TO.C,L202*%
X139500000Y-110900000D03*
X139500000Y-109000000D03*
%TD*%
%TO.C,L201*%
X135500000Y-129950000D03*
X135500000Y-128050000D03*
%TD*%
D36*
%TO.C,J203*%
X135750000Y-125500000D03*
X142250000Y-125500000D03*
X139550000Y-118200000D03*
X142250000Y-118200000D03*
D27*
X134450000Y-121850000D03*
%TD*%
D36*
%TO.C,J202*%
X135700000Y-90650000D03*
X142200000Y-90650000D03*
X139500000Y-83350000D03*
X142200000Y-83350000D03*
D27*
X134400000Y-87000000D03*
%TD*%
D34*
%TO.C,J201*%
X116460000Y-89000000D03*
D35*
X119000000Y-89000000D03*
%TD*%
D20*
%TO.C,C216*%
X139500000Y-113000000D03*
X139500000Y-115000000D03*
%TD*%
%TO.C,C215*%
X143000000Y-115000000D03*
X143000000Y-113000000D03*
%TD*%
D23*
%TO.C,C214*%
X78500000Y-159000000D03*
X80500000Y-159000000D03*
%TD*%
%TO.C,C213*%
X74000000Y-159000000D03*
X76000000Y-159000000D03*
%TD*%
D20*
%TO.C,C211*%
X142500000Y-128000000D03*
X142500000Y-130000000D03*
%TD*%
%TO.C,C210*%
X132000000Y-120500000D03*
X132000000Y-122500000D03*
%TD*%
D23*
%TO.C,C209*%
X107500000Y-119000000D03*
X109500000Y-119000000D03*
%TD*%
%TO.C,C207*%
X89000000Y-98000000D03*
X87000000Y-98000000D03*
%TD*%
%TO.C,C206*%
X48000000Y-75000000D03*
X50000000Y-75000000D03*
%TD*%
D20*
%TO.C,C205*%
X127000000Y-104000000D03*
X127000000Y-106000000D03*
%TD*%
D23*
%TO.C,C204*%
X133000000Y-104000000D03*
X131000000Y-104000000D03*
%TD*%
%TO.C,C203*%
X130000000Y-158500000D03*
X132000000Y-158500000D03*
%TD*%
%TO.C,C202*%
X133000000Y-106000000D03*
X131000000Y-106000000D03*
%TD*%
%TO.C,C201*%
X126000000Y-158500000D03*
X128000000Y-158500000D03*
%TD*%
D37*
%TO.C,Y502*%
X79550000Y-74000000D03*
X75450000Y-74000000D03*
%TD*%
D38*
%TO.C,Y501*%
X132000000Y-75450000D03*
X132000000Y-79550000D03*
%TD*%
D39*
%TO.C,U503*%
X84900000Y-82750000D03*
X84900000Y-83250000D03*
X84900000Y-83750000D03*
X84900000Y-84250000D03*
X84900000Y-84750000D03*
X84900000Y-85250000D03*
D40*
X85600000Y-85950000D03*
X86100000Y-85950000D03*
X86600000Y-85950000D03*
X87100000Y-85950000D03*
X87600000Y-85950000D03*
X88100000Y-85950000D03*
D39*
X88800000Y-85250000D03*
X88800000Y-84750000D03*
X88800000Y-84250000D03*
X88800000Y-83750000D03*
X88800000Y-83250000D03*
X88800000Y-82750000D03*
D40*
X88100000Y-82050000D03*
X87600000Y-82050000D03*
X87100000Y-82050000D03*
X86600000Y-82050000D03*
X86100000Y-82050000D03*
X85600000Y-82050000D03*
D41*
X87500000Y-84650000D03*
X87500000Y-83350000D03*
X86200000Y-84650000D03*
X86200000Y-83350000D03*
%TD*%
D42*
%TO.C,U502*%
X114820000Y-75230000D03*
X114820000Y-75880000D03*
X114820000Y-76530000D03*
X114820000Y-77180000D03*
X114820000Y-77830000D03*
X114820000Y-78480000D03*
X114820000Y-79130000D03*
X114820000Y-79780000D03*
X114820000Y-80430000D03*
X114820000Y-81080000D03*
X114820000Y-81730000D03*
X114820000Y-82380000D03*
X114820000Y-83030000D03*
X114820000Y-83680000D03*
X120520000Y-83680000D03*
X120520000Y-83030000D03*
X120520000Y-82380000D03*
X120520000Y-81730000D03*
X120520000Y-81080000D03*
X120520000Y-80430000D03*
X120520000Y-79780000D03*
X120520000Y-79130000D03*
X120520000Y-78480000D03*
X120520000Y-77830000D03*
X120520000Y-77180000D03*
X120520000Y-76530000D03*
X120520000Y-75880000D03*
X120520000Y-75230000D03*
%TD*%
D43*
%TO.C,U101*%
X137900000Y-148050000D03*
X137900000Y-149000000D03*
X137900000Y-149950000D03*
X140100000Y-149950000D03*
X140100000Y-148050000D03*
X140100000Y-149000000D03*
%TD*%
D16*
%TO.C,TP402*%
X66000000Y-138500000D03*
%TD*%
%TO.C,TP401*%
X66000000Y-133500000D03*
%TD*%
D30*
%TO.C,TH401*%
X51000000Y-82000000D03*
X52900000Y-82000000D03*
%TD*%
%TO.C,R514*%
X81400000Y-84500000D03*
X79500000Y-84500000D03*
%TD*%
%TO.C,R513*%
X81450000Y-88500000D03*
X79550000Y-88500000D03*
%TD*%
%TO.C,R512*%
X79550000Y-80500000D03*
X81450000Y-80500000D03*
%TD*%
%TO.C,R511*%
X81450000Y-86500000D03*
X79550000Y-86500000D03*
%TD*%
%TO.C,R510*%
X81450000Y-90500000D03*
X79550000Y-90500000D03*
%TD*%
%TO.C,R509*%
X91550000Y-86000000D03*
X93450000Y-86000000D03*
%TD*%
%TO.C,R508*%
X93450000Y-90500000D03*
X91550000Y-90500000D03*
%TD*%
%TO.C,R507*%
X91550000Y-88500000D03*
X93450000Y-88500000D03*
%TD*%
%TO.C,R506*%
X91600000Y-80000000D03*
X93500000Y-80000000D03*
%TD*%
%TO.C,R505*%
X91600000Y-82000000D03*
X93500000Y-82000000D03*
%TD*%
%TO.C,R504*%
X131050000Y-82000000D03*
X132950000Y-82000000D03*
%TD*%
%TO.C,R503*%
X120950000Y-73000000D03*
X119050000Y-73000000D03*
%TD*%
%TO.C,R502*%
X110550000Y-87000000D03*
X112450000Y-87000000D03*
%TD*%
%TO.C,R501*%
X110550000Y-89000000D03*
X112450000Y-89000000D03*
%TD*%
%TO.C,R404*%
X65950000Y-157500000D03*
X64050000Y-157500000D03*
%TD*%
%TO.C,R403*%
X65900000Y-148000000D03*
X64000000Y-148000000D03*
%TD*%
D31*
%TO.C,R402*%
X63000000Y-167450000D03*
X63000000Y-165550000D03*
%TD*%
%TO.C,R401*%
X53000000Y-91500000D03*
X53000000Y-89600000D03*
%TD*%
D30*
%TO.C,R102*%
X141950000Y-134500000D03*
X140050000Y-134500000D03*
%TD*%
D31*
%TO.C,R101*%
X136000000Y-157550000D03*
X136000000Y-155650000D03*
%TD*%
D32*
%TO.C,Q403*%
X48950000Y-84500000D03*
X47050000Y-84500000D03*
X48000000Y-86500000D03*
%TD*%
%TO.C,Q402*%
X52950000Y-84500000D03*
X51050000Y-84500000D03*
X52000000Y-86500000D03*
%TD*%
%TO.C,Q401*%
X56950000Y-84500000D03*
X55050000Y-84500000D03*
X56000000Y-86500000D03*
%TD*%
D21*
%TO.C,L403*%
X50500000Y-132000000D03*
X50500000Y-120560000D03*
%TD*%
%TO.C,L402*%
X50500000Y-155000000D03*
X50500000Y-143560000D03*
%TD*%
D30*
%TO.C,L101*%
X139950000Y-146000000D03*
X138050000Y-146000000D03*
%TD*%
D44*
%TO.C,J501*%
X89800000Y-77850000D03*
X89150000Y-77850000D03*
X88500000Y-77850000D03*
X87850000Y-77850000D03*
X87200000Y-77850000D03*
D45*
X91000000Y-77850000D03*
X86000000Y-77850000D03*
D46*
X92000000Y-75150000D03*
X85000000Y-75150000D03*
%TD*%
D34*
%TO.C,J101*%
X142500000Y-159000000D03*
D35*
X142500000Y-156460000D03*
%TD*%
D19*
%TO.C,D101*%
X139500000Y-157550000D03*
X139500000Y-155450000D03*
%TD*%
D23*
%TO.C,C520*%
X81500000Y-82500000D03*
X79500000Y-82500000D03*
%TD*%
D20*
%TO.C,C519*%
X85500000Y-89000000D03*
X85500000Y-91000000D03*
%TD*%
D23*
%TO.C,C518*%
X81500000Y-78500000D03*
X79500000Y-78500000D03*
%TD*%
D20*
%TO.C,C517*%
X87500000Y-89000000D03*
X87500000Y-91000000D03*
%TD*%
%TO.C,C516*%
X73000000Y-75000000D03*
X73000000Y-73000000D03*
%TD*%
%TO.C,C515*%
X82000000Y-73000000D03*
X82000000Y-75000000D03*
%TD*%
D23*
%TO.C,C514*%
X122900000Y-79600000D03*
X124900000Y-79600000D03*
%TD*%
%TO.C,C513*%
X122900000Y-77500000D03*
X124900000Y-77500000D03*
%TD*%
%TO.C,C512*%
X122900000Y-82100000D03*
X124900000Y-82100000D03*
%TD*%
%TO.C,C511*%
X122900000Y-84100000D03*
X124900000Y-84100000D03*
%TD*%
%TO.C,C510*%
X123000000Y-73000000D03*
X125000000Y-73000000D03*
%TD*%
%TO.C,C509*%
X123000000Y-75000000D03*
X125000000Y-75000000D03*
%TD*%
%TO.C,C508*%
X122900000Y-86100000D03*
X124900000Y-86100000D03*
%TD*%
%TO.C,C507*%
X91500000Y-84000000D03*
X93500000Y-84000000D03*
%TD*%
%TO.C,C506*%
X110500000Y-81000000D03*
X112500000Y-81000000D03*
%TD*%
%TO.C,C505*%
X112500000Y-77000000D03*
X110500000Y-77000000D03*
%TD*%
%TO.C,C504*%
X112500000Y-73000000D03*
X110500000Y-73000000D03*
%TD*%
%TO.C,C503*%
X112500000Y-85000000D03*
X110500000Y-85000000D03*
%TD*%
%TO.C,C502*%
X110500000Y-83000000D03*
X112500000Y-83000000D03*
%TD*%
%TO.C,C501*%
X112500000Y-79000000D03*
X110500000Y-79000000D03*
%TD*%
D20*
%TO.C,C421*%
X50500000Y-125500000D03*
X50500000Y-127500000D03*
%TD*%
%TO.C,C419*%
X50500000Y-148000000D03*
X50500000Y-150000000D03*
%TD*%
D23*
%TO.C,C418*%
X64000000Y-162350000D03*
X66000000Y-162350000D03*
%TD*%
D20*
%TO.C,C417*%
X48000000Y-152500000D03*
X48000000Y-150500000D03*
%TD*%
%TO.C,C415*%
X51500000Y-163000000D03*
X51500000Y-161000000D03*
%TD*%
D23*
%TO.C,C411*%
X63000000Y-94000000D03*
X65000000Y-94000000D03*
%TD*%
%TO.C,C408*%
X61000000Y-86500000D03*
X59000000Y-86500000D03*
%TD*%
D20*
%TO.C,C406*%
X54000000Y-79000000D03*
X54000000Y-77000000D03*
%TD*%
D23*
%TO.C,C405*%
X51000000Y-89500000D03*
X49000000Y-89500000D03*
%TD*%
D20*
%TO.C,C404*%
X56000000Y-79000000D03*
X56000000Y-77000000D03*
%TD*%
D23*
%TO.C,C106*%
X138000000Y-141500000D03*
X136000000Y-141500000D03*
%TD*%
%TO.C,C105*%
X140000000Y-141500000D03*
X142000000Y-141500000D03*
%TD*%
D20*
%TO.C,C104*%
X136000000Y-146250000D03*
X136000000Y-144250000D03*
%TD*%
%TO.C,C103*%
X136000000Y-148000000D03*
X136000000Y-150000000D03*
%TD*%
%TO.C,C102*%
X142250000Y-148000000D03*
X142250000Y-150000000D03*
%TD*%
D23*
%TO.C,C101*%
X138000000Y-152000000D03*
X140000000Y-152000000D03*
%TD*%
M02*
