M48
; DRILL file {KiCad 5.1.6} date Tue Aug 25 13:31:39 2020
; FORMAT={-:-/ absolute / inch / decimal}
; #@! TF.CreationDate,2020-08-25T13:31:39-07:00
; #@! TF.GenerationSoftware,Kicad,Pcbnew,5.1.6
; #@! TF.FileFunction,Plated,1,2,PTH
FMAT,2
INCH
T1C0.0157
T2C0.0197
T3C0.0217
T4C0.0315
T5C0.0394
T6C0.0433
T7C0.0591
T8C0.0709
%
G90
G05
T1
X1.8524Y-3.3268
X1.8701Y-3.622
X1.8701Y-3.9173
X1.8701Y-4.252
X1.8701Y-4.4094
X1.8701Y-4.6063
X1.8701Y-4.8031
X1.8701Y-5.0
X1.8701Y-5.1969
X1.8701Y-5.3937
X1.8701Y-5.5906
X1.8701Y-6.0827
X1.8701Y-6.378
X1.8701Y-6.5748
X1.8898Y-2.9528
X1.8898Y-3.0315
X1.8898Y-5.9252
X1.9291Y-3.5236
X1.9685Y-3.8189
X1.9685Y-6.6535
X1.9882Y-4.5079
X1.9902Y-5.3931
X2.0079Y-3.3268
X2.0276Y-6.3386
X2.0315Y-6.5551
X2.0866Y-3.6004
X2.126Y-3.0315
X2.1654Y-3.2283
X2.1654Y-3.3268
X2.2047Y-3.0315
X2.3622Y-2.9331
X2.4803Y-3.7205
X2.4803Y-6.5177
X2.5394Y-4.2146
X2.5591Y-4.6063
X2.5591Y-4.685
X2.5984Y-4.3701
X2.5984Y-5.3543
X2.5984Y-5.8268
X2.6181Y-4.2126
X2.6378Y-3.7008
X2.6378Y-4.8819
X2.6575Y-4.4882
X2.6575Y-4.6063
X2.6602Y-4.0931
X2.6772Y-5.9646
X2.6772Y-6.1417
X2.6772Y-6.4173
X2.6969Y-4.0748
X2.7302Y-3.7531
X2.7559Y-5.1969
X2.7559Y-5.3937
X2.7559Y-5.5906
X2.7559Y-5.7874
X2.7559Y-6.5748
X2.7783Y-5.987
X2.7953Y-3.3465
X2.7953Y-3.435
X2.7953Y-3.7598
X2.7953Y-5.9252
X2.8045Y-4.679
X2.8346Y-6.1417
X2.8543Y-3.0709
X2.874Y-2.9528
X2.8937Y-3.7598
X2.9035Y-3.964
X2.9134Y-3.2283
X2.9331Y-3.8386
X2.9402Y-3.3831
X2.9528Y-6.5748
X2.9646Y-3.752
X2.9724Y-4.6063
X2.9724Y-4.7244
X2.9921Y-3.622
X2.9921Y-4.311
X3.0002Y-4.1531
X3.0028Y-3.9854
X3.0118Y-3.4449
X3.0224Y-6.0315
X3.0315Y-5.0
X3.0709Y-4.4882
X3.1028Y-3.9646
X3.1102Y-5.1575
X3.1102Y-5.315
X3.1102Y-5.7874
X3.1299Y-3.0906
X3.1299Y-3.248
X3.1302Y-3.1731
X3.1496Y-3.6417
X3.1496Y-4.311
X3.1535Y-4.6024
X3.1693Y-4.0945
X3.2035Y-3.4084
X3.2047Y-3.3268
X3.2295Y-4.685
X3.248Y-3.563
X3.2677Y-4.8031
X3.2682Y-3.3853
X3.2751Y-6.1738
X3.3059Y-4.0736
X3.3069Y-3.3779
X3.3268Y-4.4094
X3.3275Y-5.9634
X3.3302Y-4.8131
X3.3402Y-5.1731
X3.3465Y-4.1732
X3.3465Y-6.6732
X3.3661Y-3.4449
X3.3661Y-3.5827
X3.3853Y-6.1457
X3.3858Y-5.9449
X3.4058Y-3.3435
X3.4449Y-3.3268
X3.4449Y-3.5827
X3.4449Y-4.2126
X3.4449Y-4.7244
X3.4843Y-3.872
X3.4843Y-4.0354
X3.5039Y-3.7795
X3.5198Y-3.2443
X3.5236Y-4.5276
X3.5433Y-4.2126
X3.5433Y-4.9016
X3.5433Y-5.5906
X3.5433Y-5.7874
X3.5433Y-6.1811
X3.5433Y-6.4764
X3.563Y-4.4094
X3.5765Y-5.9825
X3.6024Y-3.3071
X3.622Y-4.5276
X3.6348Y-3.9291
X3.6614Y-4.4094
X3.6641Y-4.4841
X3.6811Y-3.3071
X3.6811Y-3.3858
X3.6811Y-3.4547
X3.6862Y-2.9972
X3.7008Y-3.1496
X3.7008Y-4.7244
X3.7154Y-3.0264
X3.7202Y-5.9031
X3.7205Y-3.8976
X3.7402Y-4.1142
X3.7402Y-4.2126
X3.7402Y-6.1811
X3.7598Y-3.4205
X3.7598Y-3.4618
X3.7598Y-4.9803
X3.7785Y-5.8931
X3.7795Y-3.2677
X3.7795Y-3.8976
X3.7992Y-6.0827
X3.8114Y-4.6382
X3.8386Y-6.6732
X3.8583Y-3.8976
X3.8976Y-3.5236
X3.9151Y-5.7334
X3.937Y-2.9331
X3.937Y-3.0315
X3.937Y-4.3701
X3.937Y-4.626
X3.937Y-4.7244
X3.937Y-5.5906
X3.9445Y-5.0862
X3.9764Y-4.2126
X3.9764Y-4.9606
X4.0157Y-3.2283
X4.0354Y-3.9173
X4.0354Y-3.9764
X4.0354Y-5.7874
X4.0354Y-6.4764
X4.0945Y-4.9213
X4.1339Y-2.9331
X4.1339Y-3.0315
X4.1339Y-3.5827
X4.1339Y-3.9764
X4.1339Y-5.5906
X4.2323Y-3.9173
X4.2323Y-4.0551
X4.2323Y-4.3701
X4.2323Y-6.0827
X4.2717Y-3.7431
X4.2913Y-3.1496
X4.2913Y-3.5827
X4.311Y-4.685
X4.3307Y-5.5906
X4.3307Y-5.8661
X4.3307Y-5.9843
X4.3307Y-6.2795
X4.3307Y-6.6732
X4.3504Y-2.9331
X4.3504Y-3.0315
X4.3504Y-3.1102
X4.3504Y-3.3465
X4.3504Y-4.5866
X4.3524Y-3.4252
X4.3524Y-3.5039
X4.4094Y-4.5866
X4.4094Y-5.0
X4.4167Y-3.7723
X4.4291Y-3.9764
X4.4291Y-4.0551
X4.4291Y-6.0827
X4.4561Y-3.8116
X4.4685Y-3.4449
X4.4802Y-4.4231
X4.4853Y-4.4826
X4.5102Y-4.6131
X4.5127Y-4.3896
X4.5276Y-5.8661
X4.5276Y-5.9843
X4.5276Y-6.4764
X4.5472Y-3.878
X4.5472Y-4.1142
X4.5473Y-5.656
X4.5669Y-3.0709
X4.5669Y-3.248
X4.5802Y-4.6731
X4.5837Y-5.6396
X4.5866Y-3.1693
X4.6063Y-3.878
X4.626Y-6.2795
X4.6457Y-4.0945
X4.685Y-3.0118
X4.685Y-3.1299
X4.7047Y-5.4134
X4.7244Y-4.0157
X4.7244Y-4.8031
X4.7244Y-5.689
X4.7638Y-3.937
X4.7638Y-4.5079
X4.7901Y-3.2205
X4.8031Y-5.0787
X4.8093Y-6.1924
X4.8228Y-4.685
X4.8425Y-3.0512
X4.8425Y-3.1299
X4.8425Y-4.3701
X4.8425Y-5.8268
X4.8819Y-4.0945
X4.9213Y-2.9528
X4.9213Y-3.2283
X4.9213Y-3.3071
X4.9213Y-3.9764
X4.9213Y-4.8031
X4.9412Y-5.6489
X4.9665Y-5.537
X5.0Y-4.0945
X5.0197Y-3.5236
X5.0197Y-3.9173
X5.0394Y-6.2402
X5.1181Y-3.0906
X5.1181Y-3.4252
X5.1181Y-3.9764
X5.1181Y-5.4921
X5.1181Y-6.2402
X5.2165Y-3.8189
X5.2165Y-5.0
X5.2165Y-6.5748
X5.2362Y-4.0945
X5.2362Y-4.1732
X5.2559Y-4.3898
X5.2559Y-4.4685
X5.2559Y-6.0236
X5.315Y-3.8189
X5.315Y-5.3937
X5.3346Y-3.563
X5.3346Y-5.9843
X5.3543Y-4.8425
X5.3543Y-5.5709
X5.3543Y-5.6693
X5.3543Y-5.9055
X5.3543Y-6.122
X5.374Y-3.4055
X5.4134Y-3.2283
X5.4134Y-3.622
X5.4134Y-3.7205
X5.4134Y-4.0157
X5.4134Y-5.2953
X5.4921Y-3.2874
X5.4921Y-3.4646
X5.4921Y-4.5276
X5.4921Y-4.6457
X5.4921Y-5.0394
X5.5118Y-4.8031
X5.5118Y-5.2953
X5.5118Y-5.9055
X5.5118Y-5.9843
X5.5315Y-3.7992
X5.5315Y-4.0748
X5.5709Y-5.5709
X5.6102Y-4.2126
X5.6102Y-5.689
X5.6602Y-4.9131
X5.6702Y-3.5431
X5.6802Y-4.6731
T4
X3.9248Y-6.1902
X4.0248Y-6.1902
X4.1248Y-6.1902
X4.2248Y-6.1902
X3.435Y-3.6815
X3.435Y-4.2815
X3.535Y-3.6815
X3.535Y-4.2815
X3.635Y-3.6815
X3.635Y-4.2815
X3.735Y-3.6815
X3.735Y-4.2815
X3.835Y-3.6815
X3.835Y-4.2815
X3.935Y-3.6815
X3.935Y-4.2815
X4.035Y-3.6815
X4.035Y-4.2815
X4.135Y-3.6815
X4.135Y-4.2815
X4.235Y-3.6815
X4.235Y-4.2815
X4.335Y-3.6815
X4.335Y-4.2815
X4.435Y-3.6815
X4.435Y-4.2815
X4.535Y-3.6815
X4.535Y-4.2815
X4.635Y-3.6815
X4.635Y-4.2815
X4.735Y-3.6815
X4.735Y-4.2815
X4.835Y-3.6815
X4.835Y-4.2815
X4.935Y-3.6815
X4.935Y-4.2815
X5.035Y-3.6815
X5.035Y-4.2815
X5.135Y-3.6815
X5.135Y-4.2815
X5.235Y-3.6815
X5.235Y-4.2815
X5.335Y-3.6815
X5.335Y-4.2815
T5
X3.248Y-3.6913
X3.248Y-3.7913
X3.248Y-3.8913
X3.248Y-3.9913
X3.248Y-4.0913
X3.248Y-4.1913
X3.248Y-4.2913
X2.9331Y-6.122
X2.9331Y-6.6929
X3.0315Y-6.122
X3.1299Y-6.122
X3.1315Y-6.6929
X5.6102Y-6.1598
X5.6102Y-6.2598
X4.585Y-3.5039
X4.685Y-3.5039
X4.9803Y-6.0925
X4.9803Y-6.6634
X5.0787Y-6.0925
X5.1772Y-6.0925
X5.1787Y-6.6634
T6
X4.9213Y-5.7087
X4.9213Y-5.8858
X5.1772Y-5.7087
X5.1772Y-5.8858
X4.9213Y-5.2362
X4.9213Y-5.4134
X5.1772Y-5.2362
X5.1772Y-5.4134
X3.4449Y-6.4173
X3.4449Y-6.5945
X3.7008Y-6.4173
X3.7008Y-6.5945
X3.937Y-6.4173
X3.937Y-6.5945
X4.1929Y-6.4173
X4.1929Y-6.5945
X2.9921Y-5.7087
X2.9921Y-5.8858
X3.248Y-5.7087
X3.248Y-5.8858
X4.4291Y-6.4173
X4.4291Y-6.5945
X4.685Y-6.4173
X4.685Y-6.5945
X2.9921Y-5.2362
X2.9921Y-5.4134
X3.248Y-5.2362
X3.248Y-5.4134
T7
X5.2913Y-3.4252
X5.2933Y-4.7972
T8
X1.8724Y-3.2087
X2.3228Y-3.2087
X1.9882Y-5.652
X1.9882Y-6.1024
X1.9882Y-4.7465
X1.9882Y-5.1969
T2
G00X3.3465Y-2.9459
M15
G01X3.3465Y-2.9715
M16
G05
G00X3.622Y-2.9459
M15
G01X3.622Y-2.9715
M16
G05
T3
G00X3.3917Y-3.065
M15
G01X3.3799Y-3.065
M16
G05
G00X3.5886Y-3.065
M15
G01X3.5768Y-3.065
M16
G05
T7
G00X4.8622Y-6.3661
M15
G01X4.8622Y-6.4094
M16
G05
G00X5.2953Y-6.3681
M15
G01X5.2953Y-6.4075
M16
G05
G00X2.815Y-6.3957
M15
G01X2.815Y-6.439
M16
G05
G00X3.248Y-6.3976
M15
G01X3.248Y-6.437
M16
G05
T0
M30
