%TF.GenerationSoftware,KiCad,Pcbnew,5.1.6*%
%TF.CreationDate,2020-08-25T15:19:02-07:00*%
%TF.ProjectId,uSDX,75534458-2e6b-4696-9361-645f70636258,2.0.3*%
%TF.SameCoordinates,Original*%
%TF.FileFunction,Other,User*%
%FSLAX46Y46*%
G04 Gerber Fmt 4.6, Leading zero omitted, Abs format (unit mm)*
G04 Created by KiCad (PCBNEW 5.1.6) date 2020-08-25 15:19:02*
%MOMM*%
%LPD*%
G01*
G04 APERTURE LIST*
%ADD10C,0.050000*%
G04 APERTURE END LIST*
D10*
%TO.C,U304*%
X72200000Y-113270000D02*
X66800000Y-113270000D01*
X72200000Y-120730000D02*
X66800000Y-120730000D01*
X72200000Y-113270000D02*
X72200000Y-120730000D01*
X66800000Y-113270000D02*
X66800000Y-120730000D01*
%TO.C,U202*%
X100270000Y-121300000D02*
X100270000Y-126700000D01*
X107730000Y-121300000D02*
X107730000Y-126700000D01*
X100270000Y-121300000D02*
X107730000Y-121300000D01*
X100270000Y-126700000D02*
X107730000Y-126700000D01*
%TO.C,U305*%
X82700000Y-113270000D02*
X77300000Y-113270000D01*
X82700000Y-120730000D02*
X77300000Y-120730000D01*
X82700000Y-113270000D02*
X82700000Y-120730000D01*
X77300000Y-113270000D02*
X77300000Y-120730000D01*
%TO.C,U201*%
X85700000Y-109800000D02*
X137050000Y-109800000D01*
X137050000Y-109800000D02*
X137050000Y-92450000D01*
X137050000Y-92450000D02*
X85700000Y-92450000D01*
X85700000Y-92450000D02*
X85700000Y-109800000D01*
%TO.C,TP306*%
X70000000Y-98500000D02*
G75*
G03*
X70000000Y-98500000I-1000000J0D01*
G01*
%TO.C,U501*%
X105700000Y-80850000D02*
X98300000Y-80850000D01*
X105700000Y-90150000D02*
X98300000Y-90150000D01*
X98300000Y-90150000D02*
X98300000Y-80850000D01*
X105700000Y-90150000D02*
X105700000Y-80850000D01*
%TO.C,H104*%
X144550000Y-167000000D02*
G75*
G03*
X144550000Y-167000000I-4550000J0D01*
G01*
%TO.C,H102*%
X71550000Y-77000000D02*
G75*
G03*
X71550000Y-77000000I-4550000J0D01*
G01*
%TO.C,H101*%
X144550000Y-77000000D02*
G75*
G03*
X144550000Y-77000000I-4550000J0D01*
G01*
%TO.C,TP202*%
X143000000Y-109500000D02*
G75*
G03*
X143000000Y-109500000I-1000000J0D01*
G01*
%TO.C,D208*%
X132800000Y-112750000D02*
X136200000Y-112750000D01*
X136200000Y-112750000D02*
X136200000Y-116250000D01*
X136200000Y-116250000D02*
X132800000Y-116250000D01*
X132800000Y-116250000D02*
X132800000Y-112750000D01*
%TO.C,C305*%
X74620000Y-117750000D02*
X74620000Y-114250000D01*
X74620000Y-117750000D02*
X76370000Y-117750000D01*
X76370000Y-114250000D02*
X74620000Y-114250000D01*
X76370000Y-114250000D02*
X76370000Y-117750000D01*
%TO.C,U203*%
X108160000Y-158480000D02*
X98840000Y-158480000D01*
X98840000Y-158480000D02*
X98840000Y-155980000D01*
X98840000Y-155980000D02*
X108160000Y-155980000D01*
X108160000Y-155980000D02*
X108160000Y-158480000D01*
%TO.C,D102*%
X136700000Y-154750000D02*
X133300000Y-154750000D01*
X133300000Y-154750000D02*
X133300000Y-151250000D01*
X133300000Y-151250000D02*
X136700000Y-151250000D01*
X136700000Y-151250000D02*
X136700000Y-154750000D01*
%TO.C,C414*%
X67130000Y-154250000D02*
X67130000Y-150750000D01*
X67130000Y-154250000D02*
X68880000Y-154250000D01*
X68880000Y-150750000D02*
X67130000Y-150750000D01*
X68880000Y-150750000D02*
X68880000Y-154250000D01*
%TO.C,C416*%
X63250000Y-142630000D02*
X66750000Y-142630000D01*
X63250000Y-142630000D02*
X63250000Y-144380000D01*
X66750000Y-144380000D02*
X66750000Y-142630000D01*
X66750000Y-144380000D02*
X63250000Y-144380000D01*
%TO.C,Q404*%
X66700000Y-150750000D02*
X66700000Y-154250000D01*
X63300000Y-150750000D02*
X66700000Y-150750000D01*
X63300000Y-154250000D02*
X63300000Y-150750000D01*
X66700000Y-154250000D02*
X63300000Y-154250000D01*
%TO.C,C422*%
X51370000Y-113750000D02*
X51370000Y-117250000D01*
X51370000Y-113750000D02*
X49620000Y-113750000D01*
X49620000Y-117250000D02*
X51370000Y-117250000D01*
X49620000Y-117250000D02*
X49620000Y-113750000D01*
%TO.C,C420*%
X51370000Y-136250000D02*
X51370000Y-139750000D01*
X51370000Y-136250000D02*
X49620000Y-136250000D01*
X49620000Y-139750000D02*
X51370000Y-139750000D01*
X49620000Y-139750000D02*
X49620000Y-136250000D01*
%TO.C,D402*%
X54200000Y-164750000D02*
X54200000Y-168250000D01*
X50800000Y-164750000D02*
X54200000Y-164750000D01*
X50800000Y-168250000D02*
X50800000Y-164750000D01*
X54200000Y-168250000D02*
X50800000Y-168250000D01*
%TO.C,U302*%
X70350000Y-94300000D02*
X70350000Y-101700000D01*
X79650000Y-94300000D02*
X79650000Y-101700000D01*
X79650000Y-101700000D02*
X70350000Y-101700000D01*
X79650000Y-94300000D02*
X70350000Y-94300000D01*
%TO.C,U301*%
X67750000Y-102800000D02*
X67750000Y-110200000D01*
X78250000Y-102800000D02*
X78250000Y-110200000D01*
X78250000Y-110200000D02*
X67750000Y-110200000D01*
X78250000Y-102800000D02*
X67750000Y-102800000D01*
%TO.C,SW209*%
X133000000Y-131750000D02*
X133000000Y-138750000D01*
X132750000Y-139000000D02*
X123750000Y-139000000D01*
X123500000Y-138750000D02*
X123500000Y-131750000D01*
X123750000Y-131500000D02*
X132750000Y-131500000D01*
X123500000Y-139000000D02*
X123750000Y-139000000D01*
X123500000Y-138750000D02*
X123500000Y-139000000D01*
X123500000Y-131500000D02*
X123750000Y-131500000D01*
X123500000Y-131750000D02*
X123500000Y-131500000D01*
X133000000Y-131500000D02*
X133000000Y-131750000D01*
X132750000Y-131500000D02*
X133000000Y-131500000D01*
X133000000Y-139000000D02*
X133000000Y-138750000D01*
X132750000Y-139000000D02*
X133000000Y-139000000D01*
%TO.C,SW208*%
X133000000Y-143750000D02*
X133000000Y-150750000D01*
X132750000Y-151000000D02*
X123750000Y-151000000D01*
X123500000Y-150750000D02*
X123500000Y-143750000D01*
X123750000Y-143500000D02*
X132750000Y-143500000D01*
X123500000Y-151000000D02*
X123750000Y-151000000D01*
X123500000Y-150750000D02*
X123500000Y-151000000D01*
X123500000Y-143500000D02*
X123750000Y-143500000D01*
X123500000Y-143750000D02*
X123500000Y-143500000D01*
X133000000Y-143500000D02*
X133000000Y-143750000D01*
X132750000Y-143500000D02*
X133000000Y-143500000D01*
X133000000Y-151000000D02*
X133000000Y-150750000D01*
X132750000Y-151000000D02*
X133000000Y-151000000D01*
%TO.C,SW207*%
X120500000Y-161750000D02*
X120500000Y-168750000D01*
X120250000Y-169000000D02*
X111250000Y-169000000D01*
X111000000Y-168750000D02*
X111000000Y-161750000D01*
X111250000Y-161500000D02*
X120250000Y-161500000D01*
X111000000Y-169000000D02*
X111250000Y-169000000D01*
X111000000Y-168750000D02*
X111000000Y-169000000D01*
X111000000Y-161500000D02*
X111250000Y-161500000D01*
X111000000Y-161750000D02*
X111000000Y-161500000D01*
X120500000Y-161500000D02*
X120500000Y-161750000D01*
X120250000Y-161500000D02*
X120500000Y-161500000D01*
X120500000Y-169000000D02*
X120500000Y-168750000D01*
X120250000Y-169000000D02*
X120500000Y-169000000D01*
%TO.C,SW206*%
X108000000Y-161750000D02*
X108000000Y-168750000D01*
X107750000Y-169000000D02*
X98750000Y-169000000D01*
X98500000Y-168750000D02*
X98500000Y-161750000D01*
X98750000Y-161500000D02*
X107750000Y-161500000D01*
X98500000Y-169000000D02*
X98750000Y-169000000D01*
X98500000Y-168750000D02*
X98500000Y-169000000D01*
X98500000Y-161500000D02*
X98750000Y-161500000D01*
X98500000Y-161750000D02*
X98500000Y-161500000D01*
X108000000Y-161500000D02*
X108000000Y-161750000D01*
X107750000Y-161500000D02*
X108000000Y-161500000D01*
X108000000Y-169000000D02*
X108000000Y-168750000D01*
X107750000Y-169000000D02*
X108000000Y-169000000D01*
%TO.C,SW205*%
X95500000Y-161750000D02*
X95500000Y-168750000D01*
X95250000Y-169000000D02*
X86250000Y-169000000D01*
X86000000Y-168750000D02*
X86000000Y-161750000D01*
X86250000Y-161500000D02*
X95250000Y-161500000D01*
X86000000Y-169000000D02*
X86250000Y-169000000D01*
X86000000Y-168750000D02*
X86000000Y-169000000D01*
X86000000Y-161500000D02*
X86250000Y-161500000D01*
X86000000Y-161750000D02*
X86000000Y-161500000D01*
X95500000Y-161500000D02*
X95500000Y-161750000D01*
X95250000Y-161500000D02*
X95500000Y-161500000D01*
X95500000Y-169000000D02*
X95500000Y-168750000D01*
X95250000Y-169000000D02*
X95500000Y-169000000D01*
%TO.C,SW204*%
X84000000Y-143750000D02*
X84000000Y-150750000D01*
X83750000Y-151000000D02*
X74750000Y-151000000D01*
X74500000Y-150750000D02*
X74500000Y-143750000D01*
X74750000Y-143500000D02*
X83750000Y-143500000D01*
X74500000Y-151000000D02*
X74750000Y-151000000D01*
X74500000Y-150750000D02*
X74500000Y-151000000D01*
X74500000Y-143500000D02*
X74750000Y-143500000D01*
X74500000Y-143750000D02*
X74500000Y-143500000D01*
X84000000Y-143500000D02*
X84000000Y-143750000D01*
X83750000Y-143500000D02*
X84000000Y-143500000D01*
X84000000Y-151000000D02*
X84000000Y-150750000D01*
X83750000Y-151000000D02*
X84000000Y-151000000D01*
%TO.C,SW203*%
X84000000Y-131750000D02*
X84000000Y-138750000D01*
X83750000Y-139000000D02*
X74750000Y-139000000D01*
X74500000Y-138750000D02*
X74500000Y-131750000D01*
X74750000Y-131500000D02*
X83750000Y-131500000D01*
X74500000Y-139000000D02*
X74750000Y-139000000D01*
X74500000Y-138750000D02*
X74500000Y-139000000D01*
X74500000Y-131500000D02*
X74750000Y-131500000D01*
X74500000Y-131750000D02*
X74500000Y-131500000D01*
X84000000Y-131500000D02*
X84000000Y-131750000D01*
X83750000Y-131500000D02*
X84000000Y-131500000D01*
X84000000Y-139000000D02*
X84000000Y-138750000D01*
X83750000Y-139000000D02*
X84000000Y-139000000D01*
%TO.C,RV301*%
X72080000Y-88650000D02*
X72080000Y-83350000D01*
X67030000Y-88650000D02*
X72080000Y-88650000D01*
X67030000Y-83350000D02*
X67030000Y-88650000D01*
X72080000Y-83350000D02*
X67030000Y-83350000D01*
%TO.C,R232*%
X122050000Y-138400000D02*
X118950000Y-138400000D01*
X122050000Y-138400000D02*
X122050000Y-136600000D01*
X118950000Y-136600000D02*
X118950000Y-138400000D01*
X118950000Y-136600000D02*
X122050000Y-136600000D01*
%TO.C,R231*%
X125050000Y-142400000D02*
X121950000Y-142400000D01*
X125050000Y-142400000D02*
X125050000Y-140600000D01*
X121950000Y-140600000D02*
X121950000Y-142400000D01*
X121950000Y-140600000D02*
X125050000Y-140600000D01*
%TO.C,R230*%
X120950000Y-168600000D02*
X124050000Y-168600000D01*
X120950000Y-168600000D02*
X120950000Y-170400000D01*
X124050000Y-170400000D02*
X124050000Y-168600000D01*
X124050000Y-170400000D02*
X120950000Y-170400000D01*
%TO.C,R229*%
X110400000Y-165450000D02*
X110400000Y-168550000D01*
X110400000Y-165450000D02*
X108600000Y-165450000D01*
X108600000Y-168550000D02*
X110400000Y-168550000D01*
X108600000Y-168550000D02*
X108600000Y-165450000D01*
%TO.C,R228*%
X74450000Y-141100000D02*
X77550000Y-141100000D01*
X74450000Y-141100000D02*
X74450000Y-142900000D01*
X77550000Y-142900000D02*
X77550000Y-141100000D01*
X77550000Y-142900000D02*
X74450000Y-142900000D01*
%TO.C,R227*%
X124550000Y-129900000D02*
X121450000Y-129900000D01*
X124550000Y-129900000D02*
X124550000Y-128100000D01*
X121450000Y-128100000D02*
X121450000Y-129900000D01*
X121450000Y-128100000D02*
X124550000Y-128100000D01*
%TO.C,D401*%
X62300000Y-92250000D02*
X62300000Y-88750000D01*
X65700000Y-92250000D02*
X62300000Y-92250000D01*
X65700000Y-88750000D02*
X65700000Y-92250000D01*
X62300000Y-88750000D02*
X65700000Y-88750000D01*
%TO.C,D301*%
X62250000Y-83300000D02*
X65750000Y-83300000D01*
X62250000Y-86700000D02*
X62250000Y-83300000D01*
X65750000Y-86700000D02*
X62250000Y-86700000D01*
X65750000Y-83300000D02*
X65750000Y-86700000D01*
%TO.C,D207*%
X109750000Y-102300000D02*
X113250000Y-102300000D01*
X109750000Y-105700000D02*
X109750000Y-102300000D01*
X113250000Y-105700000D02*
X109750000Y-105700000D01*
X113250000Y-102300000D02*
X113250000Y-105700000D01*
%TO.C,D206*%
X104750000Y-102300000D02*
X108250000Y-102300000D01*
X104750000Y-105700000D02*
X104750000Y-102300000D01*
X108250000Y-105700000D02*
X104750000Y-105700000D01*
X108250000Y-102300000D02*
X108250000Y-105700000D01*
%TO.C,D205*%
X118250000Y-99300000D02*
X121750000Y-99300000D01*
X118250000Y-102700000D02*
X118250000Y-99300000D01*
X121750000Y-102700000D02*
X118250000Y-102700000D01*
X121750000Y-99300000D02*
X121750000Y-102700000D01*
%TO.C,D204*%
X115250000Y-103300000D02*
X118750000Y-103300000D01*
X115250000Y-106700000D02*
X115250000Y-103300000D01*
X118750000Y-106700000D02*
X115250000Y-106700000D01*
X118750000Y-103300000D02*
X118750000Y-106700000D01*
%TO.C,D203*%
X143450000Y-101350000D02*
X139550000Y-101350000D01*
X143450000Y-99650000D02*
X143450000Y-101350000D01*
X139550000Y-99650000D02*
X143450000Y-99650000D01*
X139550000Y-101350000D02*
X139550000Y-99650000D01*
%TO.C,D202*%
X143450000Y-94350000D02*
X139550000Y-94350000D01*
X143450000Y-92650000D02*
X143450000Y-94350000D01*
X139550000Y-92650000D02*
X143450000Y-92650000D01*
X139550000Y-94350000D02*
X139550000Y-92650000D01*
%TO.C,D201*%
X121250000Y-103300000D02*
X124750000Y-103300000D01*
X121250000Y-106700000D02*
X121250000Y-103300000D01*
X124750000Y-106700000D02*
X121250000Y-106700000D01*
X124750000Y-103300000D02*
X124750000Y-106700000D01*
%TO.C,D104*%
X142950000Y-137850000D02*
X139050000Y-137850000D01*
X142950000Y-136150000D02*
X142950000Y-137850000D01*
X139050000Y-136150000D02*
X142950000Y-136150000D01*
X139050000Y-137850000D02*
X139050000Y-136150000D01*
%TO.C,D103*%
X135950000Y-158650000D02*
X139850000Y-158650000D01*
X135950000Y-160350000D02*
X135950000Y-158650000D01*
X139850000Y-160350000D02*
X135950000Y-160350000D01*
X139850000Y-158650000D02*
X139850000Y-160350000D01*
%TO.C,C212*%
X140370000Y-127250000D02*
X140370000Y-130750000D01*
X140370000Y-127250000D02*
X138620000Y-127250000D01*
X138620000Y-130750000D02*
X140370000Y-130750000D01*
X138620000Y-130750000D02*
X138620000Y-127250000D01*
%TO.C,C208*%
X86250000Y-95130000D02*
X89750000Y-95130000D01*
X86250000Y-95130000D02*
X86250000Y-96880000D01*
X89750000Y-96880000D02*
X89750000Y-95130000D01*
X89750000Y-96880000D02*
X86250000Y-96880000D01*
%TO.C,TP310*%
X87000000Y-117000000D02*
G75*
G03*
X87000000Y-117000000I-1000000J0D01*
G01*
%TO.C,R307*%
X82100000Y-128400000D02*
X79000000Y-128400000D01*
X82100000Y-128400000D02*
X82100000Y-126600000D01*
X79000000Y-126600000D02*
X79000000Y-128400000D01*
X79000000Y-126600000D02*
X82100000Y-126600000D01*
%TO.C,R306*%
X71100000Y-128400000D02*
X68000000Y-128400000D01*
X71100000Y-128400000D02*
X71100000Y-126600000D01*
X68000000Y-126600000D02*
X68000000Y-128400000D01*
X68000000Y-126600000D02*
X71100000Y-126600000D01*
%TO.C,R305*%
X82050000Y-124400000D02*
X78950000Y-124400000D01*
X82050000Y-124400000D02*
X82050000Y-122600000D01*
X78950000Y-122600000D02*
X78950000Y-124400000D01*
X78950000Y-122600000D02*
X82050000Y-122600000D01*
%TO.C,R304*%
X71100000Y-124400000D02*
X68000000Y-124400000D01*
X71100000Y-124400000D02*
X71100000Y-122600000D01*
X68000000Y-122600000D02*
X68000000Y-124400000D01*
X68000000Y-122600000D02*
X71100000Y-122600000D01*
%TO.C,R303*%
X70900000Y-89950000D02*
X70900000Y-93050000D01*
X70900000Y-89950000D02*
X69100000Y-89950000D01*
X69100000Y-93050000D02*
X70900000Y-93050000D01*
X69100000Y-93050000D02*
X69100000Y-89950000D01*
%TO.C,R302*%
X67400000Y-106500000D02*
X67400000Y-109600000D01*
X67400000Y-106500000D02*
X65600000Y-106500000D01*
X65600000Y-109600000D02*
X67400000Y-109600000D01*
X65600000Y-109600000D02*
X65600000Y-106500000D01*
%TO.C,R301*%
X63600000Y-109550000D02*
X63600000Y-106450000D01*
X63600000Y-109550000D02*
X65400000Y-109550000D01*
X65400000Y-106450000D02*
X63600000Y-106450000D01*
X65400000Y-106450000D02*
X65400000Y-109550000D01*
%TO.C,J301*%
X84300000Y-110800000D02*
X84300000Y-91950000D01*
X84300000Y-91950000D02*
X80700000Y-91950000D01*
X80700000Y-91950000D02*
X80700000Y-110800000D01*
X80700000Y-110800000D02*
X84300000Y-110800000D01*
%TO.C,FB301*%
X85400000Y-119400000D02*
X85400000Y-122500000D01*
X85400000Y-119400000D02*
X83600000Y-119400000D01*
X83600000Y-122500000D02*
X85400000Y-122500000D01*
X83600000Y-122500000D02*
X83600000Y-119400000D01*
%TO.C,C309*%
X85380000Y-111250000D02*
X85380000Y-114750000D01*
X85380000Y-111250000D02*
X83630000Y-111250000D01*
X83630000Y-114750000D02*
X85380000Y-114750000D01*
X83630000Y-114750000D02*
X83630000Y-111250000D01*
%TO.C,C308*%
X78750000Y-124620000D02*
X82250000Y-124620000D01*
X78750000Y-124620000D02*
X78750000Y-126370000D01*
X82250000Y-126370000D02*
X82250000Y-124620000D01*
X82250000Y-126370000D02*
X78750000Y-126370000D01*
%TO.C,C307*%
X67750000Y-124620000D02*
X71250000Y-124620000D01*
X67750000Y-124620000D02*
X67750000Y-126370000D01*
X71250000Y-126370000D02*
X71250000Y-124620000D01*
X71250000Y-126370000D02*
X67750000Y-126370000D01*
%TO.C,C304*%
X65880000Y-114250000D02*
X65880000Y-117750000D01*
X65880000Y-114250000D02*
X64130000Y-114250000D01*
X64130000Y-117750000D02*
X65880000Y-117750000D01*
X64130000Y-117750000D02*
X64130000Y-114250000D01*
%TO.C,C303*%
X76380000Y-119250000D02*
X76380000Y-122750000D01*
X76380000Y-119250000D02*
X74630000Y-119250000D01*
X74630000Y-122750000D02*
X76380000Y-122750000D01*
X74630000Y-122750000D02*
X74630000Y-119250000D01*
%TO.C,C302*%
X65880000Y-118250000D02*
X65880000Y-121750000D01*
X65880000Y-118250000D02*
X64130000Y-118250000D01*
X64130000Y-121750000D02*
X65880000Y-121750000D01*
X64130000Y-121750000D02*
X64130000Y-118250000D01*
%TO.C,C301*%
X71120000Y-93250000D02*
X71120000Y-89750000D01*
X71120000Y-93250000D02*
X72870000Y-93250000D01*
X72870000Y-89750000D02*
X71120000Y-89750000D01*
X72870000Y-89750000D02*
X72870000Y-93250000D01*
%TO.C,TP201*%
X137000000Y-132000000D02*
G75*
G03*
X137000000Y-132000000I-1000000J0D01*
G01*
%TO.C,R226*%
X129450000Y-160600000D02*
X132550000Y-160600000D01*
X129450000Y-160600000D02*
X129450000Y-162400000D01*
X132550000Y-162400000D02*
X132550000Y-160600000D01*
X132550000Y-162400000D02*
X129450000Y-162400000D01*
%TO.C,R225*%
X128550000Y-162400000D02*
X125450000Y-162400000D01*
X128550000Y-162400000D02*
X128550000Y-160600000D01*
X125450000Y-160600000D02*
X125450000Y-162400000D01*
X125450000Y-160600000D02*
X128550000Y-160600000D01*
%TO.C,R224*%
X97900000Y-165450000D02*
X97900000Y-168550000D01*
X97900000Y-165450000D02*
X96100000Y-165450000D01*
X96100000Y-168550000D02*
X97900000Y-168550000D01*
X96100000Y-168550000D02*
X96100000Y-165450000D01*
%TO.C,R223*%
X83600000Y-167000000D02*
X83600000Y-163900000D01*
X83600000Y-167000000D02*
X85400000Y-167000000D01*
X85400000Y-163900000D02*
X83600000Y-163900000D01*
X85400000Y-163900000D02*
X85400000Y-167000000D01*
%TO.C,R222*%
X82550000Y-142900000D02*
X79450000Y-142900000D01*
X82550000Y-142900000D02*
X82550000Y-141100000D01*
X79450000Y-141100000D02*
X79450000Y-142900000D01*
X79450000Y-141100000D02*
X82550000Y-141100000D01*
%TO.C,R221*%
X81600000Y-155550000D02*
X81600000Y-152450000D01*
X81600000Y-155550000D02*
X83400000Y-155550000D01*
X83400000Y-152450000D02*
X81600000Y-152450000D01*
X83400000Y-152450000D02*
X83400000Y-155550000D01*
%TO.C,R220*%
X122400000Y-164000000D02*
X122400000Y-167100000D01*
X122400000Y-164000000D02*
X120600000Y-164000000D01*
X120600000Y-167100000D02*
X122400000Y-167100000D01*
X120600000Y-167100000D02*
X120600000Y-164000000D01*
%TO.C,R219*%
X80550000Y-162900000D02*
X77450000Y-162900000D01*
X80550000Y-162900000D02*
X80550000Y-161100000D01*
X77450000Y-161100000D02*
X77450000Y-162900000D01*
X77450000Y-161100000D02*
X80550000Y-161100000D01*
%TO.C,R218*%
X73450000Y-161100000D02*
X76550000Y-161100000D01*
X73450000Y-161100000D02*
X73450000Y-162900000D01*
X76550000Y-162900000D02*
X76550000Y-161100000D01*
X76550000Y-162900000D02*
X73450000Y-162900000D01*
%TO.C,R217*%
X100400000Y-159100000D02*
X103500000Y-159100000D01*
X100400000Y-159100000D02*
X100400000Y-160900000D01*
X103500000Y-160900000D02*
X103500000Y-159100000D01*
X103500000Y-160900000D02*
X100400000Y-160900000D01*
%TO.C,R216*%
X114500000Y-154100000D02*
X117600000Y-154100000D01*
X114500000Y-154100000D02*
X114500000Y-155900000D01*
X117600000Y-155900000D02*
X117600000Y-154100000D01*
X117600000Y-155900000D02*
X114500000Y-155900000D01*
%TO.C,R215*%
X136050000Y-112400000D02*
X132950000Y-112400000D01*
X136050000Y-112400000D02*
X136050000Y-110600000D01*
X132950000Y-110600000D02*
X132950000Y-112400000D01*
X132950000Y-110600000D02*
X136050000Y-110600000D01*
%TO.C,R214*%
X132950000Y-116600000D02*
X136050000Y-116600000D01*
X132950000Y-116600000D02*
X132950000Y-118400000D01*
X136050000Y-118400000D02*
X136050000Y-116600000D01*
X136050000Y-118400000D02*
X132950000Y-118400000D01*
%TO.C,R213*%
X109450000Y-121100000D02*
X112550000Y-121100000D01*
X109450000Y-121100000D02*
X109450000Y-122900000D01*
X112550000Y-122900000D02*
X112550000Y-121100000D01*
X112550000Y-122900000D02*
X109450000Y-122900000D01*
%TO.C,R212*%
X98050000Y-122400000D02*
X94950000Y-122400000D01*
X98050000Y-122400000D02*
X98050000Y-120600000D01*
X94950000Y-120600000D02*
X94950000Y-122400000D01*
X94950000Y-120600000D02*
X98050000Y-120600000D01*
%TO.C,R211*%
X109450000Y-123600000D02*
X112550000Y-123600000D01*
X109450000Y-123600000D02*
X109450000Y-125400000D01*
X112550000Y-125400000D02*
X112550000Y-123600000D01*
X112550000Y-125400000D02*
X109450000Y-125400000D01*
%TO.C,R210*%
X98100000Y-124900000D02*
X95000000Y-124900000D01*
X98100000Y-124900000D02*
X98100000Y-123100000D01*
X95000000Y-123100000D02*
X95000000Y-124900000D01*
X95000000Y-123100000D02*
X98100000Y-123100000D01*
%TO.C,R209*%
X112550000Y-127900000D02*
X109450000Y-127900000D01*
X112550000Y-127900000D02*
X112550000Y-126100000D01*
X109450000Y-126100000D02*
X109450000Y-127900000D01*
X109450000Y-126100000D02*
X112550000Y-126100000D01*
%TO.C,R208*%
X120900000Y-110450000D02*
X120900000Y-113550000D01*
X120900000Y-110450000D02*
X119100000Y-110450000D01*
X119100000Y-113550000D02*
X120900000Y-113550000D01*
X119100000Y-113550000D02*
X119100000Y-110450000D01*
%TO.C,R207*%
X118400000Y-110450000D02*
X118400000Y-113550000D01*
X118400000Y-110450000D02*
X116600000Y-110450000D01*
X116600000Y-113550000D02*
X118400000Y-113550000D01*
X116600000Y-113550000D02*
X116600000Y-110450000D01*
%TO.C,R206*%
X95000000Y-125600000D02*
X98100000Y-125600000D01*
X95000000Y-125600000D02*
X95000000Y-127400000D01*
X98100000Y-127400000D02*
X98100000Y-125600000D01*
X98100000Y-127400000D02*
X95000000Y-127400000D01*
%TO.C,R205*%
X143050000Y-104400000D02*
X139950000Y-104400000D01*
X143050000Y-104400000D02*
X143050000Y-102600000D01*
X139950000Y-102600000D02*
X139950000Y-104400000D01*
X139950000Y-102600000D02*
X143050000Y-102600000D01*
%TO.C,R204*%
X50600000Y-77900000D02*
X47500000Y-77900000D01*
X50600000Y-77900000D02*
X50600000Y-76100000D01*
X47500000Y-76100000D02*
X47500000Y-77900000D01*
X47500000Y-76100000D02*
X50600000Y-76100000D01*
%TO.C,R203*%
X143050000Y-97400000D02*
X139950000Y-97400000D01*
X143050000Y-97400000D02*
X143050000Y-95600000D01*
X139950000Y-95600000D02*
X139950000Y-97400000D01*
X139950000Y-95600000D02*
X143050000Y-95600000D01*
%TO.C,R202*%
X122100000Y-113550000D02*
X122100000Y-110450000D01*
X122100000Y-113550000D02*
X123900000Y-113550000D01*
X123900000Y-110450000D02*
X122100000Y-110450000D01*
X123900000Y-110450000D02*
X123900000Y-113550000D01*
%TO.C,R201*%
X122100000Y-117550000D02*
X122100000Y-114450000D01*
X122100000Y-117550000D02*
X123900000Y-117550000D01*
X123900000Y-114450000D02*
X122100000Y-114450000D01*
X123900000Y-114450000D02*
X123900000Y-117550000D01*
%TO.C,L202*%
X138500000Y-111550000D02*
X138500000Y-108350000D01*
X140500000Y-111550000D02*
X140500000Y-108350000D01*
X138500000Y-111550000D02*
X140500000Y-111550000D01*
X138500000Y-108350000D02*
X140500000Y-108350000D01*
%TO.C,L201*%
X134500000Y-130600000D02*
X134500000Y-127400000D01*
X136500000Y-130600000D02*
X136500000Y-127400000D01*
X134500000Y-130600000D02*
X136500000Y-130600000D01*
X134500000Y-127400000D02*
X136500000Y-127400000D01*
%TO.C,J201*%
X114660000Y-90800000D02*
X120810000Y-90800000D01*
X120810000Y-90800000D02*
X120810000Y-87200000D01*
X120810000Y-87200000D02*
X114660000Y-87200000D01*
X114660000Y-87200000D02*
X114660000Y-90800000D01*
%TO.C,C216*%
X140380000Y-112250000D02*
X140380000Y-115750000D01*
X140380000Y-112250000D02*
X138630000Y-112250000D01*
X138630000Y-115750000D02*
X140380000Y-115750000D01*
X138630000Y-115750000D02*
X138630000Y-112250000D01*
%TO.C,C215*%
X142120000Y-115750000D02*
X142120000Y-112250000D01*
X142120000Y-115750000D02*
X143870000Y-115750000D01*
X143870000Y-112250000D02*
X142120000Y-112250000D01*
X143870000Y-112250000D02*
X143870000Y-115750000D01*
%TO.C,C214*%
X77750000Y-158120000D02*
X81250000Y-158120000D01*
X77750000Y-158120000D02*
X77750000Y-159870000D01*
X81250000Y-159870000D02*
X81250000Y-158120000D01*
X81250000Y-159870000D02*
X77750000Y-159870000D01*
%TO.C,C213*%
X73250000Y-158120000D02*
X76750000Y-158120000D01*
X73250000Y-158120000D02*
X73250000Y-159870000D01*
X76750000Y-159870000D02*
X76750000Y-158120000D01*
X76750000Y-159870000D02*
X73250000Y-159870000D01*
%TO.C,C211*%
X143380000Y-127250000D02*
X143380000Y-130750000D01*
X143380000Y-127250000D02*
X141630000Y-127250000D01*
X141630000Y-130750000D02*
X143380000Y-130750000D01*
X141630000Y-130750000D02*
X141630000Y-127250000D01*
%TO.C,C210*%
X132880000Y-119750000D02*
X132880000Y-123250000D01*
X132880000Y-119750000D02*
X131130000Y-119750000D01*
X131130000Y-123250000D02*
X132880000Y-123250000D01*
X131130000Y-123250000D02*
X131130000Y-119750000D01*
%TO.C,C209*%
X106750000Y-118120000D02*
X110250000Y-118120000D01*
X106750000Y-118120000D02*
X106750000Y-119870000D01*
X110250000Y-119870000D02*
X110250000Y-118120000D01*
X110250000Y-119870000D02*
X106750000Y-119870000D01*
%TO.C,C207*%
X89750000Y-98880000D02*
X86250000Y-98880000D01*
X89750000Y-98880000D02*
X89750000Y-97130000D01*
X86250000Y-97130000D02*
X86250000Y-98880000D01*
X86250000Y-97130000D02*
X89750000Y-97130000D01*
%TO.C,C206*%
X47250000Y-74120000D02*
X50750000Y-74120000D01*
X47250000Y-74120000D02*
X47250000Y-75870000D01*
X50750000Y-75870000D02*
X50750000Y-74120000D01*
X50750000Y-75870000D02*
X47250000Y-75870000D01*
%TO.C,C205*%
X127880000Y-103250000D02*
X127880000Y-106750000D01*
X127880000Y-103250000D02*
X126130000Y-103250000D01*
X126130000Y-106750000D02*
X127880000Y-106750000D01*
X126130000Y-106750000D02*
X126130000Y-103250000D01*
%TO.C,C204*%
X133750000Y-104880000D02*
X130250000Y-104880000D01*
X133750000Y-104880000D02*
X133750000Y-103130000D01*
X130250000Y-103130000D02*
X130250000Y-104880000D01*
X130250000Y-103130000D02*
X133750000Y-103130000D01*
%TO.C,C203*%
X129250000Y-157620000D02*
X132750000Y-157620000D01*
X129250000Y-157620000D02*
X129250000Y-159370000D01*
X132750000Y-159370000D02*
X132750000Y-157620000D01*
X132750000Y-159370000D02*
X129250000Y-159370000D01*
%TO.C,C202*%
X133750000Y-106880000D02*
X130250000Y-106880000D01*
X133750000Y-106880000D02*
X133750000Y-105130000D01*
X130250000Y-105130000D02*
X130250000Y-106880000D01*
X130250000Y-105130000D02*
X133750000Y-105130000D01*
%TO.C,C201*%
X125250000Y-157620000D02*
X128750000Y-157620000D01*
X125250000Y-157620000D02*
X125250000Y-159370000D01*
X128750000Y-159370000D02*
X128750000Y-157620000D01*
X128750000Y-159370000D02*
X125250000Y-159370000D01*
%TO.C,Y502*%
X74200000Y-75900000D02*
X80800000Y-75900000D01*
X74200000Y-72100000D02*
X74200000Y-75900000D01*
X80800000Y-72100000D02*
X74200000Y-72100000D01*
X80800000Y-75900000D02*
X80800000Y-72100000D01*
%TO.C,Y501*%
X133900000Y-80800000D02*
X133900000Y-74200000D01*
X130100000Y-80800000D02*
X133900000Y-80800000D01*
X130100000Y-74200000D02*
X130100000Y-80800000D01*
X133900000Y-74200000D02*
X130100000Y-74200000D01*
%TO.C,U503*%
X84200000Y-86650000D02*
X89500000Y-86650000D01*
X84200000Y-81350000D02*
X89500000Y-81350000D01*
X89500000Y-81350000D02*
X89500000Y-86650000D01*
X84200000Y-81350000D02*
X84200000Y-86650000D01*
%TO.C,U502*%
X114020000Y-84605000D02*
X121320000Y-84605000D01*
X114020000Y-74305000D02*
X121320000Y-74305000D01*
X121320000Y-74305000D02*
X121320000Y-84605000D01*
X114020000Y-74305000D02*
X114020000Y-84605000D01*
%TO.C,U101*%
X137100000Y-147200000D02*
X137100000Y-150800000D01*
X137100000Y-150800000D02*
X140900000Y-150800000D01*
X140900000Y-150800000D02*
X140900000Y-147200000D01*
X140900000Y-147200000D02*
X137100000Y-147200000D01*
%TO.C,TP402*%
X67000000Y-138500000D02*
G75*
G03*
X67000000Y-138500000I-1000000J0D01*
G01*
%TO.C,TP401*%
X67000000Y-133500000D02*
G75*
G03*
X67000000Y-133500000I-1000000J0D01*
G01*
%TO.C,TH401*%
X53500000Y-82900000D02*
X50400000Y-82900000D01*
X53500000Y-82900000D02*
X53500000Y-81100000D01*
X50400000Y-81100000D02*
X50400000Y-82900000D01*
X50400000Y-81100000D02*
X53500000Y-81100000D01*
%TO.C,R514*%
X78900000Y-83600000D02*
X82000000Y-83600000D01*
X78900000Y-83600000D02*
X78900000Y-85400000D01*
X82000000Y-85400000D02*
X82000000Y-83600000D01*
X82000000Y-85400000D02*
X78900000Y-85400000D01*
%TO.C,R513*%
X78950000Y-87600000D02*
X82050000Y-87600000D01*
X78950000Y-87600000D02*
X78950000Y-89400000D01*
X82050000Y-89400000D02*
X82050000Y-87600000D01*
X82050000Y-89400000D02*
X78950000Y-89400000D01*
%TO.C,R512*%
X82050000Y-81400000D02*
X78950000Y-81400000D01*
X82050000Y-81400000D02*
X82050000Y-79600000D01*
X78950000Y-79600000D02*
X78950000Y-81400000D01*
X78950000Y-79600000D02*
X82050000Y-79600000D01*
%TO.C,R511*%
X78950000Y-85600000D02*
X82050000Y-85600000D01*
X78950000Y-85600000D02*
X78950000Y-87400000D01*
X82050000Y-87400000D02*
X82050000Y-85600000D01*
X82050000Y-87400000D02*
X78950000Y-87400000D01*
%TO.C,R510*%
X78950000Y-89600000D02*
X82050000Y-89600000D01*
X78950000Y-89600000D02*
X78950000Y-91400000D01*
X82050000Y-91400000D02*
X82050000Y-89600000D01*
X82050000Y-91400000D02*
X78950000Y-91400000D01*
%TO.C,R509*%
X94050000Y-86900000D02*
X90950000Y-86900000D01*
X94050000Y-86900000D02*
X94050000Y-85100000D01*
X90950000Y-85100000D02*
X90950000Y-86900000D01*
X90950000Y-85100000D02*
X94050000Y-85100000D01*
%TO.C,R508*%
X90950000Y-89600000D02*
X94050000Y-89600000D01*
X90950000Y-89600000D02*
X90950000Y-91400000D01*
X94050000Y-91400000D02*
X94050000Y-89600000D01*
X94050000Y-91400000D02*
X90950000Y-91400000D01*
%TO.C,R507*%
X94050000Y-89400000D02*
X90950000Y-89400000D01*
X94050000Y-89400000D02*
X94050000Y-87600000D01*
X90950000Y-87600000D02*
X90950000Y-89400000D01*
X90950000Y-87600000D02*
X94050000Y-87600000D01*
%TO.C,R506*%
X94100000Y-80900000D02*
X91000000Y-80900000D01*
X94100000Y-80900000D02*
X94100000Y-79100000D01*
X91000000Y-79100000D02*
X91000000Y-80900000D01*
X91000000Y-79100000D02*
X94100000Y-79100000D01*
%TO.C,R505*%
X94100000Y-82900000D02*
X91000000Y-82900000D01*
X94100000Y-82900000D02*
X94100000Y-81100000D01*
X91000000Y-81100000D02*
X91000000Y-82900000D01*
X91000000Y-81100000D02*
X94100000Y-81100000D01*
%TO.C,R504*%
X133550000Y-82900000D02*
X130450000Y-82900000D01*
X133550000Y-82900000D02*
X133550000Y-81100000D01*
X130450000Y-81100000D02*
X130450000Y-82900000D01*
X130450000Y-81100000D02*
X133550000Y-81100000D01*
%TO.C,R503*%
X118450000Y-72100000D02*
X121550000Y-72100000D01*
X118450000Y-72100000D02*
X118450000Y-73900000D01*
X121550000Y-73900000D02*
X121550000Y-72100000D01*
X121550000Y-73900000D02*
X118450000Y-73900000D01*
%TO.C,R502*%
X113050000Y-87900000D02*
X109950000Y-87900000D01*
X113050000Y-87900000D02*
X113050000Y-86100000D01*
X109950000Y-86100000D02*
X109950000Y-87900000D01*
X109950000Y-86100000D02*
X113050000Y-86100000D01*
%TO.C,R501*%
X113050000Y-89900000D02*
X109950000Y-89900000D01*
X113050000Y-89900000D02*
X113050000Y-88100000D01*
X109950000Y-88100000D02*
X109950000Y-89900000D01*
X109950000Y-88100000D02*
X113050000Y-88100000D01*
%TO.C,R404*%
X63450000Y-156600000D02*
X66550000Y-156600000D01*
X63450000Y-156600000D02*
X63450000Y-158400000D01*
X66550000Y-158400000D02*
X66550000Y-156600000D01*
X66550000Y-158400000D02*
X63450000Y-158400000D01*
%TO.C,R403*%
X63400000Y-147100000D02*
X66500000Y-147100000D01*
X63400000Y-147100000D02*
X63400000Y-148900000D01*
X66500000Y-148900000D02*
X66500000Y-147100000D01*
X66500000Y-148900000D02*
X63400000Y-148900000D01*
%TO.C,R402*%
X63900000Y-164950000D02*
X63900000Y-168050000D01*
X63900000Y-164950000D02*
X62100000Y-164950000D01*
X62100000Y-168050000D02*
X63900000Y-168050000D01*
X62100000Y-168050000D02*
X62100000Y-164950000D01*
%TO.C,R401*%
X53900000Y-89000000D02*
X53900000Y-92100000D01*
X53900000Y-89000000D02*
X52100000Y-89000000D01*
X52100000Y-92100000D02*
X53900000Y-92100000D01*
X52100000Y-92100000D02*
X52100000Y-89000000D01*
%TO.C,R102*%
X139450000Y-133600000D02*
X142550000Y-133600000D01*
X139450000Y-133600000D02*
X139450000Y-135400000D01*
X142550000Y-135400000D02*
X142550000Y-133600000D01*
X142550000Y-135400000D02*
X139450000Y-135400000D01*
%TO.C,R101*%
X136900000Y-155050000D02*
X136900000Y-158150000D01*
X136900000Y-155050000D02*
X135100000Y-155050000D01*
X135100000Y-158150000D02*
X136900000Y-158150000D01*
X135100000Y-158150000D02*
X135100000Y-155050000D01*
%TO.C,Q403*%
X46250000Y-83800000D02*
X49750000Y-83800000D01*
X46250000Y-87200000D02*
X46250000Y-83800000D01*
X49750000Y-87200000D02*
X46250000Y-87200000D01*
X49750000Y-83800000D02*
X49750000Y-87200000D01*
%TO.C,Q402*%
X50250000Y-83800000D02*
X53750000Y-83800000D01*
X50250000Y-87200000D02*
X50250000Y-83800000D01*
X53750000Y-87200000D02*
X50250000Y-87200000D01*
X53750000Y-83800000D02*
X53750000Y-87200000D01*
%TO.C,Q401*%
X54250000Y-83800000D02*
X57750000Y-83800000D01*
X54250000Y-87200000D02*
X54250000Y-83800000D01*
X57750000Y-87200000D02*
X54250000Y-87200000D01*
X57750000Y-83800000D02*
X57750000Y-87200000D01*
%TO.C,L101*%
X137400000Y-147000000D02*
X137400000Y-145000000D01*
X140600000Y-147000000D02*
X140600000Y-145000000D01*
X140600000Y-145000000D02*
X137400000Y-145000000D01*
X140600000Y-147000000D02*
X137400000Y-147000000D01*
%TO.C,J501*%
X93100000Y-72240000D02*
X93100000Y-79090000D01*
X83900000Y-72240000D02*
X93100000Y-72240000D01*
X83900000Y-79090000D02*
X83900000Y-72240000D01*
X93100000Y-79090000D02*
X83900000Y-79090000D01*
%TO.C,J101*%
X140700000Y-160800000D02*
X144300000Y-160800000D01*
X140700000Y-154650000D02*
X140700000Y-160800000D01*
X144300000Y-154650000D02*
X140700000Y-154650000D01*
X144300000Y-160800000D02*
X144300000Y-154650000D01*
%TO.C,D101*%
X138620000Y-158200000D02*
X138620000Y-154800000D01*
X138620000Y-154800000D02*
X140380000Y-154800000D01*
X140380000Y-154800000D02*
X140380000Y-158200000D01*
X140380000Y-158200000D02*
X138620000Y-158200000D01*
%TO.C,C520*%
X78750000Y-81630000D02*
X82250000Y-81630000D01*
X78750000Y-81630000D02*
X78750000Y-83380000D01*
X82250000Y-83380000D02*
X82250000Y-81630000D01*
X82250000Y-83380000D02*
X78750000Y-83380000D01*
%TO.C,C519*%
X84630000Y-91750000D02*
X84630000Y-88250000D01*
X84630000Y-91750000D02*
X86380000Y-91750000D01*
X86380000Y-88250000D02*
X84630000Y-88250000D01*
X86380000Y-88250000D02*
X86380000Y-91750000D01*
%TO.C,C518*%
X78750000Y-77630000D02*
X82250000Y-77630000D01*
X78750000Y-77630000D02*
X78750000Y-79380000D01*
X82250000Y-79380000D02*
X82250000Y-77630000D01*
X82250000Y-79380000D02*
X78750000Y-79380000D01*
%TO.C,C517*%
X86630000Y-91750000D02*
X86630000Y-88250000D01*
X86630000Y-91750000D02*
X88380000Y-91750000D01*
X88380000Y-88250000D02*
X86630000Y-88250000D01*
X88380000Y-88250000D02*
X88380000Y-91750000D01*
%TO.C,C516*%
X73870000Y-72250000D02*
X73870000Y-75750000D01*
X73870000Y-72250000D02*
X72120000Y-72250000D01*
X72120000Y-75750000D02*
X73870000Y-75750000D01*
X72120000Y-75750000D02*
X72120000Y-72250000D01*
%TO.C,C515*%
X81130000Y-75750000D02*
X81130000Y-72250000D01*
X81130000Y-75750000D02*
X82880000Y-75750000D01*
X82880000Y-72250000D02*
X81130000Y-72250000D01*
X82880000Y-72250000D02*
X82880000Y-75750000D01*
%TO.C,C514*%
X125650000Y-80470000D02*
X122150000Y-80470000D01*
X125650000Y-80470000D02*
X125650000Y-78720000D01*
X122150000Y-78720000D02*
X122150000Y-80470000D01*
X122150000Y-78720000D02*
X125650000Y-78720000D01*
%TO.C,C513*%
X125650000Y-78370000D02*
X122150000Y-78370000D01*
X125650000Y-78370000D02*
X125650000Y-76620000D01*
X122150000Y-76620000D02*
X122150000Y-78370000D01*
X122150000Y-76620000D02*
X125650000Y-76620000D01*
%TO.C,C512*%
X125650000Y-82970000D02*
X122150000Y-82970000D01*
X125650000Y-82970000D02*
X125650000Y-81220000D01*
X122150000Y-81220000D02*
X122150000Y-82970000D01*
X122150000Y-81220000D02*
X125650000Y-81220000D01*
%TO.C,C511*%
X125650000Y-84970000D02*
X122150000Y-84970000D01*
X125650000Y-84970000D02*
X125650000Y-83220000D01*
X122150000Y-83220000D02*
X122150000Y-84970000D01*
X122150000Y-83220000D02*
X125650000Y-83220000D01*
%TO.C,C510*%
X125750000Y-73870000D02*
X122250000Y-73870000D01*
X125750000Y-73870000D02*
X125750000Y-72120000D01*
X122250000Y-72120000D02*
X122250000Y-73870000D01*
X122250000Y-72120000D02*
X125750000Y-72120000D01*
%TO.C,C509*%
X125750000Y-75870000D02*
X122250000Y-75870000D01*
X125750000Y-75870000D02*
X125750000Y-74120000D01*
X122250000Y-74120000D02*
X122250000Y-75870000D01*
X122250000Y-74120000D02*
X125750000Y-74120000D01*
%TO.C,C508*%
X125650000Y-86970000D02*
X122150000Y-86970000D01*
X125650000Y-86970000D02*
X125650000Y-85220000D01*
X122150000Y-85220000D02*
X122150000Y-86970000D01*
X122150000Y-85220000D02*
X125650000Y-85220000D01*
%TO.C,C507*%
X94250000Y-84870000D02*
X90750000Y-84870000D01*
X94250000Y-84870000D02*
X94250000Y-83120000D01*
X90750000Y-83120000D02*
X90750000Y-84870000D01*
X90750000Y-83120000D02*
X94250000Y-83120000D01*
%TO.C,C506*%
X113250000Y-81870000D02*
X109750000Y-81870000D01*
X113250000Y-81870000D02*
X113250000Y-80120000D01*
X109750000Y-80120000D02*
X109750000Y-81870000D01*
X109750000Y-80120000D02*
X113250000Y-80120000D01*
%TO.C,C505*%
X109750000Y-76130000D02*
X113250000Y-76130000D01*
X109750000Y-76130000D02*
X109750000Y-77880000D01*
X113250000Y-77880000D02*
X113250000Y-76130000D01*
X113250000Y-77880000D02*
X109750000Y-77880000D01*
%TO.C,C504*%
X109750000Y-72130000D02*
X113250000Y-72130000D01*
X109750000Y-72130000D02*
X109750000Y-73880000D01*
X113250000Y-73880000D02*
X113250000Y-72130000D01*
X113250000Y-73880000D02*
X109750000Y-73880000D01*
%TO.C,C503*%
X109750000Y-84130000D02*
X113250000Y-84130000D01*
X109750000Y-84130000D02*
X109750000Y-85880000D01*
X113250000Y-85880000D02*
X113250000Y-84130000D01*
X113250000Y-85880000D02*
X109750000Y-85880000D01*
%TO.C,C502*%
X113250000Y-83870000D02*
X109750000Y-83870000D01*
X113250000Y-83870000D02*
X113250000Y-82120000D01*
X109750000Y-82120000D02*
X109750000Y-83870000D01*
X109750000Y-82120000D02*
X113250000Y-82120000D01*
%TO.C,C501*%
X109750000Y-78130000D02*
X113250000Y-78130000D01*
X109750000Y-78130000D02*
X109750000Y-79880000D01*
X113250000Y-79880000D02*
X113250000Y-78130000D01*
X113250000Y-79880000D02*
X109750000Y-79880000D01*
%TO.C,C421*%
X49630000Y-128250000D02*
X49630000Y-124750000D01*
X49630000Y-128250000D02*
X51380000Y-128250000D01*
X51380000Y-124750000D02*
X49630000Y-124750000D01*
X51380000Y-124750000D02*
X51380000Y-128250000D01*
%TO.C,C419*%
X49630000Y-150750000D02*
X49630000Y-147250000D01*
X49630000Y-150750000D02*
X51380000Y-150750000D01*
X51380000Y-147250000D02*
X49630000Y-147250000D01*
X51380000Y-147250000D02*
X51380000Y-150750000D01*
%TO.C,C418*%
X66750000Y-163220000D02*
X63250000Y-163220000D01*
X66750000Y-163220000D02*
X66750000Y-161470000D01*
X63250000Y-161470000D02*
X63250000Y-163220000D01*
X63250000Y-161470000D02*
X66750000Y-161470000D01*
%TO.C,C417*%
X48870000Y-149750000D02*
X48870000Y-153250000D01*
X48870000Y-149750000D02*
X47120000Y-149750000D01*
X47120000Y-153250000D02*
X48870000Y-153250000D01*
X47120000Y-153250000D02*
X47120000Y-149750000D01*
%TO.C,C415*%
X52370000Y-160250000D02*
X52370000Y-163750000D01*
X52370000Y-160250000D02*
X50620000Y-160250000D01*
X50620000Y-163750000D02*
X52370000Y-163750000D01*
X50620000Y-163750000D02*
X50620000Y-160250000D01*
%TO.C,C411*%
X65750000Y-94870000D02*
X62250000Y-94870000D01*
X65750000Y-94870000D02*
X65750000Y-93120000D01*
X62250000Y-93120000D02*
X62250000Y-94870000D01*
X62250000Y-93120000D02*
X65750000Y-93120000D01*
%TO.C,C408*%
X58250000Y-85630000D02*
X61750000Y-85630000D01*
X58250000Y-85630000D02*
X58250000Y-87380000D01*
X61750000Y-87380000D02*
X61750000Y-85630000D01*
X61750000Y-87380000D02*
X58250000Y-87380000D01*
%TO.C,C406*%
X54870000Y-76250000D02*
X54870000Y-79750000D01*
X54870000Y-76250000D02*
X53120000Y-76250000D01*
X53120000Y-79750000D02*
X54870000Y-79750000D01*
X53120000Y-79750000D02*
X53120000Y-76250000D01*
%TO.C,C405*%
X48250000Y-88630000D02*
X51750000Y-88630000D01*
X48250000Y-88630000D02*
X48250000Y-90380000D01*
X51750000Y-90380000D02*
X51750000Y-88630000D01*
X51750000Y-90380000D02*
X48250000Y-90380000D01*
%TO.C,C404*%
X56870000Y-76250000D02*
X56870000Y-79750000D01*
X56870000Y-76250000D02*
X55120000Y-76250000D01*
X55120000Y-79750000D02*
X56870000Y-79750000D01*
X55120000Y-79750000D02*
X55120000Y-76250000D01*
%TO.C,C106*%
X135250000Y-140630000D02*
X138750000Y-140630000D01*
X135250000Y-140630000D02*
X135250000Y-142380000D01*
X138750000Y-142380000D02*
X138750000Y-140630000D01*
X138750000Y-142380000D02*
X135250000Y-142380000D01*
%TO.C,C105*%
X142750000Y-142370000D02*
X139250000Y-142370000D01*
X142750000Y-142370000D02*
X142750000Y-140620000D01*
X139250000Y-140620000D02*
X139250000Y-142370000D01*
X139250000Y-140620000D02*
X142750000Y-140620000D01*
%TO.C,C104*%
X136870000Y-143500000D02*
X136870000Y-147000000D01*
X136870000Y-143500000D02*
X135120000Y-143500000D01*
X135120000Y-147000000D02*
X136870000Y-147000000D01*
X135120000Y-147000000D02*
X135120000Y-143500000D01*
%TO.C,C103*%
X135130000Y-150750000D02*
X135130000Y-147250000D01*
X135130000Y-150750000D02*
X136880000Y-150750000D01*
X136880000Y-147250000D02*
X135130000Y-147250000D01*
X136880000Y-147250000D02*
X136880000Y-150750000D01*
%TO.C,C102*%
X141380000Y-150750000D02*
X141380000Y-147250000D01*
X141380000Y-150750000D02*
X143130000Y-150750000D01*
X143130000Y-147250000D02*
X141380000Y-147250000D01*
X143130000Y-147250000D02*
X143130000Y-150750000D01*
%TO.C,C101*%
X140750000Y-152870000D02*
X137250000Y-152870000D01*
X140750000Y-152870000D02*
X140750000Y-151120000D01*
X137250000Y-151120000D02*
X137250000Y-152870000D01*
X137250000Y-151120000D02*
X140750000Y-151120000D01*
%TD*%
M02*
