%TF.GenerationSoftware,KiCad,Pcbnew,5.1.6*%
%TF.CreationDate,2020-08-25T13:31:23-07:00*%
%TF.ProjectId,uSDX,75534458-2e6b-4696-9361-645f70636258,2.0.3*%
%TF.SameCoordinates,Original*%
%TF.FileFunction,Legend,Bot*%
%TF.FilePolarity,Positive*%
%FSLAX46Y46*%
G04 Gerber Fmt 4.6, Leading zero omitted, Abs format (unit mm)*
G04 Created by KiCad (PCBNEW 5.1.6) date 2020-08-25 13:31:23*
%MOMM*%
%LPD*%
G01*
G04 APERTURE LIST*
%ADD10C,0.150000*%
%ADD11C,0.120000*%
G04 APERTURE END LIST*
D10*
X128714285Y-128135714D02*
X128285714Y-128278571D01*
X128142857Y-128421428D01*
X128000000Y-128707142D01*
X128000000Y-129135714D01*
X128142857Y-129421428D01*
X128285714Y-129564285D01*
X128571428Y-129707142D01*
X129714285Y-129707142D01*
X129714285Y-126707142D01*
X128714285Y-126707142D01*
X128428571Y-126850000D01*
X128285714Y-126992857D01*
X128142857Y-127278571D01*
X128142857Y-127564285D01*
X128285714Y-127850000D01*
X128428571Y-127992857D01*
X128714285Y-128135714D01*
X129714285Y-128135714D01*
X126285714Y-129707142D02*
X126571428Y-129564285D01*
X126714285Y-129278571D01*
X126714285Y-126707142D01*
X123857142Y-129707142D02*
X123857142Y-128135714D01*
X124000000Y-127850000D01*
X124285714Y-127707142D01*
X124857142Y-127707142D01*
X125142857Y-127850000D01*
X123857142Y-129564285D02*
X124142857Y-129707142D01*
X124857142Y-129707142D01*
X125142857Y-129564285D01*
X125285714Y-129278571D01*
X125285714Y-128992857D01*
X125142857Y-128707142D01*
X124857142Y-128564285D01*
X124142857Y-128564285D01*
X123857142Y-128421428D01*
X121142857Y-129564285D02*
X121428571Y-129707142D01*
X122000000Y-129707142D01*
X122285714Y-129564285D01*
X122428571Y-129421428D01*
X122571428Y-129135714D01*
X122571428Y-128278571D01*
X122428571Y-127992857D01*
X122285714Y-127850000D01*
X122000000Y-127707142D01*
X121428571Y-127707142D01*
X121142857Y-127850000D01*
X119857142Y-129707142D02*
X119857142Y-126707142D01*
X119571428Y-128564285D02*
X118714285Y-129707142D01*
X118714285Y-127707142D02*
X119857142Y-128850000D01*
X115142857Y-129707142D02*
X115142857Y-126707142D01*
X114000000Y-126707142D01*
X113714285Y-126850000D01*
X113571428Y-126992857D01*
X113428571Y-127278571D01*
X113428571Y-127707142D01*
X113571428Y-127992857D01*
X113714285Y-128135714D01*
X114000000Y-128278571D01*
X115142857Y-128278571D01*
X112142857Y-129707142D02*
X112142857Y-127707142D01*
X112142857Y-126707142D02*
X112285714Y-126850000D01*
X112142857Y-126992857D01*
X112000000Y-126850000D01*
X112142857Y-126707142D01*
X112142857Y-126992857D01*
X110285714Y-129707142D02*
X110571428Y-129564285D01*
X110714285Y-129278571D01*
X110714285Y-126707142D01*
X108714285Y-129707142D02*
X109000000Y-129564285D01*
X109142857Y-129278571D01*
X109142857Y-126707142D01*
X104000000Y-127707142D02*
X104000000Y-129707142D01*
X105285714Y-127707142D02*
X105285714Y-129278571D01*
X105142857Y-129564285D01*
X104857142Y-129707142D01*
X104428571Y-129707142D01*
X104142857Y-129564285D01*
X104000000Y-129421428D01*
X102714285Y-129564285D02*
X102285714Y-129707142D01*
X101571428Y-129707142D01*
X101285714Y-129564285D01*
X101142857Y-129421428D01*
X101000000Y-129135714D01*
X101000000Y-128850000D01*
X101142857Y-128564285D01*
X101285714Y-128421428D01*
X101571428Y-128278571D01*
X102142857Y-128135714D01*
X102428571Y-127992857D01*
X102571428Y-127850000D01*
X102714285Y-127564285D01*
X102714285Y-127278571D01*
X102571428Y-126992857D01*
X102428571Y-126850000D01*
X102142857Y-126707142D01*
X101428571Y-126707142D01*
X101000000Y-126850000D01*
X99714285Y-129707142D02*
X99714285Y-126707142D01*
X99000000Y-126707142D01*
X98571428Y-126850000D01*
X98285714Y-127135714D01*
X98142857Y-127421428D01*
X98000000Y-127992857D01*
X98000000Y-128421428D01*
X98142857Y-128992857D01*
X98285714Y-129278571D01*
X98571428Y-129564285D01*
X99000000Y-129707142D01*
X99714285Y-129707142D01*
X97000000Y-126707142D02*
X95000000Y-129707142D01*
X95000000Y-126707142D02*
X97000000Y-129707142D01*
X91857142Y-127707142D02*
X91142857Y-129707142D01*
X90428571Y-127707142D01*
X89428571Y-126992857D02*
X89285714Y-126850000D01*
X89000000Y-126707142D01*
X88285714Y-126707142D01*
X88000000Y-126850000D01*
X87857142Y-126992857D01*
X87714285Y-127278571D01*
X87714285Y-127564285D01*
X87857142Y-127992857D01*
X89571428Y-129707142D01*
X87714285Y-129707142D01*
X86428571Y-129421428D02*
X86285714Y-129564285D01*
X86428571Y-129707142D01*
X86571428Y-129564285D01*
X86428571Y-129421428D01*
X86428571Y-129707142D01*
X84428571Y-126707142D02*
X84142857Y-126707142D01*
X83857142Y-126850000D01*
X83714285Y-126992857D01*
X83571428Y-127278571D01*
X83428571Y-127850000D01*
X83428571Y-128564285D01*
X83571428Y-129135714D01*
X83714285Y-129421428D01*
X83857142Y-129564285D01*
X84142857Y-129707142D01*
X84428571Y-129707142D01*
X84714285Y-129564285D01*
X84857142Y-129421428D01*
X85000000Y-129135714D01*
X85142857Y-128564285D01*
X85142857Y-127850000D01*
X85000000Y-127278571D01*
X84857142Y-126992857D01*
X84714285Y-126850000D01*
X84428571Y-126707142D01*
X82142857Y-129421428D02*
X82000000Y-129564285D01*
X82142857Y-129707142D01*
X82285714Y-129564285D01*
X82142857Y-129421428D01*
X82142857Y-129707142D01*
X81000000Y-126707142D02*
X79142857Y-126707142D01*
X80142857Y-127850000D01*
X79714285Y-127850000D01*
X79428571Y-127992857D01*
X79285714Y-128135714D01*
X79142857Y-128421428D01*
X79142857Y-129135714D01*
X79285714Y-129421428D01*
X79428571Y-129564285D01*
X79714285Y-129707142D01*
X80571428Y-129707142D01*
X80857142Y-129564285D01*
X81000000Y-129421428D01*
X122214285Y-133500000D02*
X120785714Y-133500000D01*
X122500000Y-134357142D02*
X121500000Y-131357142D01*
X120500000Y-134357142D01*
X118214285Y-132357142D02*
X118214285Y-134357142D01*
X119500000Y-132357142D02*
X119500000Y-133928571D01*
X119357142Y-134214285D01*
X119071428Y-134357142D01*
X118642857Y-134357142D01*
X118357142Y-134214285D01*
X118214285Y-134071428D01*
X115500000Y-132357142D02*
X115500000Y-134785714D01*
X115642857Y-135071428D01*
X115785714Y-135214285D01*
X116071428Y-135357142D01*
X116500000Y-135357142D01*
X116785714Y-135214285D01*
X115500000Y-134214285D02*
X115785714Y-134357142D01*
X116357142Y-134357142D01*
X116642857Y-134214285D01*
X116785714Y-134071428D01*
X116928571Y-133785714D01*
X116928571Y-132928571D01*
X116785714Y-132642857D01*
X116642857Y-132500000D01*
X116357142Y-132357142D01*
X115785714Y-132357142D01*
X115500000Y-132500000D01*
X112785714Y-132357142D02*
X112785714Y-134357142D01*
X114071428Y-132357142D02*
X114071428Y-133928571D01*
X113928571Y-134214285D01*
X113642857Y-134357142D01*
X113214285Y-134357142D01*
X112928571Y-134214285D01*
X112785714Y-134071428D01*
X111500000Y-134214285D02*
X111214285Y-134357142D01*
X110642857Y-134357142D01*
X110357142Y-134214285D01*
X110214285Y-133928571D01*
X110214285Y-133785714D01*
X110357142Y-133500000D01*
X110642857Y-133357142D01*
X111071428Y-133357142D01*
X111357142Y-133214285D01*
X111500000Y-132928571D01*
X111500000Y-132785714D01*
X111357142Y-132500000D01*
X111071428Y-132357142D01*
X110642857Y-132357142D01*
X110357142Y-132500000D01*
X109357142Y-132357142D02*
X108214285Y-132357142D01*
X108928571Y-131357142D02*
X108928571Y-133928571D01*
X108785714Y-134214285D01*
X108500000Y-134357142D01*
X108214285Y-134357142D01*
X105071428Y-131642857D02*
X104928571Y-131500000D01*
X104642857Y-131357142D01*
X103928571Y-131357142D01*
X103642857Y-131500000D01*
X103500000Y-131642857D01*
X103357142Y-131928571D01*
X103357142Y-132214285D01*
X103500000Y-132642857D01*
X105214285Y-134357142D01*
X103357142Y-134357142D01*
X100642857Y-131357142D02*
X102071428Y-131357142D01*
X102214285Y-132785714D01*
X102071428Y-132642857D01*
X101785714Y-132500000D01*
X101071428Y-132500000D01*
X100785714Y-132642857D01*
X100642857Y-132785714D01*
X100500000Y-133071428D01*
X100500000Y-133785714D01*
X100642857Y-134071428D01*
X100785714Y-134214285D01*
X101071428Y-134357142D01*
X101785714Y-134357142D01*
X102071428Y-134214285D01*
X102214285Y-134071428D01*
X97071428Y-131642857D02*
X96928571Y-131500000D01*
X96642857Y-131357142D01*
X95928571Y-131357142D01*
X95642857Y-131500000D01*
X95500000Y-131642857D01*
X95357142Y-131928571D01*
X95357142Y-132214285D01*
X95500000Y-132642857D01*
X97214285Y-134357142D01*
X95357142Y-134357142D01*
X93500000Y-131357142D02*
X93214285Y-131357142D01*
X92928571Y-131500000D01*
X92785714Y-131642857D01*
X92642857Y-131928571D01*
X92500000Y-132500000D01*
X92500000Y-133214285D01*
X92642857Y-133785714D01*
X92785714Y-134071428D01*
X92928571Y-134214285D01*
X93214285Y-134357142D01*
X93500000Y-134357142D01*
X93785714Y-134214285D01*
X93928571Y-134071428D01*
X94071428Y-133785714D01*
X94214285Y-133214285D01*
X94214285Y-132500000D01*
X94071428Y-131928571D01*
X93928571Y-131642857D01*
X93785714Y-131500000D01*
X93500000Y-131357142D01*
X91357142Y-131642857D02*
X91214285Y-131500000D01*
X90928571Y-131357142D01*
X90214285Y-131357142D01*
X89928571Y-131500000D01*
X89785714Y-131642857D01*
X89642857Y-131928571D01*
X89642857Y-132214285D01*
X89785714Y-132642857D01*
X91500000Y-134357142D01*
X89642857Y-134357142D01*
X87785714Y-131357142D02*
X87500000Y-131357142D01*
X87214285Y-131500000D01*
X87071428Y-131642857D01*
X86928571Y-131928571D01*
X86785714Y-132500000D01*
X86785714Y-133214285D01*
X86928571Y-133785714D01*
X87071428Y-134071428D01*
X87214285Y-134214285D01*
X87500000Y-134357142D01*
X87785714Y-134357142D01*
X88071428Y-134214285D01*
X88214285Y-134071428D01*
X88357142Y-133785714D01*
X88500000Y-133214285D01*
X88500000Y-132500000D01*
X88357142Y-131928571D01*
X88214285Y-131642857D01*
X88071428Y-131500000D01*
X87785714Y-131357142D01*
X121285714Y-139007142D02*
X121285714Y-136007142D01*
X120285714Y-138150000D01*
X119285714Y-136007142D01*
X119285714Y-139007142D01*
X116571428Y-139007142D02*
X116571428Y-137435714D01*
X116714285Y-137150000D01*
X117000000Y-137007142D01*
X117571428Y-137007142D01*
X117857142Y-137150000D01*
X116571428Y-138864285D02*
X116857142Y-139007142D01*
X117571428Y-139007142D01*
X117857142Y-138864285D01*
X118000000Y-138578571D01*
X118000000Y-138292857D01*
X117857142Y-138007142D01*
X117571428Y-137864285D01*
X116857142Y-137864285D01*
X116571428Y-137721428D01*
X115142857Y-139007142D02*
X115142857Y-137007142D01*
X115142857Y-137578571D02*
X115000000Y-137292857D01*
X114857142Y-137150000D01*
X114571428Y-137007142D01*
X114285714Y-137007142D01*
X113428571Y-138864285D02*
X113142857Y-139007142D01*
X112571428Y-139007142D01*
X112285714Y-138864285D01*
X112142857Y-138578571D01*
X112142857Y-138435714D01*
X112285714Y-138150000D01*
X112571428Y-138007142D01*
X113000000Y-138007142D01*
X113285714Y-137864285D01*
X113428571Y-137578571D01*
X113428571Y-137435714D01*
X113285714Y-137150000D01*
X113000000Y-137007142D01*
X112571428Y-137007142D01*
X112285714Y-137150000D01*
X110857142Y-139007142D02*
X110857142Y-136007142D01*
X109571428Y-139007142D02*
X109571428Y-137435714D01*
X109714285Y-137150000D01*
X110000000Y-137007142D01*
X110428571Y-137007142D01*
X110714285Y-137150000D01*
X110857142Y-137292857D01*
X106857142Y-139007142D02*
X106857142Y-137435714D01*
X107000000Y-137150000D01*
X107285714Y-137007142D01*
X107857142Y-137007142D01*
X108142857Y-137150000D01*
X106857142Y-138864285D02*
X107142857Y-139007142D01*
X107857142Y-139007142D01*
X108142857Y-138864285D01*
X108285714Y-138578571D01*
X108285714Y-138292857D01*
X108142857Y-138007142D01*
X107857142Y-137864285D01*
X107142857Y-137864285D01*
X106857142Y-137721428D01*
X105000000Y-139007142D02*
X105285714Y-138864285D01*
X105428571Y-138578571D01*
X105428571Y-136007142D01*
X101571428Y-139007142D02*
X101571428Y-136007142D01*
X99857142Y-139007142D02*
X101142857Y-137292857D01*
X99857142Y-136007142D02*
X101571428Y-137721428D01*
X98571428Y-139007142D02*
X98571428Y-136007142D01*
X97428571Y-136007142D02*
X95428571Y-136007142D01*
X96714285Y-139007142D01*
X94714285Y-136007142D02*
X93714285Y-139007142D01*
X92714285Y-136007142D01*
X90285714Y-139007142D02*
X91714285Y-139007142D01*
X91714285Y-136007142D01*
X87714285Y-136150000D02*
X88000000Y-136007142D01*
X88428571Y-136007142D01*
X88857142Y-136150000D01*
X89142857Y-136435714D01*
X89285714Y-136721428D01*
X89428571Y-137292857D01*
X89428571Y-137721428D01*
X89285714Y-138292857D01*
X89142857Y-138578571D01*
X88857142Y-138864285D01*
X88428571Y-139007142D01*
X88142857Y-139007142D01*
X87714285Y-138864285D01*
X87571428Y-138721428D01*
X87571428Y-137721428D01*
X88142857Y-137721428D01*
D11*
%TO.C,L401*%
X61090000Y-69120000D02*
X45470000Y-69120000D01*
X61090000Y-93880000D02*
X45470000Y-93880000D01*
X45470000Y-93880000D02*
X45470000Y-69120000D01*
X61090000Y-93880000D02*
X61090000Y-69120000D01*
%TO.C,L403*%
X38120000Y-134090000D02*
X62880000Y-134090000D01*
X38120000Y-118470000D02*
X62880000Y-118470000D01*
X38120000Y-134090000D02*
X38120000Y-118470000D01*
X62880000Y-134090000D02*
X62880000Y-118470000D01*
%TO.C,L402*%
X38120000Y-157090000D02*
X62880000Y-157090000D01*
X38120000Y-141470000D02*
X62880000Y-141470000D01*
X38120000Y-157090000D02*
X38120000Y-141470000D01*
X62880000Y-157090000D02*
X62880000Y-141470000D01*
%TO.C,L401*%
D10*
X62792380Y-80380952D02*
X62792380Y-79904761D01*
X61792380Y-79904761D01*
X62125714Y-81142857D02*
X62792380Y-81142857D01*
X61744761Y-80904761D02*
X62459047Y-80666666D01*
X62459047Y-81285714D01*
X61792380Y-81857142D02*
X61792380Y-81952380D01*
X61840000Y-82047619D01*
X61887619Y-82095238D01*
X61982857Y-82142857D01*
X62173333Y-82190476D01*
X62411428Y-82190476D01*
X62601904Y-82142857D01*
X62697142Y-82095238D01*
X62744761Y-82047619D01*
X62792380Y-81952380D01*
X62792380Y-81857142D01*
X62744761Y-81761904D01*
X62697142Y-81714285D01*
X62601904Y-81666666D01*
X62411428Y-81619047D01*
X62173333Y-81619047D01*
X61982857Y-81666666D01*
X61887619Y-81714285D01*
X61840000Y-81761904D01*
X61792380Y-81857142D01*
X62792380Y-83142857D02*
X62792380Y-82571428D01*
X62792380Y-82857142D02*
X61792380Y-82857142D01*
X61935238Y-82761904D01*
X62030476Y-82666666D01*
X62078095Y-82571428D01*
%TO.C,L403*%
X51619047Y-135792380D02*
X52095238Y-135792380D01*
X52095238Y-134792380D01*
X50857142Y-135125714D02*
X50857142Y-135792380D01*
X51095238Y-134744761D02*
X51333333Y-135459047D01*
X50714285Y-135459047D01*
X50142857Y-134792380D02*
X50047619Y-134792380D01*
X49952380Y-134840000D01*
X49904761Y-134887619D01*
X49857142Y-134982857D01*
X49809523Y-135173333D01*
X49809523Y-135411428D01*
X49857142Y-135601904D01*
X49904761Y-135697142D01*
X49952380Y-135744761D01*
X50047619Y-135792380D01*
X50142857Y-135792380D01*
X50238095Y-135744761D01*
X50285714Y-135697142D01*
X50333333Y-135601904D01*
X50380952Y-135411428D01*
X50380952Y-135173333D01*
X50333333Y-134982857D01*
X50285714Y-134887619D01*
X50238095Y-134840000D01*
X50142857Y-134792380D01*
X49476190Y-134792380D02*
X48857142Y-134792380D01*
X49190476Y-135173333D01*
X49047619Y-135173333D01*
X48952380Y-135220952D01*
X48904761Y-135268571D01*
X48857142Y-135363809D01*
X48857142Y-135601904D01*
X48904761Y-135697142D01*
X48952380Y-135744761D01*
X49047619Y-135792380D01*
X49333333Y-135792380D01*
X49428571Y-135744761D01*
X49476190Y-135697142D01*
%TO.C,L402*%
X51619047Y-158792380D02*
X52095238Y-158792380D01*
X52095238Y-157792380D01*
X50857142Y-158125714D02*
X50857142Y-158792380D01*
X51095238Y-157744761D02*
X51333333Y-158459047D01*
X50714285Y-158459047D01*
X50142857Y-157792380D02*
X50047619Y-157792380D01*
X49952380Y-157840000D01*
X49904761Y-157887619D01*
X49857142Y-157982857D01*
X49809523Y-158173333D01*
X49809523Y-158411428D01*
X49857142Y-158601904D01*
X49904761Y-158697142D01*
X49952380Y-158744761D01*
X50047619Y-158792380D01*
X50142857Y-158792380D01*
X50238095Y-158744761D01*
X50285714Y-158697142D01*
X50333333Y-158601904D01*
X50380952Y-158411428D01*
X50380952Y-158173333D01*
X50333333Y-157982857D01*
X50285714Y-157887619D01*
X50238095Y-157840000D01*
X50142857Y-157792380D01*
X49428571Y-157887619D02*
X49380952Y-157840000D01*
X49285714Y-157792380D01*
X49047619Y-157792380D01*
X48952380Y-157840000D01*
X48904761Y-157887619D01*
X48857142Y-157982857D01*
X48857142Y-158078095D01*
X48904761Y-158220952D01*
X49476190Y-158792380D01*
X48857142Y-158792380D01*
%TD*%
M02*
