%TF.GenerationSoftware,KiCad,Pcbnew,5.1.6*%
%TF.CreationDate,2020-08-25T15:19:02-07:00*%
%TF.ProjectId,uSDX,75534458-2e6b-4696-9361-645f70636258,2.0.3*%
%TF.SameCoordinates,Original*%
%TF.FileFunction,Other,Fab,Bot*%
%FSLAX46Y46*%
G04 Gerber Fmt 4.6, Leading zero omitted, Abs format (unit mm)*
G04 Created by KiCad (PCBNEW 5.1.6) date 2020-08-25 15:19:02*
%MOMM*%
%LPD*%
G01*
G04 APERTURE LIST*
%ADD10C,0.100000*%
%ADD11C,0.150000*%
G04 APERTURE END LIST*
D10*
%TO.C,L401*%
X61030000Y-93820000D02*
X45530000Y-93820000D01*
X45530000Y-93820000D02*
X45530000Y-69180000D01*
X45530000Y-69180000D02*
X61030000Y-69180000D01*
X61030000Y-69180000D02*
X61030000Y-93820000D01*
X59000000Y-91356000D02*
X47560000Y-91356000D01*
X47560000Y-91356000D02*
X47560000Y-71644000D01*
X47560000Y-71644000D02*
X59000000Y-71644000D01*
X59000000Y-71644000D02*
X59000000Y-91356000D01*
X59000000Y-91356000D02*
X47560000Y-90370400D01*
X59000000Y-89384800D02*
X47560000Y-88399200D01*
X59000000Y-87413600D02*
X47560000Y-86428000D01*
X59000000Y-85442400D02*
X47560000Y-84456800D01*
X59000000Y-83471200D02*
X47560000Y-82485600D01*
X59000000Y-81500000D02*
X47560000Y-80514400D01*
X59000000Y-79528800D02*
X47560000Y-78543200D01*
X59000000Y-77557600D02*
X47560000Y-76572000D01*
X59000000Y-75586400D02*
X47560000Y-74600800D01*
X59000000Y-73615200D02*
X47560000Y-72629600D01*
%TO.C,L403*%
X58384800Y-132000000D02*
X59370400Y-120560000D01*
X56413600Y-132000000D02*
X57399200Y-120560000D01*
X54442400Y-132000000D02*
X55428000Y-120560000D01*
X52471200Y-132000000D02*
X53456800Y-120560000D01*
X50500000Y-132000000D02*
X51485600Y-120560000D01*
X48528800Y-132000000D02*
X49514400Y-120560000D01*
X46557600Y-132000000D02*
X47543200Y-120560000D01*
X44586400Y-132000000D02*
X45572000Y-120560000D01*
X42615200Y-132000000D02*
X43600800Y-120560000D01*
X40644000Y-132000000D02*
X41629600Y-120560000D01*
X60356000Y-132000000D02*
X40644000Y-132000000D01*
X60356000Y-120560000D02*
X60356000Y-132000000D01*
X40644000Y-120560000D02*
X60356000Y-120560000D01*
X40644000Y-132000000D02*
X40644000Y-120560000D01*
X62820000Y-134030000D02*
X38180000Y-134030000D01*
X62820000Y-118530000D02*
X62820000Y-134030000D01*
X38180000Y-118530000D02*
X62820000Y-118530000D01*
X38180000Y-134030000D02*
X38180000Y-118530000D01*
%TO.C,L402*%
X58384800Y-155000000D02*
X59370400Y-143560000D01*
X56413600Y-155000000D02*
X57399200Y-143560000D01*
X54442400Y-155000000D02*
X55428000Y-143560000D01*
X52471200Y-155000000D02*
X53456800Y-143560000D01*
X50500000Y-155000000D02*
X51485600Y-143560000D01*
X48528800Y-155000000D02*
X49514400Y-143560000D01*
X46557600Y-155000000D02*
X47543200Y-143560000D01*
X44586400Y-155000000D02*
X45572000Y-143560000D01*
X42615200Y-155000000D02*
X43600800Y-143560000D01*
X40644000Y-155000000D02*
X41629600Y-143560000D01*
X60356000Y-155000000D02*
X40644000Y-155000000D01*
X60356000Y-143560000D02*
X60356000Y-155000000D01*
X40644000Y-143560000D02*
X60356000Y-143560000D01*
X40644000Y-155000000D02*
X40644000Y-143560000D01*
X62820000Y-157030000D02*
X38180000Y-157030000D01*
X62820000Y-141530000D02*
X62820000Y-157030000D01*
X38180000Y-141530000D02*
X62820000Y-141530000D01*
X38180000Y-157030000D02*
X38180000Y-141530000D01*
%TD*%
%TO.C,L401*%
D11*
X44672380Y-81333333D02*
X44672380Y-80761904D01*
X44672380Y-81047619D02*
X43672380Y-81047619D01*
X43815238Y-80952380D01*
X43910476Y-80857142D01*
X43958095Y-80761904D01*
X44005714Y-82190476D02*
X44672380Y-82190476D01*
X44005714Y-81761904D02*
X44529523Y-81761904D01*
X44624761Y-81809523D01*
X44672380Y-81904761D01*
X44672380Y-82047619D01*
X44624761Y-82142857D01*
X44577142Y-82190476D01*
%TO.C,L403*%
X51857142Y-117672380D02*
X52428571Y-117672380D01*
X52142857Y-117672380D02*
X52142857Y-116672380D01*
X52238095Y-116815238D01*
X52333333Y-116910476D01*
X52428571Y-116958095D01*
X51428571Y-117577142D02*
X51380952Y-117624761D01*
X51428571Y-117672380D01*
X51476190Y-117624761D01*
X51428571Y-117577142D01*
X51428571Y-117672380D01*
X50428571Y-117672380D02*
X51000000Y-117672380D01*
X50714285Y-117672380D02*
X50714285Y-116672380D01*
X50809523Y-116815238D01*
X50904761Y-116910476D01*
X51000000Y-116958095D01*
X50095238Y-116672380D02*
X49476190Y-116672380D01*
X49809523Y-117053333D01*
X49666666Y-117053333D01*
X49571428Y-117100952D01*
X49523809Y-117148571D01*
X49476190Y-117243809D01*
X49476190Y-117481904D01*
X49523809Y-117577142D01*
X49571428Y-117624761D01*
X49666666Y-117672380D01*
X49952380Y-117672380D01*
X50047619Y-117624761D01*
X50095238Y-117577142D01*
X48619047Y-117005714D02*
X48619047Y-117672380D01*
X49047619Y-117005714D02*
X49047619Y-117529523D01*
X49000000Y-117624761D01*
X48904761Y-117672380D01*
X48761904Y-117672380D01*
X48666666Y-117624761D01*
X48619047Y-117577142D01*
%TO.C,L402*%
X51857142Y-140672380D02*
X52428571Y-140672380D01*
X52142857Y-140672380D02*
X52142857Y-139672380D01*
X52238095Y-139815238D01*
X52333333Y-139910476D01*
X52428571Y-139958095D01*
X51428571Y-140577142D02*
X51380952Y-140624761D01*
X51428571Y-140672380D01*
X51476190Y-140624761D01*
X51428571Y-140577142D01*
X51428571Y-140672380D01*
X51047619Y-139672380D02*
X50428571Y-139672380D01*
X50761904Y-140053333D01*
X50619047Y-140053333D01*
X50523809Y-140100952D01*
X50476190Y-140148571D01*
X50428571Y-140243809D01*
X50428571Y-140481904D01*
X50476190Y-140577142D01*
X50523809Y-140624761D01*
X50619047Y-140672380D01*
X50904761Y-140672380D01*
X51000000Y-140624761D01*
X51047619Y-140577142D01*
X50095238Y-139672380D02*
X49428571Y-139672380D01*
X49857142Y-140672380D01*
X48619047Y-140005714D02*
X48619047Y-140672380D01*
X49047619Y-140005714D02*
X49047619Y-140529523D01*
X49000000Y-140624761D01*
X48904761Y-140672380D01*
X48761904Y-140672380D01*
X48666666Y-140624761D01*
X48619047Y-140577142D01*
%TD*%
M02*
